<svg width="125" height="100" viewBox="0 0 125 100" fill="none" xmlns="http://www.w3.org/2000/svg">
<g opacity="0.2">
<path d="M91.6666 0C79.1153 0 68.1857 6.93848 62.5 17.1881C56.8143 6.93848 45.8847 0 33.3334 0C14.975 0 0 14.873 0 33.3334C0 70.8334 62.5 100 62.5 100C62.5 100 125 70.8334 125 33.3334C125 14.975 110.127 0 91.6666 0Z" fill="#4B3F97"/>
<path d="M124.777 37.2496C118.782 48.2187 108.621 57.9135 98.5307 65.6244C81.0036 79.0191 55.9247 80.0242 36.7351 65.2357C26.6888 57.4934 16.6425 47.7973 10.7758 36.8471C2.40605 21.2251 13.8118 0 33.6203 0C46.1325 0 57.0257 6.95404 62.6946 17.2223C68.3636 6.95404 79.2568 0 91.769 0C111.664 0 127.052 17.4268 124.777 37.2496Z" fill="#6A5ACD"/>
<path d="M94.1351 27.0236C96.7911 28.1854 98.5387 30.8333 98.5387 33.7389C98.5387 35.4533 97.9239 38.434 94.9936 42.8993C93.4087 45.3145 94.0818 48.557 96.4972 50.1417C98.9224 51.7329 102.161 51.0434 103.74 48.6382C107.23 43.3191 109 38.3062 109 33.7389C109 26.7422 104.839 20.2886 98.3288 17.44C95.682 16.2818 92.5978 17.489 91.4399 20.1351C90.282 22.7814 91.4889 25.8657 94.1351 27.0236Z" fill="#8C81CF"/>
</g>
</svg>
