<svg width="125" height="125" viewBox="0 0 125 125" fill="none" xmlns="http://www.w3.org/2000/svg">
<g opacity="0.2">
<path d="M62.5 125C97.0178 125 125 97.0178 125 62.5C125 27.9822 97.0178 0 62.5 0C27.9822 0 0 27.9822 0 62.5C0 97.0178 27.9822 125 62.5 125Z" fill="#E3E8F6"/>
<path d="M62.5018 4.57443e-05C48.1018 -0.0174031 34.1411 4.95742 22.998 14.0771C13.2443 26.0787 8.2866 41.2695 9.08299 56.7134C9.87938 72.1572 16.3734 86.7576 27.3098 97.6926C38.2461 108.628 52.8485 115.121 68.2943 115.917C83.7402 116.713 98.933 111.756 110.936 102.004C118.408 92.8415 123.127 81.7484 124.547 70.012C125.967 58.2756 124.03 46.3771 118.959 35.6976C113.888 25.0181 105.892 15.9955 95.8987 9.67691C85.9056 3.35833 74.3253 0.00289359 62.5018 4.57443e-05Z" fill="#F8F7FE"/>
<path d="M102 48.6667H75.3333V22H48.6667V48.6667H22V75.3333H48.6667V102H75.3333V75.3333H102V48.6667Z" fill="#493F8C"/>
<path d="M76.1765 48.6667V22H53.8235V48.6667H27V75.3333H53.8235V102H76.1765V75.3333H103V48.6667H76.1765Z" fill="#6A5ACD"/>
</g>
</svg>
