<svg width="125" height="125" viewBox="0 0 125 125" fill="none" xmlns="http://www.w3.org/2000/svg">
<g clip-path="url(#clip0_160_20518)">
<g opacity="0.2">
<path d="M125 62.5C125 97.0173 97.0173 125 62.5 125C27.9817 125 0 97.0173 0 62.5C0 27.9817 27.9817 0 62.5 0C97.0173 0 125 27.9817 125 62.5Z" fill="url(#paint0_linear_160_20518)"/>
<path d="M125 62.7054C125 69.4394 123.924 75.9256 121.933 82H79.9647C77.5685 82 75.6278 80.0648 75.6278 77.6796V72.9456C75.6278 71.7532 75.1398 70.6736 74.3553 69.8918C73.9526 69.4906 73.4743 69.1724 72.9478 68.9555C72.4212 68.7387 71.8569 68.6274 71.287 68.6282C63.3976 68.6282 57 62.2614 57 54.409V43.9582C57 33.7169 65.3382 25.4177 75.6278 25.4177H87.1651C89.5606 25.4177 91.5022 23.4862 91.5022 21.1009V20.3165C91.5022 17.9325 93.4465 16 95.843 16H103.762C116.784 27.3919 125 44.0949 125 62.7054Z" fill="#887BDC"/>
<path d="M29 70.5028C29 82.2269 19.4445 91.7589 7.55744 92C2.73726 83.2472 0 73.2282 0 62.5784C0 58.1783 0.465419 53.8901 1.35556 49.749V49.7461C3.22557 49.249 5.15463 48.9981 7.09202 49C19.1919 49 29 58.6267 29 70.5028Z" fill="#A69FD0"/>
<path d="M62.4412 125C74.8007 125 86.3174 121.434 96 115.285C92.0572 111.07 86.417 108.431 80.1543 108.431C79.9417 108.431 79.7291 108.434 79.5172 108.44C74.816 108.575 70.1514 107.386 66.2769 104.748C62.8038 102.383 58.5951 101 54.0599 101C43.761 101 35.1537 108.136 33 117.682C41.7648 122.349 51.7893 125 62.4412 125Z" fill="#8478D5"/>
<path d="M65 18.0001C65 21.866 61.866 25 57.9999 25C54.1337 25 51 21.866 51 18.0001C51 14.1342 54.134 11 57.9999 11C61.8658 11 65 14.134 65 18.0001Z" fill="#887BDC"/>
</g>
</g>
<defs>
<linearGradient id="paint0_linear_160_20518" x1="16.4978" y1="16.498" x2="119.218" y2="119.218" gradientUnits="userSpaceOnUse">
<stop stop-color="#8673FF"/>
<stop offset="1" stop-color="#1C00C9"/>
</linearGradient>
<clipPath id="clip0_160_20518">
<rect width="125" height="125" fill="white"/>
</clipPath>
</defs>
</svg>
