<svg width="125" height="120" viewBox="0 0 125 120" fill="none" xmlns="http://www.w3.org/2000/svg">
<g clip-path="url(#clip0_160_20464)">
<g opacity="0.2">
<path d="M82.8537 38.005C105.81 37.6585 124.548 55.5093 124.992 78.1878C125.057 81.5175 124.72 84.7583 124.026 87.867C122.851 93.1307 122.153 98.4871 122.153 103.877V114.297C122.153 115.893 120.843 117.187 119.227 117.187H108.681C103.225 117.187 97.803 117.877 92.4752 119.038C89.3288 119.724 86.0484 120.057 82.6781 119.992C59.7233 119.553 41.6548 101.042 42.005 78.3627C42.3466 56.2254 60.4467 38.3431 82.8537 38.005Z" fill="black"/>
<path d="M82.8537 38.005C105.81 37.6585 124.548 55.5093 124.992 78.1878C125.057 81.5175 124.72 84.7583 124.026 87.867C122.851 93.1307 122.153 98.4871 122.153 103.877V114.297C122.153 115.893 120.843 117.187 119.227 117.187H108.681C103.225 117.187 97.803 117.877 92.4752 119.038C89.3288 119.724 86.0484 120.057 82.6781 119.992C59.7233 119.553 41.6548 101.042 42.005 78.3627C42.3466 56.2254 60.4467 38.3431 82.8537 38.005Z" fill="#8171E4"/>
<path d="M51.2865 0.00604859C23.3512 -0.416506 0.55073 21.3526 0.00965385 49.0095C-0.0695699 53.0696 0.340284 57.0225 1.18501 60.8133C2.61496 67.2322 3.46508 73.7646 3.46508 80.3382V93.0445C3.46508 94.9911 5.05888 96.5694 7.02525 96.5694H19.8585C26.4976 96.5694 33.0953 97.4111 39.5786 98.8269C43.4073 99.663 47.3994 100.069 51.5002 99.9904C79.4331 99.4549 101.42 76.8808 100.994 49.2224C100.578 22.2258 78.5528 0.41816 51.2865 0.00604859Z" fill="#6A5ACD"/>
<path d="M32.5735 47.4786C31.1407 45.9561 29.1127 45 26.8566 45C22.5175 45 19 48.5175 19 52.8566C19 55.1125 19.9559 57.1405 21.4786 58.5735L38.4265 75.5214C39.8595 77.0439 41.8875 78 44.1434 78C48.4825 78 52 74.4825 52 70.1434C52 67.8875 51.0439 65.8595 49.5214 64.4265L32.5735 47.4786Z" fill="url(#paint0_linear_160_20464)"/>
<path d="M27 61C31.4183 61 35 57.4183 35 53C35 48.5817 31.4183 45 27 45C22.5817 45 19 48.5817 19 53C19 57.4183 22.5817 61 27 61Z" fill="white"/>
<path d="M54.5735 47.4786C53.1407 45.9561 51.1127 45 48.8566 45C44.5175 45 41 48.5175 41 52.8566C41 55.1125 41.9559 57.1405 43.4786 58.5735L60.4265 75.5214C61.8595 77.0439 63.8875 78 66.1434 78C70.4825 78 74 74.4825 74 70.1434C74 67.8875 73.0439 65.8595 71.5214 64.4265L54.5735 47.4786Z" fill="url(#paint1_linear_160_20464)"/>
<path d="M49 61C53.4183 61 57 57.4183 57 53C57 48.5817 53.4183 45 49 45C44.5817 45 41 48.5817 41 53C41 57.4183 44.5817 61 49 61Z" fill="white"/>
<path d="M76.5735 47.4786C75.1407 45.9561 73.1127 45 70.8566 45C66.5175 45 63 48.5175 63 52.8566C63 55.1125 63.9561 57.1405 65.4786 58.5735L82.4265 75.5214C83.8595 77.0439 85.8875 78 88.1434 78C92.4825 78 96 74.4825 96 70.1434C96 67.8875 95.0439 65.8595 93.5214 64.4265L76.5735 47.4786Z" fill="url(#paint2_linear_160_20464)"/>
<path d="M71 61C75.4183 61 79 57.4183 79 53C79 48.5817 75.4183 45 71 45C66.5817 45 63 48.5817 63 53C63 57.4183 66.5817 61 71 61Z" fill="white"/>
</g>
</g>
<defs>
<linearGradient id="paint0_linear_160_20464" x1="35.5" y1="45" x2="35.5" y2="78" gradientUnits="userSpaceOnUse">
<stop stop-color="#443A81"/>
<stop offset="1" stop-color="#443A81" stop-opacity="0"/>
</linearGradient>
<linearGradient id="paint1_linear_160_20464" x1="57.5" y1="45" x2="57.5" y2="78" gradientUnits="userSpaceOnUse">
<stop stop-color="#443A81"/>
<stop offset="1" stop-color="#443A81" stop-opacity="0"/>
</linearGradient>
<linearGradient id="paint2_linear_160_20464" x1="79.5" y1="45" x2="79.5" y2="78" gradientUnits="userSpaceOnUse">
<stop stop-color="#443A81"/>
<stop offset="1" stop-color="#443A81" stop-opacity="0"/>
</linearGradient>
<clipPath id="clip0_160_20464">
<rect width="125" height="120" fill="white"/>
</clipPath>
</defs>
</svg>
