<svg width="169" height="166" viewBox="0 0 169 166" fill="none" xmlns="http://www.w3.org/2000/svg">
<g opacity="0.2">
<path d="M58.5 66L40 88.0309H47.4V117.655L54.8 125H77V88.0309L58.5 66Z" fill="#4D38CD"/>
<path d="M46.9592 118L21 147H50.6327L61.6531 139.75L68.8469 125.552L69 118H46.9592Z" fill="#3E2CAF"/>
<path d="M109.5 66L91 88.0309V125H114.819L120.6 117.655V88.0309H128L109.5 66Z" fill="#7E71CE"/>
<path d="M83.5 22L58 43.9668H68.9286V125H98.0714V43.9668H109L83.5 22Z" fill="#5C49D5"/>
<path d="M98.8571 43.9668H110L84 22V125H98.8571V43.9668Z" fill="#6A5ACD"/>
<path d="M120.254 118H98.3947L98 124.465L107.078 142.529L116.611 147H146L120.254 118Z" fill="#6A5ACD"/>
<path d="M98.6667 118H69.3333L51 147H117L98.6667 118Z" fill="#5040B8"/>
<path d="M98.6667 118H84V147H117L98.6667 118Z" fill="#5C4CC6"/>
</g>
</svg>
