<svg width="148" height="141" viewBox="0 0 148 141" fill="none" xmlns="http://www.w3.org/2000/svg">
<g opacity="0.2">
<path d="M124.071 38.301C129.194 48.0102 133 58.7221 133 70.5C133 105.018 105.018 133 70.5 133C35.9822 133 8 105.018 8 70.5C8 35.9822 35.9822 8 70.5 8C82.4916 8 94.1808 11.6697 103.696 17.5249C103.696 17.5249 118.449 27.645 124.071 38.301Z" fill="#6A5ACD"/>
<path d="M132 70.5C132 58.7222 128.225 48.0103 123.143 38.301C117.566 27.645 102.93 17.5249 102.93 17.5249C93.4915 11.6697 81.8958 8 70 8V133C104.242 133 132 105.018 132 70.5Z" fill="#5649A6"/>
<path d="M106.787 52.4904C109.454 58.1763 111 63.7864 111 70.5C111 92.8674 92.8676 111 70.4999 111C48.1322 111 30 92.8674 30 70.5C30 48.1326 48.1327 30 70.5001 30C77.5653 30 83.6496 31.5059 89.4318 34.6861C89.4318 34.6863 101.735 41.7146 106.787 52.4904Z" fill="#FFF4F4"/>
<path d="M111 70.5001C111 63.7862 109.435 58.1764 106.735 52.4905C101.62 41.7149 89.1656 34.6863 89.1656 34.6863C83.3118 31.5061 77.1524 30 70 30V111C92.6435 111 111 92.8676 111 70.5001Z" fill="#EEE1DC"/>
<path d="M70 89C80.4934 89 89 80.4934 89 70C89 59.5066 80.4934 51 70 51C59.5066 51 51 59.5066 51 70C51 80.4934 59.5066 89 70 89Z" fill="#6A5ACD"/>
<path d="M89 70C89 59.5067 80.4933 51 70 51V89C80.4933 89 89 80.4933 89 70Z" fill="#5649A6"/>
<path d="M69.8351 76C69.3292 76.0007 68.8282 75.9004 68.3612 75.7049C67.8941 75.5095 67.4703 75.2227 67.1143 74.8613C65.6216 73.3502 65.6297 70.9082 67.132 69.4068L114.462 22.1205C115.965 20.6194 118.393 20.6277 119.886 22.1383C121.378 23.6495 121.37 26.0917 119.868 27.5928L72.5379 74.8792C71.8202 75.5981 70.8481 76.0012 69.8351 76Z" fill="#7768D6"/>
<path d="M119.971 19.7798L116.477 9.62118C115.9 7.94095 113.775 7.44914 112.527 8.70632L92.7003 28.6742C92.4172 28.9593 92.2097 29.3115 92.0969 29.6983C91.9841 30.0852 91.9695 30.4944 92.0546 30.8884L94.9656 44.3825C95.0588 44.8146 95.2683 45.2125 95.5711 45.5326C95.874 45.8526 96.2585 46.0826 96.6825 46.1971L110.449 49.9177C110.855 50.0273 111.282 50.0274 111.688 49.9181C112.093 49.8087 112.463 49.5937 112.76 49.2948L132.299 29.6168C133.491 28.4159 133.108 26.3828 131.562 25.7055L121.277 21.2002C120.973 21.0674 120.7 20.8726 120.476 20.6281C120.251 20.3836 120.079 20.0947 119.971 19.7798Z" fill="#6A5ACD"/>
<path d="M119.881 22.0832C119.852 22.0536 119.82 22.0284 119.79 22L67 74.9434C67.7126 75.6216 68.6575 75.9998 69.6399 76C70.6208 76 71.6022 75.6262 72.3531 74.8783L119.863 27.5435C121.372 26.0406 121.38 23.5961 119.881 22.0832Z" fill="#6A5ACD"/>
<path d="M131.565 25.822L121.299 21.3382C121.102 21.251 120.917 21.1372 120.75 21L96 45.8552C96.228 46.0189 96.483 46.1409 96.7534 46.2153L110.493 49.9181C110.898 50.0272 111.324 50.0273 111.729 49.9185C112.134 49.8096 112.503 49.5957 112.8 49.2981L132.301 29.7144C133.49 28.5193 133.108 26.496 131.565 25.822Z" fill="#5F50BD"/>
</g>
</svg>
