<svg width="64" height="64" viewBox="0 0 64 64" fill="none" xmlns="http://www.w3.org/2000/svg">
<path d="M54.7614 34.1536H49.8118C50.3163 35.5275 50.592 37.0101 50.592 38.5555V57.1619C50.592 57.8062 50.4792 58.4246 50.2741 58.9998H58.4567C61.5134 58.9998 64 56.5263 64 53.4861V43.3429C64.0001 38.276 59.8556 34.1536 54.7614 34.1536ZM13.4082 38.5556C13.4082 37.0101 13.6838 35.5276 14.1883 34.1537H9.23877C4.14451 34.1537 0 38.2761 0 43.3431V53.4863C0 56.5265 2.48663 59 5.54326 59H13.726C13.5154 58.4099 13.4079 57.7882 13.4082 57.162V38.5556ZM37.6577 29.3661H26.3424C21.2482 29.3661 17.1037 33.4885 17.1037 38.5556V57.162C17.1037 58.1769 17.9309 58.9999 18.9514 58.9999H45.0487C46.0692 58.9999 46.8965 58.177 46.8965 57.162V38.5556C46.8965 33.4885 42.752 29.3661 37.6577 29.3661ZM32.0001 5C25.8736 5 20.8893 9.95765 20.8893 16.0516C20.8893 20.185 23.1829 23.795 26.5702 25.6904C28.1768 26.5893 30.0291 27.103 32.0001 27.103C33.9711 27.103 35.8233 26.5893 37.43 25.6904C40.8173 23.795 43.1108 20.1849 43.1108 16.0516C43.1108 9.95777 38.1266 5 32.0001 5ZM12.4898 15.3009C7.90789 15.3009 4.18038 19.0085 4.18038 23.5659C4.18038 28.1233 7.90789 31.8309 12.4898 31.8309C13.6157 31.8319 14.73 31.6039 15.7642 31.161C17.5024 30.4166 18.9357 29.0989 19.8225 27.4484C20.465 26.2542 20.8005 24.9204 20.7992 23.5659C20.7992 19.0086 17.0717 15.3009 12.4898 15.3009ZM51.5104 15.3009C46.9285 15.3009 43.201 19.0085 43.201 23.5659C43.1996 24.9204 43.5351 26.2542 44.1776 27.4484C45.0645 29.0991 46.4977 30.4167 48.236 31.161C49.2701 31.6039 50.3844 31.8319 51.5104 31.8309C56.0922 31.8309 59.8197 28.1233 59.8197 23.5659C59.8197 19.0085 56.0922 15.3009 51.5104 15.3009Z" fill="url(#paint0_radial_160_20817)"/>
<defs>
<radialGradient id="paint0_radial_160_20817" cx="0" cy="0" r="1" gradientUnits="userSpaceOnUse" gradientTransform="translate(32 32) rotate(90) scale(27 32)">
<stop stop-color="#6A5ACD"/>
<stop offset="1" stop-color="#A0A5D1"/>
</radialGradient>
</defs>
</svg>
