<svg width="64" height="64" viewBox="0 0 64 64" fill="none" xmlns="http://www.w3.org/2000/svg">
<path d="M25.2379 35.8643L31.3251 29.6484C32.0471 28.9111 32.0471 27.7167 31.3251 26.9794L25.682 21.2168L30.5057 8.90315C30.6205 8.60901 30.6611 8.29015 30.6238 7.97582C30.5866 7.66148 30.4727 7.36172 30.2925 7.10402C27.1711 2.65647 22.1131 0 16.7603 0C6.98648 0 0 7.79765 0 18.9625C0 32.8839 11.3725 39.9433 27.0754 53.8407C27.9298 54.5971 28.4968 55.2544 29.619 54.9024C29.9205 54.8052 30.1925 54.6305 30.4091 54.3952C30.6256 54.1599 30.7794 53.8718 30.8557 53.5585L32.9446 45.0294C33.0222 44.7134 33.0182 44.3822 32.9331 44.0682C32.8479 43.7541 32.6845 43.468 32.4588 43.2377L25.2379 35.8643Z" fill="url(#paint0_radial_160_20785)"/>
<path d="M47.1152 0C43.8582 0 40.6971 0.951912 37.975 2.75415C37.6536 2.96728 37.4047 3.27592 37.2621 3.63804L31.133 19.2087C30.9978 19.5526 30.9648 19.9293 31.0381 20.2921C31.1115 20.6549 31.288 20.9878 31.5457 21.2496L38.5747 28.3946L32.4422 34.6281C31.7148 35.3675 31.7148 36.5654 32.4422 37.3048L38.0034 42.9581L36.1194 50.6261C35.9215 51.4267 36.2594 52.2657 36.9524 52.6986C37.9884 53.3428 38.7551 52.8578 39.5588 52.1493C44.9599 47.4003 49.2266 43.6493 52.9983 39.9816C58.6289 34.5043 64 28.1727 64 19.0165C64 7.81987 56.9617 0 47.1152 0Z" fill="url(#paint1_radial_160_20785)"/>
<defs>
<radialGradient id="paint0_radial_160_20785" cx="0" cy="0" r="1" gradientUnits="userSpaceOnUse" gradientTransform="translate(16.5 27.5) rotate(90) scale(27.5 16.5)">
<stop stop-color="#6A5ACD"/>
<stop offset="1" stop-color="#A0A5D1"/>
</radialGradient>
<radialGradient id="paint1_radial_160_20785" cx="0" cy="0" r="1" gradientUnits="userSpaceOnUse" gradientTransform="translate(47.5 26.5) rotate(90) scale(26.5 16.5)">
<stop stop-color="#6A5ACD"/>
<stop offset="1" stop-color="#A0A5D1"/>
</radialGradient>
</defs>
</svg>
