<svg width="64" height="64" viewBox="0 0 64 64" fill="none" xmlns="http://www.w3.org/2000/svg">
<path d="M22.76 16.0088H41.24L45.78 6.91067C45.9898 6.48999 46.0447 6.00885 45.9349 5.55176C45.8252 5.09466 45.5579 4.69083 45.18 4.41117C44.8006 4.1283 44.3331 3.98914 43.8607 4.01843C43.3883 4.04772 42.9416 4.24356 42.6 4.57114C41.2913 5.59156 39.657 6.10306 38 6.01085C36.3524 6.10204 34.727 5.59818 33.42 4.59113C33.0453 4.21871 32.5384 4.00967 32.01 4.00967C31.4816 4.00967 30.9747 4.21871 30.6 4.59113C29.2886 5.60442 27.6545 6.10873 26 6.01085C24.3524 6.10204 22.727 5.59818 21.42 4.59113C21.0839 4.25248 20.6377 4.04514 20.1621 4.00655C19.6865 3.96797 19.2127 4.10067 18.8264 4.38071C18.4401 4.66074 18.1666 5.06965 18.0554 5.53361C17.9442 5.99756 18.0026 6.48598 18.22 6.91067L22.76 16.0088ZM42.48 20.008H21.52C17.24 25.187 10 35.4649 10 46.0028C10 55.141 16.96 60 22 60H42C47.04 60 54 55.141 54 46.0028C54 35.4649 46.76 25.187 42.48 20.008ZM34 48.0024V50.002C34 50.5323 33.7893 51.0409 33.4142 51.4159C33.0391 51.7909 32.5304 52.0016 32 52.0016C31.4696 52.0016 30.9609 51.7909 30.5858 51.4159C30.2107 51.0409 30 50.5323 30 50.002V48.0024C28.9495 47.9996 27.9182 47.7211 27.0092 47.1947C26.1001 46.6683 25.3452 45.9126 24.82 45.003C24.6554 44.7767 24.5401 44.5184 24.4817 44.2448C24.4232 43.9712 24.4228 43.6884 24.4805 43.4146C24.5382 43.1408 24.6527 42.8822 24.8166 42.6555C24.9806 42.4287 25.1903 42.2389 25.4322 42.0983C25.6742 41.9576 25.9429 41.8693 26.2211 41.8391C26.4993 41.8088 26.7808 41.8372 27.0473 41.9225C27.3138 42.0079 27.5595 42.1481 27.7684 42.3343C27.9773 42.5205 28.1447 42.7485 28.26 43.0034C28.4362 43.3086 28.6899 43.5617 28.9955 43.7373C29.301 43.9129 29.6476 44.0046 30 44.0032H34C34.5304 44.0032 35.0391 43.7925 35.4142 43.4175C35.7893 43.0425 36 42.5339 36 42.0036C36 41.4733 35.7893 40.9647 35.4142 40.5897C35.0391 40.2147 34.5304 40.004 34 40.004H30C28.4087 40.004 26.8826 39.372 25.7574 38.247C24.6321 37.122 24 35.5962 24 34.0052C24 32.4142 24.6321 30.8884 25.7574 29.7634C26.8826 28.6384 28.4087 28.0064 30 28.0064V26.0068C30 25.4765 30.2107 24.9679 30.5858 24.5929C30.9609 24.2179 31.4696 24.0072 32 24.0072C32.5304 24.0072 33.0391 24.2179 33.4142 24.5929C33.7893 24.9679 34 25.4765 34 26.0068V28.0064C35.0505 28.0093 36.0818 28.2878 36.9908 28.8141C37.8999 29.3405 38.6548 30.0963 39.18 31.0058C39.3446 31.2321 39.4599 31.4904 39.5183 31.764C39.5768 32.0376 39.5772 32.3205 39.5195 32.5942C39.4618 32.868 39.3473 33.1266 39.1834 33.3534C39.0194 33.5801 38.8097 33.77 38.5678 33.9106C38.3258 34.0512 38.0571 34.1395 37.7789 34.1698C37.5007 34.2 37.2192 34.1716 36.9527 34.0863C36.6862 34.001 36.4405 33.8607 36.2316 33.6745C36.0227 33.4883 35.8553 33.2604 35.74 33.0054C35.5638 32.7003 35.3101 32.4471 35.0045 32.2715C34.699 32.096 34.3524 32.0042 34 32.0056H30C29.4696 32.0056 28.9609 32.2163 28.5858 32.5913C28.2107 32.9663 28 33.4749 28 34.0052C28 34.5355 28.2107 35.0442 28.5858 35.4192C28.9609 35.7942 29.4696 36.0048 30 36.0048H34C35.5913 36.0048 37.1174 36.6368 38.2426 37.7618C39.3679 38.8868 40 40.4126 40 42.0036C40 43.5946 39.3679 45.1204 38.2426 46.2454C37.1174 47.3704 35.5913 48.0024 34 48.0024Z" fill="url(#paint0_radial_160_20824)"/>
<defs>
<radialGradient id="paint0_radial_160_20824" cx="0" cy="0" r="1" gradientUnits="userSpaceOnUse" gradientTransform="translate(32 32) rotate(90) scale(28 22)">
<stop stop-color="#6A5ACD"/>
<stop offset="1" stop-color="#A0A5D1"/>
</radialGradient>
</defs>
</svg>
