<svg width="64" height="64" viewBox="0 0 64 64" fill="none" xmlns="http://www.w3.org/2000/svg">
<path d="M21.9011 36.4486C21.6462 36.8291 21.1363 37.0827 20.754 37.2095C19.097 37.8435 17.1852 37.0827 16.4204 35.4342C15.7831 33.7857 16.5479 31.8836 18.2048 31.2496C19.8618 30.6156 21.7736 31.3764 22.4109 33.0249C22.6658 33.4053 22.6658 33.7857 22.6658 34.1661L27.1268 21.866C26.8719 21.6124 26.617 21.2319 26.4895 20.8515C25.8522 19.203 26.617 17.301 28.2739 16.6669C29.421 16.1597 30.8231 16.4133 31.7153 17.301C32.2251 17.301 32.7349 17.4278 33.1173 17.5546L40 20.0907L32.8624 2.33787C32.3526 1.19661 31.2054 0.689391 30.0583 1.19661L2.40011 12.1019C1.25299 12.6091 0.743165 13.8772 1.12554 14.8916L12.3418 42.6621C12.8516 43.8034 14.1262 44.3106 15.1458 43.8034L19.8618 41.9013L21.9011 36.4486ZM24.7051 7.4101C26.3621 6.77607 28.2739 7.53691 28.9112 9.18538C29.5485 10.8339 28.7838 12.7359 27.1268 13.37C25.4699 14.004 23.558 13.2432 22.9207 11.5947C22.156 10.073 23.0482 8.17094 24.7051 7.4101ZM9.02789 17.301C8.3906 15.6525 9.15534 13.7504 10.8123 12.9896C12.4692 12.3555 14.3811 13.1164 15.0184 14.7648C15.6557 16.4133 14.8909 18.3154 13.234 18.9494C11.577 19.7103 9.66517 18.9494 9.02789 17.301ZM12.7241 26.3042C12.0869 24.6557 12.8516 22.7536 14.5085 22.1196C16.1655 21.4855 18.0774 22.2464 18.8421 23.8949C19.4794 25.5433 18.7146 27.4454 17.0577 28.2063C15.2733 28.8403 13.3614 28.0795 12.7241 26.3042Z" fill="url(#paint0_radial_160_20832)"/>
<path d="M60.5899 29.396L32.2201 19.1264C31.0648 18.7413 29.7811 19.2548 29.396 20.4101L19.1264 48.7799C18.7413 49.9352 19.2548 51.2189 20.4101 51.604L48.7799 61.8736C49.9352 62.2587 51.2189 61.7452 51.604 60.5899L61.8736 32.2201C62.2587 31.0648 61.7452 29.7811 60.5899 29.396ZM33.1187 48.3947C32.4769 50.0635 30.5513 50.9621 28.8825 50.3203C27.2137 49.6784 26.3151 47.7529 26.957 46.0841C27.5988 44.4153 29.5244 43.5167 31.1932 44.1585C32.862 44.8004 33.7606 46.7259 33.1187 48.3947ZM36.4564 39.0237C35.8145 40.6926 33.889 41.5911 32.2201 40.9493C30.5513 40.3074 29.6528 38.3819 30.2946 36.7131C30.9365 35.0443 32.862 34.1457 34.5308 34.7875C36.1996 35.4294 37.0982 37.3549 36.4564 39.0237ZM39.9223 29.6528C39.2805 31.3216 37.3549 32.2201 35.6861 31.5783C34.0173 30.9365 33.1187 29.0109 33.7606 27.3421C34.4024 25.6733 36.328 24.7747 37.9968 25.4166C39.6656 26.0584 40.5642 27.9839 39.9223 29.6528ZM47.2394 53.5295C46.5976 55.1983 44.672 56.0969 43.0032 55.4551C41.3344 54.8132 40.4358 52.8877 41.0777 51.2189C41.7195 49.5501 43.6451 48.6515 45.3139 49.2933C46.9827 49.9352 47.8813 51.8607 47.2394 53.5295ZM50.577 44.1585C49.9352 45.8273 48.0096 46.7259 46.3408 46.0841C44.672 45.4422 43.7734 43.5167 44.4153 41.8479C45.0571 40.1791 46.9827 39.2805 48.6515 39.9223C50.3203 40.5642 51.2189 42.4897 50.577 44.1585ZM54.043 34.7875C53.4012 36.4564 51.4756 37.3549 49.8068 36.7131C48.138 36.0712 47.2394 34.1457 47.8813 32.4769C48.5231 30.8081 50.4487 29.9095 52.1175 30.5513C53.7863 31.1932 54.6849 33.1187 54.043 34.7875Z" fill="url(#paint1_radial_160_20832)"/>
<defs>
<radialGradient id="paint0_radial_160_20832" cx="0" cy="0" r="1" gradientUnits="userSpaceOnUse" gradientTransform="translate(20.5 22.5) rotate(90) scale(21.5 19.5)">
<stop stop-color="#6A5ACD"/>
<stop offset="1" stop-color="#A0A5D1"/>
</radialGradient>
<radialGradient id="paint1_radial_160_20832" cx="0" cy="0" r="1" gradientUnits="userSpaceOnUse" gradientTransform="translate(40.5 40.5) rotate(90) scale(21.5)">
<stop stop-color="#6A5ACD"/>
<stop offset="1" stop-color="#A0A5D1"/>
</radialGradient>
</defs>
</svg>
