<svg width="64" height="64" viewBox="0 0 64 64" fill="none" xmlns="http://www.w3.org/2000/svg">
<path d="M24.7381 14.3738C26.2582 14.3715 27.7153 13.7717 28.7901 12.7058C29.8648 11.6398 30.4695 10.1948 30.4714 8.68748C30.4698 7.17997 29.8653 5.73463 28.7905 4.66843C27.7157 3.60223 26.2584 3.00223 24.7381 3C23.217 3 21.7582 3.59915 20.6827 4.66565C19.6072 5.73215 19.0029 7.17863 19.0029 8.68688C19.0029 10.1951 19.6072 11.6416 20.6827 12.7081C21.7582 13.7746 23.217 14.3738 24.7381 14.3738ZM36.5707 35.8595V22.2975C36.5691 21.0487 36.0681 19.8515 35.1775 18.9685C34.287 18.0854 33.0796 17.5886 31.8202 17.587H19.7137C19.0315 17.5852 18.3556 17.7175 17.7254 17.9764C17.0951 18.2352 16.5228 18.6155 16.0417 19.0951L8.01191 27.0573C7.69032 27.3747 7.43531 27.752 7.26163 28.1676C7.08795 28.5832 6.99903 29.0288 7.00001 29.4787C7.00001 30.3944 7.35993 31.2536 8.01191 31.9013C8.66007 32.5422 9.53795 32.9023 10.4533 32.9028C11.3687 32.9032 12.2469 32.5439 12.8957 31.9037L17.8401 27.0045V54.7065C17.8414 55.8448 18.298 56.9361 19.1098 57.741C19.9215 58.546 21.0221 58.9987 22.1701 59H27.4308C28.5788 58.9987 29.6794 58.546 30.4912 57.741C31.3029 56.9361 31.7595 55.8448 31.7608 54.7065V39.8382H32.5582C33.6221 39.8373 34.6421 39.4178 35.3944 38.6719C36.1467 37.9259 36.5697 36.9145 36.5707 35.8595ZM41.2655 14.3738C42.7858 14.3719 44.2433 13.7722 45.3183 12.7062C46.3933 11.6402 46.9981 10.195 47 8.68748C46.9984 7.17976 46.3937 5.73424 45.3187 4.66801C44.2436 3.60177 42.786 3.00191 41.2655 3C38.1098 3 35.543 5.55114 35.543 8.68748C35.543 10.1935 36.1455 11.638 37.2184 12.704C38.2912 13.7701 39.7467 14.3706 41.2655 14.3738Z" fill="url(#paint0_radial_160_20801)"/>
<path d="M56.0073 32.1947C56.6532 31.5511 57 30.7049 57 29.7992C57 28.8814 56.6532 28.0353 56.0073 27.3917L48.0767 19.4899C47.6021 19.0143 47.0373 18.6376 46.4151 18.3818C45.7929 18.126 45.1258 17.9963 44.4528 18.0001H37.4694C36.8355 18.0001 36.2136 18.1193 35.6395 18.3576C36.2423 18.9044 36.7239 19.5706 37.0534 20.3135C37.3829 21.0564 37.5531 21.8598 37.5531 22.672V36.1158C37.5541 37.4087 37.0658 38.6545 36.1857 39.6044C35.3056 40.5544 34.0984 41.1387 32.805 41.2407V46.7588H34.7545C35.2927 46.7588 35.7232 47.1998 35.7232 47.7242V55.9836C35.7232 57.9858 37.3498 59.6067 39.359 59.6067H42.6361C44.6453 59.6067 46.2719 57.9858 46.2719 55.9836V47.7242C46.2719 47.1998 46.7144 46.7588 47.2407 46.7588H49.7523C50.3144 46.7588 50.8406 46.5085 51.1755 46.0676C51.5223 45.6266 51.6419 45.0545 51.4984 44.5182L47.1809 28.214L51.1875 32.1947C51.8274 32.8301 52.694 33.1868 53.5974 33.1868C54.5008 33.1868 55.3673 32.8301 56.0073 32.1947ZM8 59.4041C8 59.7378 8.26312 60 8.598 60C8.93288 60 9.196 59.7378 9.196 59.4041V34.1732C8.76544 34.0301 8.37076 33.8394 8 33.5892V59.4041Z" fill="url(#paint1_radial_160_20801)"/>
<path d="M55 59.3911C55 59.7321 55.229 60 55.5 60C55.779 60 56 59.7321 56 59.3911V33C55.689 33.2558 55.359 33.4628 55 33.5968V59.3911Z" fill="url(#paint2_radial_160_20801)"/>
<defs>
<radialGradient id="paint0_radial_160_20801" cx="0" cy="0" r="1" gradientUnits="userSpaceOnUse" gradientTransform="translate(27 31) rotate(90) scale(28 20)">
<stop stop-color="#6A5ACD"/>
<stop offset="1" stop-color="#A0A5D1"/>
</radialGradient>
<radialGradient id="paint1_radial_160_20801" cx="0" cy="0" r="1" gradientUnits="userSpaceOnUse" gradientTransform="translate(32.5 39) rotate(90) scale(21 24.5)">
<stop stop-color="#6A5ACD"/>
<stop offset="1" stop-color="#A0A5D1"/>
</radialGradient>
<radialGradient id="paint2_radial_160_20801" cx="0" cy="0" r="1" gradientUnits="userSpaceOnUse" gradientTransform="translate(55.5 46.5) rotate(90) scale(13.5 0.5)">
<stop stop-color="#6A5ACD"/>
<stop offset="1" stop-color="#A0A5D1"/>
</radialGradient>
</defs>
</svg>
