<svg width="64" height="64" viewBox="0 0 64 64" fill="none" xmlns="http://www.w3.org/2000/svg">
<g clip-path="url(#clip0_160_20793)">
<path d="M47.3335 35L36.667 50.8181H42L39.3335 64L50 48.1819H44.667L47.3335 35ZM20.667 35L10 50.8181H15.3335L12.667 64L23.3335 48.1819H18L20.667 35Z" fill="url(#paint0_radial_160_20793)"/>
<path d="M58.6442 22.7119V21.3597C58.6442 15.4084 53.8243 10.539 47.9331 10.539C46.8616 10.539 45.5231 10.8095 44.4517 11.0804C41.7741 2.42374 32.6693 -1.90436 24.1004 0.800685C17.406 2.96518 13.1216 8.91594 13.1216 15.9493C5.62354 15.9493 0 21.9005 0 29.4749C0 36.7783 5.3558 42.7295 12.5857 43L23.8327 26.7695L22.2259 43H39.3642L50.6107 26.7695L49.0039 43H53.2889C59.1797 43 64 38.131 64 32.1798C64 28.3927 61.8577 24.6054 58.6442 22.7119ZM29.1885 40.2951L31.8662 29.4749H26.5104L37.222 15.9493L34.5438 26.7695H39.8996L29.1885 40.2951Z" fill="url(#paint1_radial_160_20793)"/>
</g>
<defs>
<radialGradient id="paint0_radial_160_20793" cx="0" cy="0" r="1" gradientUnits="userSpaceOnUse" gradientTransform="translate(30 49.5) rotate(90) scale(14.5 20)">
<stop stop-color="#6A5ACD"/>
<stop offset="1" stop-color="#A0A5D1"/>
</radialGradient>
<radialGradient id="paint1_radial_160_20793" cx="0" cy="0" r="1" gradientUnits="userSpaceOnUse" gradientTransform="translate(32 21.5) rotate(90) scale(21.5 32)">
<stop stop-color="#6A5ACD"/>
<stop offset="1" stop-color="#A0A5D1"/>
</radialGradient>
<clipPath id="clip0_160_20793">
<rect width="64" height="64" fill="white"/>
</clipPath>
</defs>
</svg>
