<svg width="24" height="24" viewBox="0 0 24 24" fill="none" xmlns="http://www.w3.org/2000/svg">
<path d="M20.8862 12.825C22.6032 12.825 24 11.4564 24 9.77402V8.5959C24 8.21497 23.6848 7.90615 23.2961 7.90615C22.0104 7.90528 21.0654 7.78793 20.0355 8.67057L19.787 7.48992L20.2981 7.36493C21.964 6.95757 22.981 5.29823 22.5653 3.66593L22.2741 2.52294C22.18 2.15333 21.7979 1.92866 21.4207 2.02071L20.2542 2.30599C18.6219 2.67022 17.5482 4.42203 17.987 6.00494L18.2746 7.13405C18.7522 9.58761 19.575 11.5571 18.2436 13.9575C17.5746 15.1732 16.4888 16.134 15.1865 16.6628L13.2659 17.4424C12.9997 17.5509 12.7902 17.8421 12.8371 18.1673C13.0044 19.4801 13.0148 20.4653 14.1743 21.3622C14.4974 21.608 14.867 21.7887 15.2617 21.8938C15.6565 21.9988 16.0685 22.0262 16.4741 21.9743L17.6667 21.8246C18.0283 21.7792 18.2904 21.4727 18.281 21.1232C18.2804 21.0997 18.2786 21.0762 18.2755 21.0528C18.1083 19.74 18.0979 18.7548 16.9383 17.858C16.7978 17.7514 16.6483 17.6568 16.4915 17.575C16.8151 17.3989 17.1251 17.1999 17.419 16.9794L18.246 17.479C18.9552 17.9083 19.7963 18.0379 20.5988 17.8505C22.0319 17.5029 22.4582 16.6067 23.1616 15.4803C23.2892 15.2776 23.2968 15.0356 23.2038 14.8338C23.1461 14.7085 23.0514 14.6031 22.9318 14.5311C21.9335 13.9341 21.2178 13.3539 19.9879 13.4733C20.0615 13.2601 20.1251 13.0438 20.1787 12.825H20.8862V12.825ZM11.1672 18.0454C11.1561 17.8116 11.006 17.5491 10.7341 17.4424L8.81355 16.6628C7.51117 16.134 6.42547 15.1732 5.7564 13.9575C4.42437 11.556 5.24877 9.58485 5.72548 7.13405C6.05665 5.85587 6.40557 4.93883 5.66133 3.69536C5.2331 2.99675 4.55286 2.5033 3.74592 2.30594L2.57936 2.02067C2.46569 1.99271 2.34668 1.99312 2.23321 2.02186C1.99143 2.08311 1.79062 2.26879 1.72591 2.52285L1.43476 3.66589C1.01902 5.29814 2.03606 6.95753 3.7019 7.36489L4.21305 7.48987L3.96447 8.67057C3.41526 8.19543 2.6948 7.9062 1.90626 7.9062H0.703935C0.315175 7.9062 0 8.21502 0 8.59594V9.77407C0 11.4564 1.39684 12.8251 3.11379 12.8251H3.82129C3.87851 13.0589 3.94731 13.2899 4.02745 13.5172C2.80964 13.4081 2.09697 13.988 1.10978 14.5773C0.784887 14.7708 0.673009 15.2 0.879965 15.5263L0.8802 15.5267C1.58498 16.655 2.00908 17.5481 3.4428 17.8966C4.24524 18.0841 5.08649 17.9544 5.79564 17.5251L6.63393 17.0187C6.91206 17.2236 7.20429 17.4095 7.50854 17.575C7.35172 17.6568 7.20225 17.7515 7.06173 17.858C5.90249 18.7538 5.89128 19.7425 5.72454 21.0529C5.72147 21.0762 5.71962 21.0997 5.719 21.1233C5.70966 21.4728 5.97181 21.7793 6.3333 21.8247C6.63951 21.8566 7.63826 22.0085 7.92795 21.9996C8.61288 21.9996 9.2749 21.7793 9.82571 21.3622C10.9851 20.4659 10.996 19.4788 11.1629 18.1673C11.1643 18.1365 11.1703 18.1202 11.1672 18.0454Z" fill="#6D6D6D"/>
<path d="M14.7003 14C14.7932 14 14.885 13.9806 14.9691 13.9433C15.0531 13.9061 15.1274 13.8517 15.1865 13.7843C15.2456 13.7168 15.2881 13.6379 15.311 13.5532C15.3339 13.4685 15.3365 13.3801 15.3188 13.2943L14.8383 10.9758C14.825 10.9116 14.8293 10.8452 14.8508 10.783C14.8723 10.7207 14.9104 10.6646 14.9613 10.62L16.7994 9.00988C16.8872 8.93299 16.9498 8.83412 16.9799 8.72491C17.01 8.6157 17.0062 8.50068 16.9692 8.39339C16.9321 8.2861 16.8632 8.19099 16.7706 8.11926C16.678 8.04753 16.5655 8.00215 16.4464 7.98847L13.9528 7.70162C13.8837 7.69368 13.8179 7.66932 13.7615 7.63086C13.7052 7.59239 13.6603 7.54107 13.6309 7.48174L12.5765 5.35325C12.3529 4.88716 11.6556 4.88169 11.428 5.34048L10.3673 7.48174C10.3379 7.54107 10.2929 7.59239 10.2366 7.63086C10.1803 7.66932 10.1145 7.69368 10.0454 7.70162L7.55174 7.98847C7.01891 8.04863 6.80692 8.67706 7.20969 9.01945L9.03686 10.62C9.0878 10.6646 9.12582 10.7207 9.14733 10.783C9.16884 10.8452 9.17314 10.9116 9.15982 10.9758L8.67939 13.2943C8.65649 13.405 8.66767 13.5196 8.71163 13.6245C8.75559 13.7295 8.8305 13.8205 8.92755 13.8868C9.0246 13.9531 9.13976 13.9919 9.25949 13.9988C9.37923 14.0057 9.49857 13.9803 9.60348 13.9256L11.8002 12.7795C11.8611 12.7477 11.9295 12.7311 11.9991 12.7311C12.0688 12.7311 12.1372 12.7477 12.1981 12.7795L14.3948 13.9256C14.4882 13.9744 14.5934 14 14.7003 14Z" fill="#6D6D6D"/>
</svg>
