<svg width="112" height="112" viewBox="0 0 112 112" fill="none" xmlns="http://www.w3.org/2000/svg">
<mask id="mask0_160_20980" style="mask-type:luminance" maskUnits="userSpaceOnUse" x="0" y="0" width="112" height="112">
<path d="M56 112C86.9279 112 112 86.9279 112 56C112 25.072 86.9279 0 56 0C25.0721 0 0 25.072 0 56C0 86.9279 25.0721 112 56 112Z" fill="white"/>
</mask>
<g mask="url(#mask0_160_20980)">
<path d="M106.098 -8.9407e-07C106.098 -0.553814 106.527 -1 107.058 -1C107.572 -1 108 -0.552769 108 -8.9407e-07C108 0.553812 107.571 0.999998 107.058 0.999998C106.527 1.00104 106.098 0.553812 106.098 -8.9407e-07ZM97.6682 -8.9407e-07C97.6682 -0.553814 98.0969 -1 98.6277 -1C99.1595 -1 99.5872 -0.552769 99.5872 -8.9407e-07C99.5872 0.553812 99.1585 0.999998 98.6277 0.999998C98.0959 1.00104 97.6682 0.553812 97.6682 -8.9407e-07ZM89.2374 -8.9407e-07C89.2374 -0.553814 89.6661 -1 90.1969 -1C90.7277 -1 91.1563 -0.552769 91.1563 -8.9407e-07C91.1563 0.553812 90.7277 0.999998 90.1969 0.999998C89.6661 1.00104 89.2374 0.553812 89.2374 -8.9407e-07ZM80.8236 -8.9407e-07C80.8236 -0.553814 81.2522 -1 81.766 -1C82.2968 -1 82.7255 -0.552769 82.7255 -8.9407e-07C82.7255 0.553812 82.2968 0.999998 81.766 0.999998C81.2522 1.00104 80.8236 0.553812 80.8236 -8.9407e-07ZM72.3927 -8.9407e-07C72.3927 -0.553814 72.8214 -1 73.3522 -1C73.884 -1 74.3117 -0.552769 74.3117 -8.9407e-07C74.3117 0.553812 73.883 0.999998 73.3522 0.999998C72.8214 1.00104 72.3927 0.553812 72.3927 -8.9407e-07ZM63.9629 -8.9407e-07C63.9629 -0.553814 64.3915 -1 64.9223 -1C65.4532 -1 65.8818 -0.552769 65.8818 -8.9407e-07C65.8818 0.553812 65.4532 0.999998 64.9223 0.999998C64.3915 1.00104 63.9629 0.553812 63.9629 -8.9407e-07ZM55.5491 -8.9407e-07C55.5491 -0.553814 55.9777 -1 56.5085 -1C57.0233 -1 57.4509 -0.552769 57.4509 -8.9407e-07C57.4509 0.553812 57.0223 0.999998 56.5085 0.999998C55.9777 1.00104 55.5491 0.553812 55.5491 -8.9407e-07ZM47.1182 -8.9407e-07C47.1182 -0.553814 47.5469 -1 48.0777 -1C48.6095 -1 49.0371 -0.552769 49.0371 -8.9407e-07C49.0371 0.553812 48.6085 0.999998 48.0777 0.999998C47.5469 1.00104 47.1182 0.553812 47.1182 -8.9407e-07ZM38.6884 -8.9407e-07C38.6884 -0.553814 39.117 -1 39.6478 -1C40.1786 -1 40.6073 -0.552769 40.6073 -8.9407e-07C40.6073 0.553812 40.1786 0.999998 39.6478 0.999998C39.117 1.00104 38.6884 0.553812 38.6884 -8.9407e-07ZM30.2745 -8.9407e-07C30.2745 -0.553814 30.7032 -1 31.234 -1C31.7488 -1 32.1764 -0.552769 32.1764 -8.9407e-07C32.1764 0.553812 31.7478 0.999998 31.234 0.999998C30.7032 1.00104 30.2745 0.553812 30.2745 -8.9407e-07ZM21.8437 -8.9407e-07C21.8437 -0.553814 22.2723 -1 22.8031 -1C23.3339 -1 23.7626 -0.552769 23.7626 -8.9407e-07C23.7626 0.553812 23.3339 0.999998 22.8031 0.999998C22.2723 1.00104 21.8437 0.553812 21.8437 -8.9407e-07ZM13.4138 -8.9407e-07C13.4138 -0.553814 13.8425 -1 14.3733 -1C14.9041 -1 15.3328 -0.552769 15.3328 -8.9407e-07C15.3328 0.553812 14.9041 0.999998 14.3733 0.999998C13.8425 1.00104 13.4138 0.553812 13.4138 -8.9407e-07ZM5 -8.9407e-07C5 -0.553814 5.41163 -1 5.94244 -1C6.47425 -1 6.9019 -0.552769 6.9019 -8.9407e-07C6.9019 0.553812 6.47325 0.999998 5.94244 0.999998C5.41163 1.00104 5 0.553812 5 -8.9407e-07Z" fill="white"/>
<path d="M105.897 6.99999C105.897 6.45239 106.376 6 106.956 6C107.538 6 108 6.45145 108 6.99999C108 7.54759 107.538 8 106.956 8C106.376 8 105.897 7.54759 105.897 6.99999ZM97.4829 6.99999C97.4829 6.45239 97.9627 6 98.5434 6C99.1241 6 99.6039 6.45145 99.6039 6.99999C99.6039 7.54759 99.1241 8 98.5434 8C97.9617 8 97.4829 7.54759 97.4829 6.99999ZM89.0868 6.99999C89.0868 6.45239 89.5486 6 90.1293 6C90.7101 6 91.1898 6.45145 91.1898 6.99999C91.1898 7.54759 90.7101 8 90.1293 8C89.5486 8 89.0868 7.54759 89.0868 6.99999ZM80.6727 6.99999C80.6727 6.45239 81.1345 6 81.7322 6C82.314 6 82.7757 6.45145 82.7757 6.99999C82.7757 7.54759 82.314 8 81.7322 8C81.1345 8 80.6727 7.54759 80.6727 6.99999ZM72.2586 6.99999C72.2586 6.45239 72.7374 6 73.3192 6C73.9009 6 74.3627 6.45145 74.3627 6.99999C74.3627 7.54759 73.9009 8 73.3192 8C72.7374 8 72.2586 7.54759 72.2586 6.99999ZM63.8446 6.99999C63.8446 6.45239 64.3234 6 64.9051 6C65.4858 6 65.9656 6.45145 65.9656 6.99999C65.9656 7.54759 65.4868 8 64.9051 8C64.3244 8 63.8446 7.54759 63.8446 6.99999ZM55.4485 6.99999C55.4485 6.45239 55.9103 6 56.491 6C57.0897 6 57.5515 6.45145 57.5515 6.99999C57.5515 7.54759 57.0897 8 56.491 8C55.9103 8 55.4485 7.54759 55.4485 6.99999ZM47.0344 6.99999C47.0344 6.45239 47.5132 6 48.0949 6C48.6766 6 49.1554 6.45145 49.1554 6.99999C49.1554 7.54759 48.6766 8 48.0949 8C47.5132 8 47.0344 7.54759 47.0344 6.99999ZM38.6203 6.99999C38.6203 6.45239 39.0991 6 39.6808 6C40.2616 6 40.7413 6.45145 40.7413 6.99999C40.7413 7.54759 40.2626 8 39.6808 8C39.1001 8 38.6203 7.54759 38.6203 6.99999ZM30.2242 6.99999C30.2242 6.45239 30.686 6 31.2668 6C31.8655 6 32.3273 6.45145 32.3273 6.99999C32.3273 7.54759 31.8655 8 31.2668 8C30.686 8 30.2242 7.54759 30.2242 6.99999ZM21.8102 6.99999C21.8102 6.45239 22.2889 6 22.8707 6C23.4514 6 23.9132 6.45145 23.9132 6.99999C23.9132 7.54759 23.4514 8 22.8707 8C22.2889 8 21.8102 7.54759 21.8102 6.99999ZM13.3961 6.99999C13.3961 6.45239 13.8749 6 14.4566 6C15.0373 6 15.5171 6.45145 15.5171 6.99999C15.5171 7.54759 15.0383 8 14.4566 8C13.8759 8 13.3961 7.54759 13.3961 6.99999ZM5 6.99999C5 6.45239 5.46178 6 6.04251 6C6.62424 6 7.10302 6.45145 7.10302 6.99999C7.10302 7.54759 6.62424 8 6.04251 8C5.46178 8 5 7.54759 5 6.99999Z" fill="white"/>
<path d="M104.697 13.9991C104.697 13.4553 105.208 13 105.857 13C106.488 13 107 13.4553 107 13.9991C107 14.5429 106.488 15 105.857 15C105.208 15 104.697 14.5429 104.697 13.9991ZM96.3003 13.9991C96.3003 13.4553 96.829 13 97.4604 13C98.0919 13 98.6216 13.4553 98.6216 13.9991C98.6216 14.5429 98.0919 15 97.4604 15C96.829 15 96.3003 14.5429 96.3003 13.9991ZM87.9199 13.9991C87.9199 13.4553 88.4316 13 89.0631 13C89.7115 13 90.2242 13.4553 90.2242 13.9991C90.2242 14.5429 89.7115 15 89.0631 15C88.4316 15 87.9199 14.5429 87.9199 13.9991ZM79.5225 13.9991C79.5225 13.4553 80.0342 13 80.6826 13C81.3141 13 81.8258 13.4553 81.8258 13.9991C81.8258 14.5429 81.3141 15 80.6826 15C80.0342 15 79.5225 14.5429 79.5225 13.9991ZM71.1261 13.9991C71.1261 13.4553 71.6548 13 72.2863 13C72.9177 13 73.4295 13.4553 73.4295 13.9991C73.4295 14.5429 72.9177 15 72.2863 15C71.6548 15 71.1261 14.5429 71.1261 13.9991ZM62.7277 13.9991C62.7277 13.4553 63.2564 13 63.8889 13C64.5373 13 65.05 13.4553 65.05 13.9991C65.05 14.5429 64.5373 15 63.8889 15C63.2574 15 62.7277 14.5429 62.7277 13.9991ZM54.3483 13.9991C54.3483 13.4553 54.8601 13 55.5085 13C56.1399 13 56.6517 13.4553 56.6517 13.9991C56.6517 14.5429 56.1399 15 55.5085 15C54.8601 15 54.3483 14.5429 54.3483 13.9991ZM45.952 13.9991C45.952 13.4553 46.4637 13 47.1121 13C47.7436 13 48.2553 13.4553 48.2553 13.9991C48.2553 14.5429 47.7436 15 47.1121 15C46.4637 15 45.952 14.5429 45.952 13.9991ZM37.5536 13.9991C37.5536 13.4553 38.0823 13 38.7147 13C39.3631 13 39.8759 13.4553 39.8759 13.9991C39.8759 14.5429 39.3631 15 38.7147 15C38.0833 15 37.5536 14.5429 37.5536 13.9991ZM29.1742 13.9991C29.1742 13.4553 29.6859 13 30.3174 13C30.9658 13 31.4775 13.4553 31.4775 13.9991C31.4775 14.5429 30.9658 15 30.3174 15C29.6859 15 29.1742 14.5429 29.1742 13.9991ZM20.7778 13.9991C20.7778 13.4553 21.2895 13 21.9379 13C22.5694 13 23.0811 13.4553 23.0811 13.9991C23.0811 14.5429 22.5694 15 21.9379 15C21.2895 15 20.7778 14.5429 20.7778 13.9991ZM12.3804 13.9991C12.3804 13.4553 12.9091 13 13.5416 13C14.173 13 14.7027 13.4553 14.7027 13.9991C14.7027 14.5429 14.174 15 13.5416 15C12.9091 15 12.3804 14.5429 12.3804 13.9991ZM4 13.9991C4 13.4553 4.51174 13 5.14319 13C5.7916 13 6.30334 13.4553 6.30334 13.9991C6.30334 14.5429 5.7916 15 5.14319 15C4.51174 15 4 14.5429 4 13.9991Z" fill="white"/>
<path d="M104.496 20.9928C104.496 20.4344 105.059 20 105.757 20C106.439 20 107 20.4344 107 20.9928C107 21.5513 106.439 22 105.757 22C105.058 22 104.496 21.5505 104.496 20.9928ZM96.1155 20.9928C96.1155 20.4344 96.677 20 97.3759 20C98.0748 20 98.6193 20.4344 98.6193 20.9928C98.6193 21.5513 98.0748 22 97.3759 22C96.677 22 96.1155 21.5505 96.1155 20.9928ZM87.7518 20.9928C87.7518 20.4344 88.3143 20 88.9952 20C89.6941 20 90.2556 20.4344 90.2556 20.9928C90.2556 21.5513 89.6931 22 88.9952 22C88.3143 22 87.7518 21.5505 87.7518 20.9928ZM79.3721 20.9928C79.3721 20.4344 79.9346 20 80.6325 20C81.3145 20 81.876 20.4344 81.876 20.9928C81.876 21.5513 81.3145 22 80.6325 22C79.9336 22 79.3721 21.5505 79.3721 20.9928ZM70.9915 20.9928C70.9915 20.4344 71.553 20 72.2518 20C72.9328 20 73.4953 20.4344 73.4953 20.9928C73.4953 21.5513 72.9328 22 72.2518 22C71.553 22 70.9915 21.5505 70.9915 20.9928ZM62.6277 20.9928C62.6277 20.4344 63.1902 20 63.8712 20C64.5701 20 65.1316 20.4344 65.1316 20.9928C65.1316 21.5513 64.5691 22 63.8712 22C63.1902 22 62.6277 21.5505 62.6277 20.9928ZM54.2481 20.9928C54.2481 20.4344 54.8106 20 55.5085 20C56.1904 20 56.7519 20.4344 56.7519 20.9928C56.7519 21.5513 56.1904 22 55.5085 22C54.8096 22 54.2481 21.5505 54.2481 20.9928ZM45.8674 20.9928C45.8674 20.4344 46.4289 20 47.1278 20C47.8088 20 48.3713 20.4344 48.3713 20.9928C48.3713 21.5513 47.8088 22 47.1278 22C46.4289 22 45.8674 21.5505 45.8674 20.9928ZM37.4868 20.9928C37.4868 20.4344 38.0662 20 38.7482 20C39.447 20 40.0085 20.4344 40.0085 20.9928C40.0085 21.5513 39.446 22 38.7482 22C38.0662 22 37.4868 21.5505 37.4868 20.9928ZM29.124 20.9928C29.124 20.4344 29.6865 20 30.3844 20C31.0664 20 31.6279 20.4344 31.6279 20.9928C31.6279 21.5513 31.0664 22 30.3844 22C29.6855 22 29.124 21.5505 29.124 20.9928ZM20.7434 20.9928C20.7434 20.4344 21.3049 20 22.0038 20C22.6847 20 23.2472 20.4344 23.2472 20.9928C23.2472 21.5513 22.6847 22 22.0038 22C21.3049 22 20.7434 21.5505 20.7434 20.9928ZM12.3627 20.9928C12.3627 20.4344 12.9422 20 13.6241 20C14.323 20 14.8845 20.4344 14.8845 20.9928C14.8845 21.5513 14.322 22 13.6241 22C12.9422 22 12.3627 21.5505 12.3627 20.9928ZM4 20.9928C4 20.4344 4.56249 20 5.24346 20C5.94234 20 6.50384 20.4344 6.50384 20.9928C6.50384 21.5513 5.94234 22 5.24346 22C4.5615 22 4 21.5505 4 20.9928Z" fill="white"/>
<path d="M105.271 28.5C105.271 27.6657 105.889 27 106.644 27C107.382 27 108 27.6657 108 28.5C108 29.3354 107.382 30 106.644 30C105.889 30 105.271 29.3354 105.271 28.5ZM96.8259 28.5C96.8259 27.6657 97.4439 27 98.1983 27C98.9538 27 99.5547 27.6657 99.5547 28.5C99.5547 29.3354 98.9538 30 98.1983 30C97.4439 30 96.8259 29.3354 96.8259 28.5ZM88.3977 28.5C88.3977 27.6657 88.9986 27 89.7541 27C90.5095 27 91.1265 27.6657 91.1265 28.5C91.1265 29.3354 90.5085 30 89.7541 30C88.9986 30 88.3977 29.3354 88.3977 28.5ZM79.9534 28.5C79.9534 27.6657 80.5714 27 81.3258 27C82.0642 27 82.6822 27.6657 82.6822 28.5C82.6822 29.3354 82.0642 30 81.3258 30C80.5714 30 79.9534 29.3354 79.9534 28.5ZM71.5081 28.5C71.5081 27.6657 72.1261 27 72.8805 27C73.636 27 74.2369 27.6657 74.2369 28.5C74.2369 29.3354 73.636 30 72.8805 30C72.1261 30 71.5081 29.3354 71.5081 28.5ZM63.0809 28.5C63.0809 27.6657 63.6818 27 64.4373 27C65.1927 27 65.8097 27.6657 65.8097 28.5C65.8097 29.3354 65.1917 30 64.4373 30C63.6818 30 63.0809 29.3354 63.0809 28.5ZM54.6356 28.5C54.6356 27.6657 55.2536 27 55.992 27C56.7474 27 57.3644 27.6657 57.3644 28.5C57.3644 29.3354 56.7464 30 55.992 30C55.2536 30 54.6356 29.3354 54.6356 28.5ZM46.1903 28.5C46.1903 27.6657 46.8083 27 47.5627 27C48.3182 27 48.9191 27.6657 48.9191 28.5C48.9191 29.3354 48.3182 30 47.5627 30C46.8083 30 46.1903 29.3354 46.1903 28.5ZM37.7631 28.5C37.7631 27.6657 38.364 27 39.1195 27C39.8749 27 40.4919 27.6657 40.4919 28.5C40.4919 29.3354 39.8739 30 39.1195 30C38.364 30 37.7631 29.3354 37.7631 28.5ZM29.3178 28.5C29.3178 27.6657 29.9358 27 30.6742 27C31.4296 27 32.0466 27.6657 32.0466 28.5C32.0466 29.3354 31.4286 30 30.6742 30C29.9358 30 29.3178 29.3354 29.3178 28.5ZM20.8725 28.5C20.8725 27.6657 21.4905 27 22.2449 27C23.0004 27 23.6013 27.6657 23.6013 28.5C23.6013 29.3354 23.0004 30 22.2449 30C21.4905 30 20.8725 29.3354 20.8725 28.5ZM12.4443 28.5C12.4443 27.6657 13.0452 27 13.8007 27C14.5561 27 15.157 27.6657 15.157 28.5C15.157 29.3354 14.5561 30 13.8007 30C13.0462 30 12.4443 29.3354 12.4443 28.5ZM4 28.5C4 27.6657 4.60094 27 5.35638 27C6.11182 27 6.72882 27.6657 6.72882 28.5C6.72882 29.3354 6.11082 30 5.35638 30C4.60094 30 4 29.3354 4 28.5Z" fill="white"/>
<path d="M105.071 35.4995C105.071 34.6703 105.739 34 106.544 34C107.35 34 108 34.6703 108 35.4995C108 36.3297 107.349 37 106.544 37C105.74 37.001 105.071 36.3307 105.071 35.4995ZM96.6597 35.4995C96.6597 34.6703 97.3115 34 98.1155 34C98.9215 34 99.5714 34.6703 99.5714 35.4995C99.5714 36.3297 98.9205 37 98.1155 37C97.3115 37.001 96.6597 36.3307 96.6597 35.4995ZM88.2321 35.4995C88.2321 34.6703 88.8829 34 89.6879 34C90.4929 34 91.1438 34.6703 91.1438 35.4995C91.1438 36.3297 90.4929 37 89.6879 37C88.8829 37.001 88.2321 36.3307 88.2321 35.4995ZM79.8035 35.4995C79.8035 34.6703 80.4543 34 81.2593 34C82.0813 34 82.7322 34.6703 82.7322 35.4995C82.7322 36.3297 82.0813 37 81.2593 37C80.4543 37.001 79.8035 36.3307 79.8035 35.4995ZM71.3919 35.4995C71.3919 34.6703 72.0437 34 72.8477 34C73.6537 34 74.3035 34.6703 74.3035 35.4995C74.3035 36.3297 73.6527 37 72.8477 37C72.0437 37.001 71.3919 36.3307 71.3919 35.4995ZM62.9643 35.4995C62.9643 34.6703 63.6151 34 64.4201 34C65.2251 34 65.893 34.6703 65.893 35.4995C65.893 36.3297 65.2251 37 64.4201 37C63.6151 37.001 62.9643 36.3307 62.9643 35.4995ZM54.5357 35.4995C54.5357 34.6703 55.1865 34 55.9915 34C56.7965 34 57.4643 34.6703 57.4643 35.4995C57.4643 36.3297 56.7965 37 55.9915 37C55.1865 37.001 54.5357 36.3307 54.5357 35.4995ZM46.108 35.4995C46.108 34.6703 46.7769 34 47.5809 34C48.3869 34 49.0377 34.6703 49.0377 35.4995C49.0377 36.3297 48.3869 37 47.5809 37C46.7759 37.001 46.108 36.3307 46.108 35.4995ZM37.6964 35.4995C37.6964 34.6703 38.3473 34 39.1523 34C39.9573 34 40.6081 34.6703 40.6081 35.4995C40.6081 36.3297 39.9573 37 39.1523 37C38.3473 37.001 37.6964 36.3307 37.6964 35.4995ZM29.2678 35.4995C29.2678 34.6703 29.9186 34 30.7407 34C31.5457 34 32.1965 34.6703 32.1965 35.4995C32.1965 36.3297 31.5457 37 30.7407 37C29.9186 37.001 29.2678 36.3307 29.2678 35.4995ZM20.8402 35.4995C20.8402 34.6703 21.508 34 22.3131 34C23.1191 34 23.7699 34.6703 23.7699 35.4995C23.7699 36.3297 23.1191 37 22.3131 37C21.508 37.001 20.8402 36.3307 20.8402 35.4995ZM12.4286 35.4995C12.4286 34.6703 13.0794 34 13.8854 34C14.6905 34 15.3413 34.6703 15.3413 35.4995C15.3413 36.3297 14.6905 37 13.8854 37C13.0794 37.001 12.4286 36.3307 12.4286 35.4995ZM4 35.4995C4 34.6703 4.65082 34 5.45583 34C6.27787 34 6.92869 34.6703 6.92869 35.4995C6.92869 36.3297 6.27787 37 5.45583 37C4.65082 37.001 4 36.3307 4 35.4995Z" fill="white"/>
<path d="M104.871 42.5005C104.871 41.6765 105.573 41 106.444 41C107.299 41 108 41.6765 108 42.5005C108 43.3244 107.299 44 106.444 44C105.573 44 104.871 43.3254 104.871 42.5005ZM96.4763 42.5005C96.4763 41.6765 97.1778 41 98.0322 41C98.8866 41 99.5881 41.6765 99.5881 42.5005C99.5881 43.3244 98.8866 44 98.0322 44C97.1778 44 96.4763 43.3254 96.4763 42.5005ZM88.0654 42.5005C88.0654 41.6765 88.7669 41 89.6213 41C90.4926 41 91.1771 41.6765 91.1771 42.5005C91.1771 43.3244 90.4926 44 89.6213 44C88.7669 44 88.0654 43.3254 88.0654 42.5005ZM79.6534 42.5005C79.6534 41.6765 80.3549 41 81.2263 41C82.0807 41 82.7822 41.6765 82.7822 42.5005C82.7822 43.3244 82.0807 44 81.2263 44C80.3549 44 79.6534 43.3254 79.6534 42.5005ZM71.2595 42.5005C71.2595 41.6765 71.944 41 72.8154 41C73.6698 41 74.3712 41.6765 74.3712 42.5005C74.3712 43.3244 73.6698 44 72.8154 44C71.944 44 71.2595 43.3254 71.2595 42.5005ZM62.8476 42.5005C62.8476 41.6765 63.5491 41 64.4034 41C65.2748 41 65.9593 41.6765 65.9593 42.5005C65.9593 43.3244 65.2748 44 64.4034 44C63.5491 44 62.8476 43.3254 62.8476 42.5005ZM54.4356 42.5005C54.4356 41.6765 55.1371 41 56.0085 41C56.8629 41 57.5644 41.6765 57.5644 42.5005C57.5644 43.3244 56.8629 44 56.0085 44C55.1371 44 54.4356 43.3254 54.4356 42.5005ZM46.0417 42.5005C46.0417 41.6765 46.7262 41 47.5976 41C48.4519 41 49.1534 41.6765 49.1534 42.5005C49.1534 43.3244 48.4519 44 47.5976 44C46.7262 44 46.0417 43.3254 46.0417 42.5005ZM37.6297 42.5005C37.6297 41.6765 38.3312 41 39.1856 41C40.04 41 40.7415 41.6765 40.7415 42.5005C40.7415 43.3244 40.04 44 39.1856 44C38.3312 44 37.6297 43.3254 37.6297 42.5005ZM29.2178 42.5005C29.2178 41.6765 29.9193 41 30.7737 41C31.6451 41 32.3466 41.6765 32.3466 42.5005C32.3466 43.3244 31.6451 44 30.7737 44C29.9193 44 29.2178 43.3254 29.2178 42.5005ZM20.8069 42.5005C20.8069 41.6765 21.5084 41 22.3797 41C23.2341 41 23.9356 41.6765 23.9356 42.5005C23.9356 43.3244 23.2341 44 22.3797 44C21.5084 44 20.8069 43.3254 20.8069 42.5005ZM12.4119 42.5005C12.4119 41.6765 13.1134 41 13.9678 41C14.8222 41 15.5237 41.6765 15.5237 42.5005C15.5237 43.3244 14.8222 44 13.9678 44C13.1134 44 12.4119 43.3254 12.4119 42.5005ZM4 42.5005C4 41.6765 4.70149 41 5.55588 41C6.42725 41 7.12874 41.6765 7.12874 42.5005C7.12874 43.3244 6.42725 44 5.55588 44C4.70149 44 4 43.3254 4 42.5005Z" fill="white"/>
<path d="M104.672 49.5009C104.672 48.666 105.423 48 106.344 48C107.249 48 108 48.666 108 49.5009C108 50.3196 107.249 51 106.344 51C105.422 51 104.672 50.3187 104.672 49.5009ZM96.2946 49.5009C96.2946 48.666 97.0276 48 97.9492 48C98.8707 48 99.6047 48.666 99.6047 49.5009C99.6047 50.3196 98.8707 51 97.9492 51C97.0276 51 96.2946 50.3187 96.2946 49.5009ZM87.8983 49.5009C87.8983 48.666 88.6503 48 89.5538 48C90.4753 48 91.2094 48.666 91.2094 49.5009C91.2094 50.3196 90.4753 51 89.5538 51C88.6503 51 87.8983 50.3187 87.8983 49.5009ZM79.5209 49.5009C79.5209 48.666 80.254 48 81.1585 48C82.08 48 82.831 48.666 82.831 49.5009C82.831 50.3196 82.08 51 81.1585 51C80.254 51 79.5209 50.3187 79.5209 49.5009ZM71.1266 49.5009C71.1266 48.666 71.8596 48 72.7812 48C73.6857 48 74.4367 48.666 74.4367 49.5009C74.4367 50.3196 73.6857 51 72.7812 51C71.8596 51 71.1266 50.3187 71.1266 49.5009ZM62.7303 49.5009C62.7303 48.666 63.4823 48 64.3858 48C65.3074 48 66.0414 48.666 66.0414 49.5009C66.0414 50.3196 65.3074 51 64.3858 51C63.4823 51 62.7303 50.3187 62.7303 49.5009ZM54.336 49.5009C54.336 48.666 55.087 48 56.0085 48C56.913 48 57.646 48.666 57.646 49.5009C57.646 50.3196 56.913 51 56.0085 51C55.086 51 54.336 50.3187 54.336 49.5009ZM45.9586 49.5009C45.9586 48.666 46.6917 48 47.6132 48C48.5177 48 49.2687 48.666 49.2687 49.5009C49.2687 50.3196 48.5177 51 47.6132 51C46.6917 51 45.9586 50.3187 45.9586 49.5009ZM37.5623 49.5009C37.5623 48.666 38.2963 48 39.2178 48C40.1394 48 40.8734 48.666 40.8734 49.5009C40.8734 50.3196 40.1394 51 39.2178 51C38.2963 51 37.5623 50.3187 37.5623 49.5009ZM29.168 49.5009C29.168 48.666 29.919 48 30.8235 48C31.745 48 32.496 48.666 32.496 49.5009C32.496 50.3196 31.745 51 30.8235 51C29.918 51 29.168 50.3187 29.168 49.5009ZM20.7906 49.5009C20.7906 48.666 21.5236 48 22.4452 48C23.3497 48 24.1007 48.666 24.1007 49.5009C24.1007 50.3196 23.3497 51 22.4452 51C21.5236 51 20.7906 50.3187 20.7906 49.5009ZM12.3943 49.5009C12.3943 48.666 13.1463 48 14.0498 48C14.9714 48 15.7054 48.666 15.7054 49.5009C15.7054 50.3196 14.9714 51 14.0498 51C13.1463 51 12.3943 50.3187 12.3943 49.5009ZM4 49.5009C4 48.666 4.75097 48 5.65553 48C6.57704 48 7.31006 48.666 7.31006 49.5009C7.31006 50.3196 6.57704 51 5.65553 51C4.74997 51 4 50.3187 4 49.5009Z" fill="white"/>
<path d="M104.491 57.0011C104.491 55.8933 105.274 55 106.245 55C107.199 55 108 55.8933 108 57.0011C108 58.1067 107.2 59 106.245 59C105.274 59 104.491 58.1067 104.491 57.0011ZM96.1116 57.0011C96.1116 55.8933 96.8951 55 97.8657 55C98.8373 55 99.6208 55.8933 99.6208 57.0011C99.6208 58.1067 98.8373 59 97.8657 59C96.8951 59 96.1116 58.1067 96.1116 57.0011ZM87.7314 57.0011C87.7314 55.8933 88.5149 55 89.4855 55C90.4561 55 91.2396 55.8933 91.2396 57.0011C91.2396 58.1067 90.4561 59 89.4855 59C88.5149 59 87.7314 58.1067 87.7314 57.0011ZM79.3681 57.0011C79.3681 55.8933 80.1516 55 81.1053 55C82.0759 55 82.8594 55.8933 82.8594 57.0011C82.8594 58.1067 82.0759 59 81.1053 59C80.1516 59 79.3681 58.1067 79.3681 57.0011ZM70.9889 57.0011C70.9889 55.8933 71.7724 55 72.743 55C73.7146 55 74.4981 55.8933 74.4981 57.0011C74.4981 58.1067 73.7146 59 72.743 59C71.7724 59 70.9889 58.1067 70.9889 57.0011ZM62.6087 57.0011C62.6087 55.8933 63.3922 55 64.3628 55C65.3334 55 66.1169 55.8933 66.1169 57.0011C66.1169 58.1067 65.3334 59 64.3628 59C63.3922 59 62.6087 58.1067 62.6087 57.0011ZM54.2285 57.0011C54.2285 55.8933 55.0299 55 55.9995 55C56.9532 55 57.7367 55.8933 57.7367 57.0011C57.7367 58.1067 56.9532 59 55.9995 59C55.0289 59 54.2285 58.1067 54.2285 57.0011ZM45.8662 57.0011C45.8662 55.8933 46.6497 55 47.6203 55C48.5919 55 49.3754 55.8933 49.3754 57.0011C49.3754 58.1067 48.5919 59 47.6203 59C46.6497 59 45.8662 58.1067 45.8662 57.0011ZM37.486 57.0011C37.486 55.8933 38.2695 55 39.2401 55C40.2107 55 40.9942 55.8933 40.9942 57.0011C40.9942 58.1067 40.2107 59 39.2401 59C38.2695 59 37.486 58.1067 37.486 57.0011ZM29.1227 57.0011C29.1227 55.8933 29.9062 55 30.8768 55C31.8305 55 32.614 55.8933 32.614 57.0011C32.614 58.1067 31.8305 59 30.8768 59C29.9062 59 29.1227 58.1067 29.1227 57.0011ZM20.7435 57.0011C20.7435 55.8933 21.527 55 22.4976 55C23.4692 55 24.2527 55.8933 24.2527 57.0011C24.2527 58.1067 23.4692 59 22.4976 59C21.527 59 20.7435 58.1067 20.7435 57.0011ZM12.3633 57.0011C12.3633 55.8933 13.1468 55 14.1174 55C15.088 55 15.8715 55.8933 15.8715 57.0011C15.8715 58.1067 15.088 59 14.1174 59C13.1468 59 12.3633 58.1067 12.3633 57.0011ZM4 57.0011C4 55.8933 4.78347 55 5.73717 55C6.70779 55 7.49126 55.8933 7.49126 57.0011C7.49126 58.1067 6.70779 59 5.73717 59C4.78347 59 4 58.1067 4 57.0011Z" fill="white"/>
<path d="M105.275 64C105.275 62.8976 106.117 62 107.146 62C108.176 62 109 62.8976 109 64C109 65.1003 108.176 66 107.146 66C106.116 65.9989 105.275 65.0992 105.275 64ZM96.8292 64C96.8292 62.8976 97.67 62 98.7004 62C99.7307 62 100.571 62.8976 100.571 64C100.571 65.1003 99.7307 66 98.7004 66C97.67 65.9989 96.8292 65.0992 96.8292 64ZM88.3847 64C88.3847 62.8976 89.2254 62 90.2558 62C91.2861 62 92.1269 62.8976 92.1269 64C92.1269 65.1003 91.2861 66 90.2558 66C89.2244 65.9989 88.3847 65.0992 88.3847 64ZM79.9561 64C79.9561 62.8976 80.7798 62 81.8272 62C82.8576 62 83.6813 62.8976 83.6813 64C83.6813 65.1003 82.8576 66 81.8272 66C80.7798 65.9989 79.9561 65.0992 79.9561 64ZM71.5105 64C71.5105 62.8976 72.3513 62 73.3816 62C74.412 62 75.2528 62.8976 75.2528 64C75.2528 65.1003 74.412 66 73.3816 66C72.3513 65.9989 71.5105 65.0992 71.5105 64ZM63.0659 64C63.0659 62.8976 63.9067 62 64.9371 62C65.9674 62 66.8082 62.8976 66.8082 64C66.8082 65.1003 65.9674 66 64.9371 66C63.9057 65.9989 63.0659 65.0992 63.0659 64ZM54.6374 64C54.6374 62.8976 55.4611 62 56.5085 62C57.5389 62 58.3626 62.8976 58.3626 64C58.3626 65.1003 57.5389 66 56.5085 66C55.4611 65.9989 54.6374 65.0992 54.6374 64ZM46.1918 64C46.1918 62.8976 47.0326 62 48.0629 62C49.0933 62 49.9341 62.8976 49.9341 64C49.9341 65.1003 49.0933 66 48.0629 66C47.0326 65.9989 46.1918 65.0992 46.1918 64ZM37.7472 64C37.7472 62.8976 38.588 62 39.6184 62C40.6487 62 41.4895 62.8976 41.4895 64C41.4895 65.1003 40.6487 66 39.6184 66C38.587 65.9989 37.7472 65.0992 37.7472 64ZM29.3187 64C29.3187 62.8976 30.1424 62 31.1728 62C32.2192 62 33.0439 62.8976 33.0439 64C33.0439 65.1003 32.2202 66 31.1728 66C30.1424 65.9989 29.3187 65.0992 29.3187 64ZM20.8731 64C20.8731 62.8976 21.7139 62 22.7442 62C23.7746 62 24.5983 62.8976 24.5983 64C24.5983 65.1003 23.7746 66 22.7442 66C21.7139 65.9989 20.8731 65.0992 20.8731 64ZM12.4285 64C12.4285 62.8976 13.2693 62 14.2996 62C15.33 62 16.1708 62.8976 16.1708 64C16.1708 65.1003 15.33 66 14.2996 66C13.2683 65.9989 12.4285 65.0992 12.4285 64ZM4 64C4 62.8976 4.82369 62 5.85406 62C6.90047 62 7.72517 62.8976 7.72517 64C7.72517 65.1003 6.90148 66 5.85406 66C4.82369 65.9989 4 65.0992 4 64Z" fill="white"/>
<path d="M105.077 71.0005C105.077 69.8864 105.951 69 107.046 69C108.127 69 109 69.8864 109 71.0005C109 72.0963 108.127 73 107.046 73C105.951 72.999 105.077 72.0963 105.077 71.0005ZM96.6478 71.0005C96.6478 69.8864 97.5389 69 98.6174 69C99.6968 69 100.587 69.8864 100.587 71.0005C100.587 72.0963 99.6958 73 98.6174 73C97.5389 72.999 96.6478 72.0963 96.6478 71.0005ZM88.2367 71.0005C88.2367 69.8864 89.1109 69 90.1903 69C91.2867 69 92.1599 69.8864 92.1599 71.0005C92.1599 72.0963 91.2867 73 90.1903 73C89.1109 72.999 88.2367 72.0963 88.2367 71.0005ZM79.8076 71.0005C79.8076 69.8864 80.6818 69 81.7612 69C82.8576 69 83.7308 69.8864 83.7308 71.0005C83.7308 72.0963 82.8576 73 81.7612 73C80.6818 72.999 79.8076 72.0963 79.8076 71.0005ZM71.3786 71.0005C71.3786 69.8864 72.2517 69 73.3482 69C74.4276 69 75.3177 69.8864 75.3177 71.0005C75.3177 72.0963 74.4266 73 73.3482 73C72.2517 72.999 71.3786 72.0963 71.3786 71.0005ZM62.9505 71.0005C62.9505 69.8864 63.8417 69 64.9201 69C66.0165 69 66.8897 69.8864 66.8897 71.0005C66.8897 72.0963 66.0165 73 64.9201 73C63.8407 72.999 62.9505 72.0963 62.9505 71.0005ZM54.5384 71.0005C54.5384 69.8864 55.4126 69 56.508 69C57.5874 69 58.4616 69.8864 58.4616 71.0005C58.4616 72.0963 57.5884 73 56.508 73C55.4126 72.999 54.5384 72.0963 54.5384 71.0005ZM46.1093 71.0005C46.1093 69.8864 46.9825 69 48.0789 69C49.1584 69 50.0325 69.8864 50.0325 71.0005C50.0325 72.0963 49.1584 73 48.0789 73C46.9825 72.999 46.1093 72.0963 46.1093 71.0005ZM37.6813 71.0005C37.6813 69.8864 38.5724 69 39.6509 69C40.7303 69 41.6204 69.8864 41.6204 71.0005C41.6204 72.0963 40.7293 73 39.6509 73C38.5714 72.999 37.6813 72.0963 37.6813 71.0005ZM29.2692 71.0005C29.2692 69.8864 30.1434 69 31.2228 69C32.3192 69 33.1924 69.8864 33.1924 71.0005C33.1924 72.0963 32.3192 73 31.2228 73C30.1434 72.999 29.2692 72.0963 29.2692 71.0005ZM20.8401 71.0005C20.8401 69.8864 21.7133 69 22.8097 69C23.8891 69 24.7793 69.8864 24.7793 71.0005C24.7793 72.0963 23.8881 73 22.8097 73C21.7143 72.999 20.8401 72.0963 20.8401 71.0005ZM12.4121 71.0005C12.4121 69.8864 13.3032 69 14.3816 69C15.4781 69 16.3512 69.8864 16.3512 71.0005C16.3512 72.0963 15.4781 73 14.3816 73C13.3032 72.999 12.4121 72.0963 12.4121 71.0005ZM4 71.0005C4 69.8864 4.87415 69 5.95357 69C7.05001 69 7.92316 69.8864 7.92316 71.0005C7.92316 72.0963 7.05001 73 5.95357 73C4.87415 72.999 4 72.0963 4 71.0005Z" fill="white"/>
<path d="M103.88 78C103.88 76.8927 104.803 76 105.948 76C107.078 76 108 76.8927 108 78C108 79.0918 107.077 80 105.948 80C104.803 80 103.88 79.0918 103.88 78ZM95.468 78C95.468 76.8927 96.3914 76 97.5367 76C98.666 76 99.5884 76.8927 99.5884 78C99.5884 79.0918 98.665 80 97.5367 80C96.3914 80 95.468 79.0918 95.468 78ZM87.0723 78C87.0723 76.8927 87.9958 76 89.124 76C90.2693 76 91.1927 76.8927 91.1927 78C91.1927 79.0918 90.2693 80 89.124 80C87.9958 80 87.0723 79.0918 87.0723 78ZM78.6597 78C78.6597 76.8927 79.5831 76 80.7284 76C81.8567 76 82.7801 76.8927 82.7801 78C82.7801 79.0918 81.8567 80 80.7284 80C79.5831 80 78.6597 79.0918 78.6597 78ZM70.2481 78C70.2481 76.8927 71.1715 76 72.3168 76C73.4461 76 74.3685 76.8927 74.3685 78C74.3685 79.0918 73.4451 80 72.3168 80C71.1715 80 70.2481 79.0918 70.2481 78ZM61.8524 78C61.8524 76.8927 62.7759 76 63.9051 76C65.0504 76 65.9738 76.8927 65.9738 78C65.9738 79.0918 65.0504 80 63.9051 80C62.7759 80 61.8524 79.0918 61.8524 78ZM53.4398 78C53.4398 76.8927 54.3632 76 55.5085 76C56.6378 76 57.5602 76.8927 57.5602 78C57.5602 79.0918 56.6368 80 55.5085 80C54.3632 80 53.4398 79.0918 53.4398 78ZM45.0282 78C45.0282 76.8927 45.9516 76 47.0969 76C48.2261 76 49.1496 76.8927 49.1496 78C49.1496 79.0918 48.2261 80 47.0969 80C45.9516 80 45.0282 79.0918 45.0282 78ZM36.6325 78C36.6325 76.8927 37.556 76 38.6852 76C39.8305 76 40.7539 76.8927 40.7539 78C40.7539 79.0918 39.8305 80 38.6852 80C37.556 80 36.6325 79.0918 36.6325 78ZM28.2199 78C28.2199 76.8927 29.1433 76 30.2716 76C31.4169 76 32.3403 76.8927 32.3403 78C32.3403 79.0918 31.4169 80 30.2716 80C29.1433 80 28.2199 79.0918 28.2199 78ZM19.8083 78C19.8083 76.8927 20.7317 76 21.877 76C23.0052 76 23.9296 76.8927 23.9296 78C23.9296 79.0918 23.0062 80 21.877 80C20.7317 80 19.8083 79.0918 19.8083 78ZM11.3956 78C11.3956 76.8927 12.3191 76 13.4643 76C14.6096 76 15.533 76.8927 15.533 78C15.533 79.0918 14.6096 80 13.4643 80C12.3191 80 11.3956 79.0918 11.3956 78ZM3 78C3 76.8927 3.92341 76 5.05169 76C6.19696 76 7.12037 76.8927 7.12037 78C7.12037 79.0918 6.19696 80 5.05169 80C3.92341 80 3 79.0918 3 78Z" fill="white"/>
<path d="M103.682 85.0079C103.682 83.9004 104.656 83 105.85 83C107.027 83 108 83.9004 108 85.0079C108 86.1153 107.027 87 105.85 87C104.656 87 103.682 86.1153 103.682 85.0079ZM95.287 85.0079C95.287 83.9004 96.2605 83 97.4544 83C98.6493 83 99.6048 83.9004 99.6048 85.0079C99.6048 86.1153 98.6493 87 97.4544 87C96.2605 87 95.287 86.1153 95.287 85.0079ZM86.9088 85.0079C86.9088 83.9004 87.8634 83 89.0583 83C90.2531 83 91.2256 83.9004 91.2256 85.0079C91.2256 86.1153 90.2531 87 89.0583 87C87.8634 87 86.9088 86.1153 86.9088 85.0079ZM78.5117 85.0079C78.5117 83.9004 79.4851 83 80.679 83C81.856 83 82.8294 83.9004 82.8294 85.0079C82.8294 86.1153 81.856 87 80.679 87C79.4851 87 78.5117 86.1153 78.5117 85.0079ZM70.1165 85.0079C70.1165 83.9004 71.09 83 72.2839 83C73.4788 83 74.4343 83.9004 74.4343 85.0079C74.4343 86.1153 73.4788 87 72.2839 87C71.09 87 70.1165 86.1153 70.1165 85.0079ZM61.7383 85.0079C61.7383 83.9004 62.6928 83 63.8877 83C65.0826 83 66.0551 83.9004 66.0551 85.0079C66.0551 86.1153 65.0826 87 63.8877 87C62.6928 87 61.7383 86.1153 61.7383 85.0079ZM53.3411 85.0079C53.3411 83.9004 54.3146 83 55.5085 83C56.6854 83 57.6589 83.9004 57.6589 85.0079C57.6589 86.1153 56.6854 87 55.5085 87C54.3146 87 53.3411 86.1153 53.3411 85.0079ZM44.9459 85.0079C44.9459 83.9004 45.9194 83 47.1133 83C48.3082 83 49.2637 83.9004 49.2637 85.0079C49.2637 86.1153 48.3082 87 47.1133 87C45.9194 87 44.9459 86.1153 44.9459 85.0079ZM36.5677 85.0079C36.5677 83.9004 37.5222 83 38.7171 83C39.912 83 40.8845 83.9004 40.8845 85.0079C40.8845 86.1153 39.912 87 38.7171 87C37.5222 87 36.5677 86.1153 36.5677 85.0079ZM28.1706 85.0079C28.1706 83.9004 29.144 83 30.321 83C31.5149 83 32.4883 83.9004 32.4883 85.0079C32.4883 86.1153 31.5149 87 30.321 87C29.144 87 28.1706 86.1153 28.1706 85.0079ZM19.7754 85.0079C19.7754 83.9004 20.7489 83 21.9427 83C23.1376 83 24.0932 83.9004 24.0932 85.0079C24.0932 86.1153 23.1376 87 21.9427 87C20.7489 87 19.7754 86.1153 19.7754 85.0079ZM11.3972 85.0079C11.3972 83.9004 12.3517 83 13.5466 83C14.7415 83 15.7139 83.9004 15.7139 85.0079C15.7139 86.1153 14.7415 87 13.5466 87C12.3517 87 11.3972 86.1153 11.3972 85.0079ZM3 85.0079C3 83.9004 3.97347 83 5.15041 83C6.34431 83 7.31778 83.9004 7.31778 85.0079C7.31778 86.1153 6.34431 87 5.15041 87C3.97347 87 3 86.1153 3 85.0079Z" fill="white"/>
<path d="M103.486 92.5094C103.486 91.1334 104.491 90 105.751 90C106.995 90 108 91.1323 108 92.5094C108 93.8875 106.995 95 105.751 95C104.491 95 103.486 93.8875 103.486 92.5094ZM95.1237 92.5094C95.1237 91.1334 96.1282 90 97.3715 90C98.6148 90 99.6202 91.1323 99.6202 92.5094C99.6202 93.8875 98.6148 95 97.3715 95C96.1282 95 95.1237 93.8875 95.1237 92.5094ZM86.744 92.5094C86.744 91.1334 87.7484 90 88.9917 90C90.235 90 91.2574 91.1323 91.2574 92.5094C91.2574 93.8875 90.235 95 88.9917 95C87.7484 95 86.744 93.8875 86.744 92.5094ZM78.3642 92.5094C78.3642 91.1334 79.3696 90 80.6129 90C81.8732 90 82.8786 91.1323 82.8786 92.5094C82.8786 93.8875 81.8732 95 80.6129 95C79.3696 95 78.3642 93.8875 78.3642 92.5094ZM69.9844 92.5094C69.9844 91.1334 71.0068 90 72.2501 90C73.4934 90 74.4988 91.1323 74.4988 92.5094C74.4988 93.8875 73.4934 95 72.2501 95C71.0068 95 69.9844 93.8875 69.9844 92.5094ZM61.6226 92.5094C61.6226 91.1334 62.627 90 63.8703 90C65.1136 90 66.1181 91.1323 66.1181 92.5094C66.1181 93.8875 65.1136 95 63.8703 95C62.627 95 61.6226 93.8875 61.6226 92.5094ZM53.2428 92.5094C53.2428 91.1334 54.2482 90 55.5085 90C56.7518 90 57.7572 91.1323 57.7572 92.5094C57.7572 93.8875 56.7518 95 55.5085 95C54.2482 95 53.2428 93.8875 53.2428 92.5094ZM44.863 92.5094C44.863 91.1334 45.8854 90 47.1287 90C48.372 90 49.3774 91.1323 49.3774 92.5094C49.3774 93.8875 48.372 95 47.1287 95C45.8854 95 44.863 93.8875 44.863 92.5094ZM36.5012 92.5094C36.5012 91.1334 37.5056 90 38.7489 90C39.9922 90 41.0146 91.1323 41.0146 92.5094C41.0146 93.8875 39.9922 95 38.7489 95C37.5056 95 36.5012 93.8875 36.5012 92.5094ZM28.1214 92.5094C28.1214 91.1334 29.1268 90 30.3701 90C31.6304 90 32.6358 91.1323 32.6358 92.5094C32.6358 93.8875 31.6304 95 30.3701 95C29.1268 95 28.1214 93.8875 28.1214 92.5094ZM19.7416 92.5094C19.7416 91.1334 20.764 90 22.0073 90C23.2506 90 24.256 91.1323 24.256 92.5094C24.256 93.8875 23.2506 95 22.0073 95C20.764 95 19.7416 93.8875 19.7416 92.5094ZM11.3798 92.5094C11.3798 91.1334 12.3842 90 13.6275 90C14.8708 90 15.8753 91.1323 15.8753 92.5094C15.8753 93.8875 14.8708 95 13.6275 95C12.3842 95 11.3798 93.8875 11.3798 92.5094ZM3 92.5094C3 91.1334 4.00541 90 5.26566 90C6.49207 90 7.51441 91.1323 7.51441 92.5094C7.51441 93.8875 6.49207 95 5.26566 95C4.00541 95 3 93.8875 3 92.5094Z" fill="white"/>
<path d="M104.246 99.5C104.246 98.1055 105.309 97 106.631 97C107.936 97 109 98.1055 109 99.5C109 100.877 107.936 102 106.631 102C105.309 102 104.246 100.877 104.246 99.5ZM95.8197 99.5C95.8197 98.1055 96.8839 97 98.1878 97C99.4927 97 100.556 98.1055 100.556 99.5C100.556 100.877 99.4927 102 98.1878 102C96.8839 102 95.8197 100.877 95.8197 99.5ZM87.3765 99.5C87.3765 98.1055 88.4407 97 89.7446 97C91.0655 97 92.1297 98.1055 92.1297 99.5C92.1297 100.877 91.0655 102 89.7446 102C88.4407 102 87.3765 100.877 87.3765 99.5ZM78.9344 99.5C78.9344 98.1055 79.9975 97 81.3195 97C82.6244 97 83.6885 98.1055 83.6885 99.5C83.6885 100.877 82.6244 102 81.3195 102C79.9975 102 78.9344 100.877 78.9344 99.5ZM70.5083 99.5C70.5083 98.1055 71.5724 97 72.8763 97C74.1812 97 75.2444 98.1055 75.2444 99.5C75.2444 100.877 74.1812 102 72.8763 102C71.5724 102 70.5083 100.877 70.5083 99.5ZM62.0651 99.5C62.0651 98.1055 63.1293 97 64.4331 97C65.737 97 66.8182 98.1055 66.8182 99.5C66.8182 100.877 65.737 102 64.4331 102C63.1293 102 62.0651 100.877 62.0651 99.5ZM53.6229 99.5C53.6229 98.1055 54.6861 97 56.008 97C57.3129 97 58.3771 98.1055 58.3771 99.5C58.3771 100.877 57.3129 102 56.008 102C54.6861 102 53.6229 100.877 53.6229 99.5ZM45.1787 99.5C45.1787 98.1055 46.261 97 47.5639 97C48.8687 97 49.9319 98.1055 49.9319 99.5C49.9319 100.877 48.8687 102 47.5639 102C46.261 102 45.1787 100.877 45.1787 99.5ZM36.7536 99.5C36.7536 98.1055 37.8178 97 39.1217 97C40.4256 97 41.4897 98.1055 41.4897 99.5C41.4897 100.877 40.4256 102 39.1217 102C37.8178 102 36.7536 100.877 36.7536 99.5ZM28.3115 99.5C28.3115 98.1055 29.3746 97 30.6795 97C32.0005 97 33.0646 98.1055 33.0646 99.5C33.0646 100.877 32.0005 102 30.6795 102C29.3746 102 28.3115 100.877 28.3115 99.5ZM19.8673 99.5C19.8673 98.1055 20.9315 97 22.2524 97C23.5573 97 24.6205 98.1055 24.6205 99.5C24.6205 100.877 23.5573 102 22.2524 102C20.9315 102 19.8673 100.877 19.8673 99.5ZM11.4422 99.5C11.4422 98.1055 12.5063 97 13.8102 97C15.1141 97 16.1783 98.1055 16.1783 99.5C16.1783 100.877 15.1141 102 13.8102 102C12.5063 102 11.4422 100.877 11.4422 99.5ZM3 99.5C3 98.1055 4.06317 97 5.36806 97C6.689 97 7.75317 98.1055 7.75317 99.5C7.75317 100.877 6.689 102 5.36806 102C4.06317 102 3 100.877 3 99.5Z" fill="white"/>
<path d="M104.051 106.499C104.051 105.111 105.164 104 106.533 104C107.887 104 109 105.11 109 106.499C109 107.872 107.887 109 106.533 109C105.164 109 104.051 107.87 104.051 106.499ZM95.6409 106.499C95.6409 105.111 96.737 104 98.1075 104C99.4609 104 100.574 105.11 100.574 106.499C100.574 107.872 99.4609 109 98.1075 109C96.737 109 95.6409 107.87 95.6409 106.499ZM87.215 106.499C87.215 105.111 88.3282 104 89.6816 104C91.051 104 92.1482 105.11 92.1482 106.499C92.1482 107.872 91.052 109 89.6816 109C88.3272 109 87.215 107.87 87.215 106.499ZM78.7881 106.499C78.7881 105.111 79.9013 104 81.2707 104C82.6241 104 83.7373 105.11 83.7373 106.499C83.7373 107.872 82.6241 109 81.2707 109C79.9013 109 78.7881 107.87 78.7881 106.499ZM70.3782 106.499C70.3782 105.111 71.4744 104 72.8448 104C74.1982 104 75.3114 105.11 75.3114 106.499C75.3114 107.872 74.1982 109 72.8448 109C71.4744 109 70.3782 107.87 70.3782 106.499ZM61.9523 106.499C61.9523 105.111 63.0655 104 64.4189 104C65.7883 104 66.8855 105.11 66.8855 106.499C66.8855 107.872 65.7893 109 64.4189 109C63.0655 109 61.9523 107.87 61.9523 106.499ZM53.5254 106.499C53.5254 105.111 54.6386 104 56.008 104C57.3614 104 58.4746 105.11 58.4746 106.499C58.4746 107.872 57.3614 109 56.008 109C54.6386 109 53.5254 107.87 53.5254 106.499ZM45.1155 106.499C45.1155 105.111 46.2117 104 47.5821 104C48.9355 104 50.0487 105.11 50.0487 106.499C50.0487 107.872 48.9355 109 47.5821 109C46.2117 109 45.1155 107.87 45.1155 106.499ZM36.6896 106.499C36.6896 105.111 37.7858 104 39.1562 104C40.5257 104 41.6228 105.11 41.6228 106.499C41.6228 107.872 40.5267 109 39.1562 109C37.7858 109 36.6896 107.87 36.6896 106.499ZM28.2627 106.499C28.2627 105.111 29.3759 104 30.7453 104C32.0987 104 33.2119 105.11 33.2119 106.499C33.2119 107.872 32.0987 109 30.7453 109C29.3759 109 28.2627 107.87 28.2627 106.499ZM19.8528 106.499C19.8528 105.111 20.949 104 22.3194 104C23.6728 104 24.786 105.11 24.786 106.499C24.786 107.872 23.6728 109 22.3194 109C20.949 109 19.8528 107.87 19.8528 106.499ZM11.4269 106.499C11.4269 105.111 12.5231 104 13.8935 104C15.263 104 16.3601 105.11 16.3601 106.499C16.3601 107.872 15.264 109 13.8935 109C12.5231 109 11.4269 107.87 11.4269 106.499ZM3 106.499C3 105.111 4.11318 104 5.46661 104C6.83605 104 7.94923 105.11 7.94923 106.499C7.94923 107.872 6.83605 109 5.46661 109C4.11318 109 3 107.87 3 106.499Z" fill="white"/>
<path d="M103.856 113.5C103.856 112.117 105.017 111 106.436 111C107.839 111 109 112.117 109 113.5C109 114.883 107.838 116 106.436 116C105.017 116 103.856 114.883 103.856 113.5ZM95.4619 113.5C95.4619 112.117 96.6069 111 98.0256 111C99.4444 111 100.589 112.117 100.589 113.5C100.589 114.883 99.4444 116 98.0256 116C96.6079 116 95.4619 114.883 95.4619 113.5ZM87.0522 113.5C87.0522 112.117 88.1973 111 89.616 111C91.0348 111 92.1797 112.117 92.1797 113.5C92.1797 114.883 91.0348 116 89.616 116C88.1973 116 87.0522 114.883 87.0522 113.5ZM78.6586 113.5C78.6586 112.117 79.8036 111 81.2064 111C82.6251 111 83.7871 112.117 83.7871 113.5C83.7871 114.883 82.6251 116 81.2064 116C79.8036 116 78.6586 114.883 78.6586 113.5ZM70.248 113.5C70.248 112.117 71.393 111 72.8118 111C74.2305 111 75.3755 112.117 75.3755 113.5C75.3755 114.883 74.2305 116 72.8118 116C71.394 116 70.248 114.883 70.248 113.5ZM61.8384 113.5C61.8384 112.117 62.9834 111 64.4021 111C65.8209 111 66.9659 112.117 66.9659 113.5C66.9659 114.883 65.8209 116 64.4021 116C62.9834 116 61.8384 114.883 61.8384 113.5ZM53.4278 113.5C53.4278 112.117 54.5897 111 56.0085 111C57.4113 111 58.5563 112.117 58.5563 113.5C58.5563 114.883 57.4113 116 56.0085 116C54.5897 116 53.4278 114.883 53.4278 113.5ZM45.0341 113.5C45.0341 112.117 46.1791 111 47.5979 111C49.0166 111 50.1616 112.117 50.1616 113.5C50.1616 114.883 49.0166 116 47.5979 116C46.1801 116 45.0341 114.883 45.0341 113.5ZM36.6245 113.5C36.6245 112.117 37.7695 111 39.1883 111C40.607 111 41.752 112.117 41.752 113.5C41.752 114.883 40.607 116 39.1883 116C37.7695 116 36.6245 114.883 36.6245 113.5ZM28.2139 113.5C28.2139 112.117 29.3759 111 30.7776 111C32.1964 111 33.3584 112.117 33.3584 113.5C33.3584 114.883 32.1964 116 30.7776 116C29.3759 116 28.2139 114.883 28.2139 113.5ZM19.8202 113.5C19.8202 112.117 20.9652 111 22.384 111C23.7858 111 24.9477 112.117 24.9477 113.5C24.9477 114.883 23.7858 116 22.384 116C20.9662 116 19.8202 114.883 19.8202 113.5ZM11.4106 113.5C11.4106 112.117 12.5556 111 13.9744 111C15.3931 111 16.5381 112.117 16.5381 113.5C16.5381 114.883 15.3931 116 13.9744 116C12.5556 116 11.4106 114.883 11.4106 113.5ZM3 113.5C3 112.117 4.16198 111 5.56375 111C6.98251 111 8.1275 112.117 8.1275 113.5C8.1275 114.883 6.98251 116 5.56375 116C4.16198 116 3 114.883 3 113.5Z" fill="white"/>
</g>
</svg>
