<svg width="239" height="228" viewBox="0 0 239 228" fill="none" xmlns="http://www.w3.org/2000/svg">
<path d="M96 2L236 -19" stroke="white" stroke-miterlimit="10"/>
<path d="M97 11L238 6" stroke="white" stroke-miterlimit="10"/>
<path d="M97 19L238 31" stroke="white" stroke-miterlimit="10"/>
<path d="M95 28L233 57" stroke="white" stroke-miterlimit="10"/>
<path d="M93 36L227 81" stroke="white" stroke-miterlimit="10"/>
<path d="M90 44L218 104" stroke="white" stroke-miterlimit="10"/>
<path d="M86 52L206 127" stroke="white" stroke-miterlimit="10"/>
<path d="M81 59L191 147" stroke="white" stroke-miterlimit="10"/>
<path d="M75 65L174 166" stroke="white" stroke-miterlimit="10"/>
<path d="M69 71L155 183" stroke="white" stroke-miterlimit="10"/>
<path d="M61 76L134 197" stroke="white" stroke-miterlimit="10"/>
<path d="M54 80L112 209" stroke="white" stroke-miterlimit="10"/>
<path d="M46 83L88 218" stroke="white" stroke-miterlimit="10"/>
<path d="M37 85L63 224" stroke="white" stroke-miterlimit="10"/>
<path d="M29 86L38 227" stroke="white" stroke-miterlimit="10"/>
<path d="M20 86L13 227" stroke="white" stroke-miterlimit="10"/>
<path d="M12 85L-12 224" stroke="white" stroke-miterlimit="10"/>
<path d="M3 83L-37 218" stroke="white" stroke-miterlimit="10"/>
</svg>
