<svg width="88" height="88" viewBox="0 0 88 88" fill="none" xmlns="http://www.w3.org/2000/svg">
<circle cx="44" cy="44" r="44" fill="black"/>
<g clip-path="url(#clip0_160_20362)">
<path d="M67.8781 34.1122C67.7655 31.5617 67.3531 29.8084 66.762 28.289C66.1524 26.6762 65.2145 25.2324 63.9859 24.0321C62.7853 22.8131 61.3316 21.8658 59.7372 21.2659C58.2089 20.6751 56.4643 20.2626 53.9134 20.1502C51.3433 20.0281 50.5275 20 44.0093 20C37.4912 20 36.6753 20.0281 34.1149 20.1407C31.564 20.2532 29.8103 20.6659 28.291 21.2563C26.6775 21.8658 25.2334 22.8035 24.0328 24.0321C22.8136 25.2323 21.8666 26.6857 21.2661 28.2798C20.6753 29.8084 20.2627 31.5523 20.1502 34.1026C20.0282 36.6722 20 37.4879 20 44.0048C20 50.5217 20.0282 51.3375 20.1407 53.8974C20.2532 56.4479 20.6661 58.2012 21.257 59.7206C21.8666 61.3333 22.8136 62.7772 24.0328 63.9775C25.2334 65.1965 26.6871 66.1438 28.2814 66.7437C29.8102 67.3344 31.5544 67.747 34.1058 67.8593C36.6658 67.9722 37.4821 68 44.0002 68C50.5184 68 51.3342 67.9722 53.8947 67.8593C56.4456 67.7469 58.1993 67.3345 59.7186 66.7437C61.3142 66.1269 62.7633 65.1835 63.9731 63.9741C65.1828 62.7647 66.1264 61.3159 66.7435 59.7206C67.3339 58.1921 67.7469 56.4478 67.8593 53.8974C67.9719 51.3375 68 50.5217 68 44.0048C68 37.4879 67.9904 36.6721 67.8781 34.1122ZM63.5547 53.7098C63.4514 56.0541 63.0575 57.3199 62.7293 58.1639C61.9225 60.2549 60.2626 61.9146 58.1711 62.7212C57.327 63.0494 56.0518 63.4431 53.7162 63.546C51.184 63.6589 50.4246 63.6866 44.0189 63.6866C37.6132 63.6866 36.8442 63.6589 34.3211 63.546C31.9764 63.4431 30.7103 63.0494 29.8662 62.7212C28.8255 62.3366 27.8782 61.7271 27.1091 60.93C26.3119 60.1517 25.7023 59.2141 25.3176 58.1734C24.9893 57.3295 24.5955 56.0541 24.4927 53.7194C24.3797 51.1876 24.352 50.4279 24.352 44.0234C24.352 37.6189 24.3797 36.8501 24.4927 34.3279C24.5955 31.9837 24.9893 30.7179 25.3176 29.8739C25.7023 28.8329 26.3119 27.8859 27.1187 27.1169C27.8967 26.3198 28.8346 25.7103 29.8758 25.3262C30.7199 24.998 31.9956 24.6041 34.3307 24.5009C36.8629 24.3884 37.6228 24.3602 44.028 24.3602C50.4433 24.3602 51.2027 24.3884 53.7258 24.5009C56.0705 24.6042 57.3366 24.9979 58.1807 25.3261C59.2214 25.7103 60.1688 26.3198 60.9378 27.1169C61.735 27.8952 62.3446 28.8329 62.7293 29.8739C63.0575 30.7179 63.4514 31.9928 63.5546 34.3279C63.6672 36.8597 63.6953 37.6189 63.6953 44.0234C63.6953 50.4279 63.6673 51.1781 63.5547 53.7098Z" fill="white"/>
<path d="M44.3184 31.3628C37.5177 31.3628 32 36.8802 32 43.6814C32 50.4826 37.5177 56 44.3184 56C51.1193 56 56.6368 50.4826 56.6368 43.6814C56.6368 36.8802 51.1193 31.3628 44.3184 31.3628ZM44.3184 51.6721C39.9065 51.6721 36.3277 48.0938 36.3277 43.6814C36.3277 39.269 39.9065 35.6907 44.3183 35.6907C48.7307 35.6907 52.309 39.269 52.309 43.6814C52.309 48.0938 48.7306 51.6721 44.3184 51.6721ZM60 30.8757C60 32.4639 58.7122 33.7516 57.1238 33.7516C55.5357 33.7516 54.248 32.4639 54.248 30.8757C54.248 29.2873 55.5357 28 57.1239 28C58.7122 28 60 29.2872 60 30.8757Z" fill="white"/>
</g>
<defs>
<clipPath id="clip0_160_20362">
<rect width="48" height="48" fill="white" transform="translate(20 20)"/>
</clipPath>
</defs>
</svg>
