<svg width="220" height="45" viewBox="0 0 220 45" fill="none" xmlns="http://www.w3.org/2000/svg">
<g clip-path="url(#clip0_160_21122)">
<path d="M19.8727 21.4588C19.8727 23.3441 20.4451 25.0556 21.4236 26.1513C21.9924 26.7888 22.7971 27.3106 23.7162 27.3106C24.5832 27.3106 25.1197 26.7465 25.1197 26.2242C25.1197 25.8489 24.9591 25.5504 24.6789 25.4033C24.4871 25.7441 24.1531 25.9658 23.7162 25.9658C23.1617 25.9658 22.8635 25.636 22.8682 25.2323C22.8769 24.5028 23.6915 23.9847 24.4128 23.9847C25.4453 23.9847 26.5601 24.8407 26.5601 26.2242C26.5601 27.5645 25.2843 28.6554 23.7162 28.6554C20.754 28.6554 18.4335 25.4952 18.4326 21.461C17.9492 21.575 17.4724 21.7117 17 21.8619C17.1605 26.4567 20.0521 30 23.7162 30C26.0785 30 28 28.3057 28 26.2242C28 24.01 26.1379 22.6398 24.4128 22.6398C23.3212 22.6398 22.3197 23.1766 21.7831 24.0444C21.5037 23.3582 21.3129 22.4914 21.3129 21.4588C21.3129 21.3046 21.3218 21.1518 21.3349 21C20.8491 21.0417 20.3658 21.1037 19.8847 21.18C19.8807 21.2729 19.8727 21.3651 19.8727 21.4588Z" fill="white"/>
<path d="M30.5797 20.4086C30.5797 25.7484 28.1296 30.7818 24 34.2186C24.3896 34.4978 24.799 34.7542 25.2153 35C29.4697 31.3086 32 26.0237 32 20.4086C32 18.7162 31.7645 17.0544 31.3253 15.455C30.8322 15.2527 30.2938 15.0941 29.7099 15C30.2739 16.7302 30.5797 18.5495 30.5797 20.4086Z" fill="white"/>
<path d="M9.87953 20.4814C9.51254 21.2851 9.21641 22.127 9 23C10.0528 22.0566 11.2018 21.2089 12.4518 20.4889C17.5612 17.5485 23.8039 16.956 29.3936 18.6313C29.355 18.1196 29.2948 17.614 29.21 17.1115C24.8385 15.9308 20.1366 16.0268 15.8324 17.4372C16.4928 12.5459 19.0963 8.06552 23.1274 5.07048C24.4085 6.02254 25.5273 7.13774 26.5034 8.35605C26.5902 8.46463 27.1348 9.16271 27.7687 10.0428C28.0297 10.0256 28.2916 10.0138 28.5556 10.0138C28.8128 10.0138 29.0677 10.025 29.3216 10.0414C29.0907 9.59373 28.6913 8.93629 28.563 8.74752C27.2258 6.77547 25.5451 5.02083 23.5382 3.61238L23.1274 3.32403L22.7181 3.61238C17.9206 6.9787 14.8989 12.2565 14.3459 17.9902C13.8346 18.1994 13.3289 18.4235 12.8331 18.6718C13.2356 11.7033 17.0905 5.29254 23.1274 1.64742C26.5609 3.72068 29.2822 6.69253 31.0718 10.1478C31.1005 10.2034 31.1254 10.2547 31.15 10.306C31.782 10.4498 32.3997 10.6459 33 10.8947C31.0819 6.48139 27.7882 2.69115 23.4853 0.206236L23.1274 0L22.771 0.206236C15.8538 4.2019 11.5157 11.5587 11.3727 19.4803C10.858 19.7932 10.3613 20.1284 9.87953 20.4814Z" fill="white"/>
<path d="M8.04698 27C9.48208 25.2655 11.2587 23.7782 13.3286 22.6514C14.3405 22.1005 15.4067 21.6553 16.5046 21.303C16.9751 21.1521 17.45 21.0147 17.9314 20.9001C18.409 20.7864 18.892 20.6954 19.3775 20.6176C19.8567 20.5408 20.338 20.4785 20.8218 20.4366C23.5387 20.2014 26.3109 20.5126 28.8962 21.3748C28.951 20.9053 28.9915 20.4349 29 19.9598C23.6261 18.2899 17.5356 18.8005 12.6111 21.4804C10.8933 22.4158 9.36641 23.5848 8.0458 24.9249C8.01838 25.2644 8 25.6062 8 25.9524C8 26.3054 8.01904 26.6538 8.04698 27Z" fill="white"/>
<path d="M22.6943 39.287C23.2771 39.6048 23.8735 39.894 24.4799 40.1569C25.3474 40.0332 26.1896 39.8314 27 39.5581C25.788 39.1821 24.6072 38.6972 23.4774 38.0957C23.2519 37.975 23.0296 37.851 22.809 37.7218C21.7692 37.1108 20.7876 36.3992 19.8734 35.6101C16.3866 32.5967 13.8686 28.4518 12.848 24C12.4276 24.2927 12.0237 24.6038 11.635 24.9322C12.764 29.3212 15.1746 33.2867 18.5532 36.3022C16.3604 37.2249 14.0154 37.732 11.6405 37.732H11.6392C9.15258 37.732 6.64181 37.2039 4.34488 36.2037C4.48987 34.9534 4.77174 33.7394 5.16008 32.5677C4.88962 31.8665 4.65912 31.1457 4.47267 30.4071C3.6364 32.3433 3.08534 34.4185 2.8929 36.5789L2.84882 37.0777L3.29676 37.2883C5.8999 38.5088 8.78468 39.1545 11.6405 39.1545C14.4494 39.1545 17.2301 38.526 19.7857 37.3412C20.2048 37.6727 20.6336 37.9895 21.0736 38.2904C14.944 41.3914 7.41397 41.2556 1.41223 37.9165C1.48415 34.4144 2.4166 31.0409 4.03793 28.058C3.94861 27.3159 3.90043 26.5612 3.90043 25.7949C3.90043 25.711 3.90307 25.6277 3.90412 25.544C1.41508 29.2592 0.00685395 33.7009 0 38.3291V38.7411L0.353136 38.9467C3.78592 40.9438 7.68845 42 11.6392 42C11.6405 42 11.6405 42 11.6405 42C15.4187 42 19.1534 41.0186 22.4737 39.1622C22.5474 39.2034 22.62 39.2466 22.6943 39.287Z" fill="white"/>
<path d="M33.7895 17.3029C34.073 17.6365 34.3417 17.9899 34.5896 18.3648C35.4339 18.8624 36.2378 19.4091 37 20C36.3223 18.3666 35.359 16.8745 34.1857 15.7191C32.9255 14.4784 30.7934 13 27.7912 13C25.5756 13 23.5269 13.8321 22 15.1683C22.1463 15.1657 22.2924 15.1611 22.439 15.1611C23.0487 15.1611 23.6568 15.1864 24.263 15.2307C25.3087 14.668 26.517 14.3422 27.7912 14.3422C28.193 14.3422 28.5752 14.3772 28.9408 14.4352C29.5101 14.5256 30.0349 14.6781 30.5157 14.8726C31.1341 15.123 31.6794 15.4396 32.15 15.7776C32.5537 16.0676 32.9048 16.3716 33.1987 16.6609C33.4039 16.8629 33.5995 17.079 33.7895 17.3029Z" fill="white"/>
<path d="M28.5763 10.0272C28.3261 10.011 28.0749 10 27.8214 10C27.5613 10 27.3032 10.0116 27.046 10.0286C24.2963 10.2085 21.7295 11.3412 19.7507 13.2691C19.0689 13.9334 18.4838 14.6761 18 15.4708C18.6261 15.3549 19.2586 15.2636 19.8963 15.1979C20.1531 14.8749 20.432 14.5662 20.7317 14.2742C22.6317 12.423 25.1494 11.4037 27.8214 11.4037C30.6172 11.4037 33.2068 12.5321 35.31 14.6664C37.1996 16.5844 38.58 19.2084 39.2422 21.9985C39.8669 22.6329 40.4527 23.302 41 24C40.6083 20.1296 38.8963 16.305 36.311 13.6816C35.0784 12.4306 33.6932 11.4888 32.2012 10.8698C31.6096 10.6241 31.0009 10.4305 30.3781 10.2885C29.7893 10.1544 29.1881 10.0665 28.5763 10.0272Z" fill="white"/>
<path d="M44.9987 38.307C44.9879 30.2867 40.8363 22.8165 34.1403 18.7014C34.1252 18.0042 34.0748 17.3124 33.9942 16.6265C33.8016 16.3878 33.6033 16.1573 33.3952 15.9419C33.0972 15.6334 32.7413 15.3093 32.332 15C32.599 16.3424 32.7459 17.7169 32.7459 19.1132C32.7459 25.1093 30.2298 30.7749 26 34.7942C26.4593 35.0159 26.9255 35.2191 27.4041 35.398C30.5927 32.1955 32.8011 28.092 33.6997 23.6237C36.025 25.461 37.8729 27.8367 39.0981 30.5343C39.1848 30.7266 39.2675 30.9205 39.3476 31.1161C40.0082 32.7113 40.4588 34.4082 40.6617 36.1688C39.5375 36.6621 38.3673 37.0201 37.1739 37.2617C36.7218 37.8579 36.2357 38.4262 35.7184 38.9627C37.7842 38.7146 39.8213 38.152 41.7079 37.2599L42.1563 37.0481L42.1124 36.5462C41.5945 30.6884 38.5743 25.4122 33.9546 22.0426C34.0255 21.4937 34.081 20.9418 34.112 20.3851C39.8636 24.245 43.445 30.8139 43.5903 37.8919C40.6679 39.5313 37.3825 40.3798 34.0729 40.4763C33.4176 41.0111 32.7281 41.5036 32.0046 41.9447C32.4624 41.978 32.921 42 33.3807 42C37.3254 42 41.221 40.9375 44.6476 38.9284L45 38.7215L44.9987 38.307Z" fill="white"/>
<path d="M24.2287 35.6138C23.6204 35.2638 23.0313 34.857 22.4673 34.4397C18.6789 31.6391 16.1602 27.5279 15.3295 23C14.8766 23.1974 14.432 23.4121 14 23.652C14.9711 28.3613 17.6573 32.6096 21.581 35.5638C22.1901 36.0149 22.8597 36.4596 23.5173 36.8371C25.2768 37.8445 27.1761 38.5673 29.1398 39C29.7903 38.6637 30.412 38.2803 31 37.8537C28.6285 37.5487 26.3151 36.8091 24.2287 35.6138Z" fill="white"/>
<path d="M4.13029 28.3484C4.22133 29.1534 4.35929 29.943 4.54223 30.7136C4.7189 31.4573 4.93731 32.183 5.19357 32.889C5.82044 34.6153 6.67472 36.2204 7.7181 37.6611C8.39035 37.8155 9.06916 37.9316 9.75138 38C7.02241 34.8721 5.33295 30.6861 5.33295 26.0698C5.33295 21.1954 7.22025 16.806 10.2249 13.6332C10.4359 12.7378 10.6963 11.8597 11 11C6.8132 14.4084 4.07794 19.7688 4.0035 25.8172C4.00251 25.9014 4 25.9853 4 26.0698C4 26.8414 4.04566 27.6012 4.13029 28.3484Z" fill="white"/>
<path d="M9.87721 19.885C9.88169 18.9141 9.94452 17.9508 10.065 17C8.14898 19.6092 7 22.8559 7 26.3844C7 31.0127 8.97564 35.1507 12.0726 38C12.7194 37.9829 13.3615 37.9261 14 37.8306C10.8441 35.4547 8.69062 31.7278 8.37758 27.4596C8.3516 27.1043 8.33388 26.7466 8.33388 26.3844C8.33388 26.0289 8.35098 25.6781 8.37648 25.3297C8.4334 24.5483 8.55011 23.7843 8.72633 23.0441C8.92884 22.1921 9.20596 21.3703 9.54938 20.5858C9.65309 20.3489 9.76169 20.1149 9.87721 19.885Z" fill="white"/>
<path d="M35.8579 39.4314C36.3784 38.9012 36.8675 38.3397 37.3225 37.7506C38.4327 36.3137 39.3401 34.7109 40 32.9863C39.8517 32.5433 39.6879 32.1075 39.5096 31.678C39.429 31.4847 39.3458 31.2932 39.2585 31.1032C39.2428 31.0689 39.2281 31.0341 39.2121 31C37.1701 38.2517 30.5123 43.5856 22.6246 43.5856C20.8794 43.5856 19.2074 43.2957 17.6201 42.8096C16.7572 43.0325 15.883 43.2075 15 43.3312C17.3289 44.3912 19.9026 45 22.6246 45C26.0967 45 29.343 44.0424 32.1211 42.378C32.8491 41.9421 33.5428 41.4554 34.2022 40.927C34.7832 40.4612 35.3368 39.9626 35.8579 39.4314Z" fill="white"/>
<path d="M22.6687 40.5474C21.8037 41.0185 20.913 41.4345 20 41.7918C20.7844 41.9169 21.5818 42 22.3999 42C30.1918 42 36.6683 36.262 38 28.7351C37.6311 28.1326 37.225 27.5558 36.7915 27C36.4631 31.4049 34.2151 35.2704 30.8961 37.7338C30.3106 38.1682 29.6916 38.5587 29.0438 38.9012C28.3776 39.2537 27.6804 39.5528 26.9584 39.7976C26.1423 40.0738 25.2943 40.2778 24.4207 40.4029C23.8466 40.4846 23.2626 40.5364 22.6687 40.5474Z" fill="white"/>
<path d="M59.2119 22.5922C59.6313 22.5922 60.0339 22.5558 60.4199 22.4828C60.8056 22.4099 61.1412 22.2845 61.4268 22.1058C61.7118 21.9277 61.9383 21.6886 62.106 21.3884C62.2736 21.0885 62.3576 20.7035 62.3576 20.2331C62.3576 19.7631 62.2698 19.3699 62.0934 19.0537C61.9175 18.7374 61.6866 18.482 61.4013 18.2875C61.116 18.0929 60.7848 17.9512 60.4073 17.8621C60.0298 17.7728 59.6313 17.7284 59.2119 17.7284H55.4371V22.5922H59.2119ZM58.7086 15.3204C59.1279 15.3204 59.5268 15.2755 59.9042 15.1861C60.2815 15.0962 60.6127 14.9537 60.898 14.7584C61.1833 14.563 61.4142 14.3026 61.5903 13.9764C61.7665 13.6505 61.8543 13.2513 61.8543 12.7787C61.8543 12.3227 61.7703 11.9438 61.6026 11.642C61.435 11.3406 61.2085 11.0963 60.9235 10.9092C60.6379 10.7218 60.3025 10.5914 59.9166 10.5179C59.5306 10.4447 59.1279 10.4077 58.7086 10.4077H55.4371V15.3204H58.7086ZM52.7947 25V10.4077C52.0231 10.4077 51.3685 10.477 50.8321 10.6147C50.2948 10.7524 49.8632 10.9348 49.5358 11.1616C49.2089 11.389 48.9736 11.6565 48.8314 11.9642C48.6886 12.2724 48.6175 12.605 48.6175 12.9613C48.6175 13.5778 48.8268 14.1047 49.2466 14.5422C49.6657 14.9799 50.3288 15.1988 51.2344 15.1988V17.6068C50.3452 17.6068 49.5694 17.4852 48.9066 17.2417C48.2438 16.9985 47.6987 16.6622 47.2711 16.2327C46.843 15.8031 46.5241 15.3082 46.3148 14.7489C46.1048 14.1895 46 13.5937 46 12.9613C46 12.2481 46.1258 11.5872 46.3775 10.9792C46.6291 10.3715 47.0277 9.84834 47.5728 9.41057C48.118 8.97281 48.8185 8.62863 49.6744 8.37723C50.5301 8.12609 51.5701 8 52.7947 8H58.7086C59.4803 8 60.2188 8.09728 60.9235 8.29184C61.6278 8.48667 62.2444 8.77825 62.7731 9.16737C63.3013 9.55676 63.7207 10.0471 64.0311 10.6387C64.3416 11.2306 64.497 11.924 64.497 12.7184C64.497 13.6423 64.2913 14.4044 63.8804 15.0042C63.469 15.6043 62.9197 16.0743 62.2318 16.4148C63.0707 16.7223 63.742 17.1954 64.2453 17.8338C64.7483 18.4723 65 19.301 65 20.3195C65 21.1282 64.8449 21.8232 64.5344 22.4052C64.224 22.9874 63.8046 23.4722 63.2764 23.8602C62.748 24.2483 62.1314 24.5353 61.4268 24.7209C60.7221 24.9073 59.9836 25 59.2119 25H52.7947Z" fill="white"/>
<path d="M74.3091 16.7671C74.7214 16.7671 75.1135 16.7148 75.4846 16.6092C75.8555 16.5042 76.1855 16.3302 76.474 16.0874C76.7626 15.8445 76.9893 15.5206 77.1547 15.1157C77.3193 14.7113 77.4018 14.2092 77.4018 13.61C77.4018 13.0113 77.3193 12.505 77.1547 12.0921C76.9893 11.6793 76.7626 11.3477 76.474 11.0964C76.1855 10.8456 75.8555 10.6677 75.4846 10.5621C75.1135 10.4573 74.7214 10.4043 74.3091 10.4043H70.5981V16.7671H74.3091ZM68 25V8H74.3091C75.0678 8 75.7936 8.10928 76.4864 8.32785C77.1792 8.54642 77.7853 8.88642 78.3049 9.34785C78.8245 9.80928 79.2368 10.3921 79.542 11.0964C79.847 11.8007 80 12.6386 80 13.61C80 14.5814 79.8513 15.4193 79.5544 16.1235C79.2575 16.8278 78.8492 17.4028 78.3299 17.8481C77.8101 18.2934 77.208 18.625 76.5238 18.8435C75.8391 19.0621 75.1011 19.1715 74.3091 19.1715H70.5981V25H68Z" fill="white"/>
<path d="M89.5413 16.0628L88.7339 13.8043L88 11.4728C87.8692 11.8614 87.7431 12.25 87.6208 12.6385C87.4985 13.0271 87.3719 13.4157 87.2413 13.8043L86.434 16.0628L85.1373 19.1957H90.8379L89.5413 16.0628ZM93.2597 25L91.8407 21.6H84.1346L82.7156 25H80C81.1905 22.1506 82.3771 19.317 83.5596 16.5C84.7419 13.6828 85.9364 10.8499 87.1435 8H88.8563C90.0465 10.8499 91.2331 13.6828 92.4159 16.5C93.5982 19.317 94.7927 22.1506 96 25H93.2597Z" fill="white"/>
<path d="M100.702 25V10.4043H96V8H108V10.4043H103.273V25H100.702Z" fill="white"/>
<path d="M116.542 16.0628L115.734 13.8043L115 11.4728C114.87 11.8614 114.744 12.25 114.621 12.6385C114.499 13.0271 114.373 13.4157 114.242 13.8043L113.435 16.0628L112.138 19.1957H117.838L116.542 16.0628ZM120.26 25L118.841 21.6H111.135L109.715 25H107C108.19 22.1506 109.377 19.317 110.56 16.5C111.742 13.6828 112.937 10.8499 114.144 8H115.857C117.047 10.8499 118.234 13.6828 119.416 16.5C120.599 19.317 121.793 22.1506 123 25H120.26Z" fill="white"/>
<path d="M152.319 25V13.4885L147.34 20.6287H145.553L140.574 13.4885V25H137.894V10.4043C137.11 10.4043 136.447 10.4734 135.902 10.611C135.357 10.7485 134.919 10.9306 134.587 11.1571C134.256 11.3841 134.017 11.6513 133.872 11.9586C133.727 12.2663 133.655 12.5984 133.655 12.9543C133.655 13.5698 133.868 14.096 134.294 14.5328C134.719 14.97 135.391 15.1885 136.311 15.1885V17.5931C135.408 17.5931 134.621 17.4716 133.949 17.2285C133.276 16.9857 132.723 16.6499 132.29 16.2209C131.855 15.792 131.532 15.2978 131.319 14.7393C131.106 14.1807 131 13.5857 131 12.9543C131 12.2421 131.128 11.5821 131.383 10.975C131.638 10.3681 132.042 9.84571 132.596 9.40856C133.149 8.97142 133.86 8.62773 134.728 8.37669C135.596 8.12592 136.651 8 137.894 8H139.68L146.447 17.6657L153.213 8H155V25H152.319Z" fill="white"/>
<path d="M169.38 25V13.5614L161.62 23.3971L161.371 25H159V8H161.62V19.4385L169.38 9.62714L169.63 8H172V25H169.38Z" fill="white"/>
<path d="M182.309 16.7671C182.721 16.7671 183.113 16.7148 183.485 16.6092C183.856 16.5042 184.185 16.3302 184.474 16.0874C184.763 15.8445 184.99 15.5206 185.155 15.1157C185.319 14.7113 185.402 14.2092 185.402 13.61C185.402 13.0113 185.319 12.505 185.155 12.0921C184.99 11.6793 184.763 11.3477 184.474 11.0964C184.185 10.8456 183.856 10.6677 183.485 10.5621C183.113 10.4573 182.721 10.4043 182.309 10.4043H178.598V16.7671H182.309ZM176 25V8H182.309C183.068 8 183.794 8.10928 184.487 8.32785C185.18 8.54642 185.786 8.88642 186.305 9.34785C186.825 9.80928 187.237 10.3921 187.543 11.0964C187.848 11.8007 188 12.6386 188 13.61C188 14.5814 187.852 15.4193 187.555 16.1235C187.258 16.8278 186.85 17.4028 186.33 17.8481C185.81 18.2934 185.208 18.625 184.524 18.8435C183.839 19.0621 183.101 19.1715 182.309 19.1715H178.598V25H176Z" fill="white"/>
<path d="M197.5 8.5147C196.778 8.5147 196.119 8.64612 195.52 8.90842C194.922 9.17126 194.405 9.58154 193.971 10.1404C193.537 10.6992 193.197 11.4192 192.951 12.2994C192.705 13.1802 192.582 14.247 192.582 15.5C192.582 16.7535 192.705 17.8204 192.951 18.7004C193.197 19.5814 193.537 20.3009 193.971 20.8596C194.405 21.4186 194.922 21.8292 195.52 22.0916C196.119 22.3544 196.778 22.4852 197.5 22.4852C198.205 22.4852 198.86 22.3544 199.467 22.0916C200.074 21.8292 200.594 21.4186 201.029 20.8596C201.463 20.3009 201.803 19.5814 202.049 18.7004C202.295 17.8204 202.418 16.7535 202.418 15.5C202.418 14.247 202.295 13.1802 202.049 12.2994C201.803 11.4192 201.463 10.6992 201.029 10.1404C200.594 9.58154 200.074 9.17126 199.467 8.90842C198.86 8.64612 198.205 8.5147 197.5 8.5147ZM197.5 6C198.582 6 199.578 6.19051 200.488 6.57152C201.398 6.95254 202.188 7.5329 202.861 8.31149C203.533 9.09064 204.057 10.0771 204.434 11.271C204.811 12.4646 205 13.8743 205 15.5C205 17.1259 204.811 18.5355 204.434 19.7293C204.057 20.9232 203.533 21.9099 202.861 22.6885C202.188 23.4677 201.398 24.0475 200.488 24.4284C199.578 24.8094 198.582 25 197.5 25C196.418 25 195.422 24.8094 194.513 24.4284C193.603 24.0475 192.812 23.4677 192.139 22.6885C191.467 21.9099 190.942 20.9232 190.566 19.7293C190.188 18.5355 190 17.1259 190 15.5C190 13.8743 190.188 12.4646 190.566 11.271C190.942 10.0771 191.467 9.09064 192.139 8.31149C192.812 7.5329 193.603 6.95254 194.513 6.57152C195.422 6.19051 196.418 6 197.5 6Z" fill="white"/>
<path d="M214.309 21.5887C214.721 21.5887 215.117 21.5523 215.497 21.4792C215.876 21.406 216.206 21.2807 216.487 21.1016C216.767 20.9231 216.99 20.6839 217.155 20.3832C217.32 20.0829 217.402 19.6973 217.402 19.2263C217.402 18.7556 217.316 18.3616 217.142 18.0452C216.969 17.7284 216.742 17.4727 216.462 17.2778C216.181 17.0832 215.856 16.9411 215.485 16.8519C215.113 16.7627 214.721 16.7177 214.309 16.7177H210.598V21.5887H214.309ZM213.814 14.3065C214.227 14.3065 214.619 14.262 214.99 14.1726C215.361 14.0836 215.686 13.9414 215.967 13.7463C216.247 13.5515 216.474 13.2921 216.648 12.967C216.821 12.6424 216.907 12.2448 216.907 11.7736C216.907 11.3193 216.825 10.9415 216.66 10.6411C216.495 10.3409 216.272 10.0973 215.992 9.91043C215.711 9.72406 215.381 9.59408 215.002 9.52075C214.622 9.44768 214.227 9.41115 213.814 9.41115H210.598V14.3065H213.814ZM208 24V7H213.814C214.573 7 215.299 7.09742 215.992 7.29173C216.685 7.48604 217.291 7.77751 217.811 8.16613C218.33 8.55475 218.742 9.0445 219.047 9.63511C219.353 10.226 219.505 10.9182 219.505 11.7114C219.505 12.6345 219.303 13.395 218.899 13.9941C218.495 14.5929 217.955 15.0628 217.279 15.4025C218.103 15.7104 218.763 16.1842 219.258 16.8235C219.753 17.4629 220 18.2928 220 19.3127C220 20.1225 219.848 20.8186 219.543 21.4015C219.237 21.9846 218.825 22.4701 218.305 22.8586C217.786 23.2472 217.18 23.5344 216.487 23.7206C215.794 23.9069 215.068 24 214.309 24H208Z" fill="white"/>
<path d="M53 30H54.1387V34.964H56.9817V30H58.1202V34.964H59V37H57.935V35.9391H53V30Z" fill="white"/>
<path d="M61 29H64.9036V29.9853H62.1854V31.4775H64.6146V32.4635H62.1854V34.0149H65V35H61V29Z" fill="white"/>
<path d="M71.9202 32.4369H69.0885V35H68V29H69.0885V31.451H71.9202V29H73V35H71.9202V32.4369Z" fill="white"/>
<path d="M76 29H81V29.9853H79.0326V35H77.9666V29.9853H76V29Z" fill="white"/>
<path d="M85.0469 29.9995V31.8377C85.2934 31.8629 85.549 31.8801 85.787 31.8801C86.4085 31.8801 86.8933 31.5812 86.8933 30.9144C86.8933 30.2907 86.5103 29.9829 85.7955 29.9829C85.5828 29.9829 85.3276 29.9908 85.0469 29.9995ZM84 35V29.017C84.3324 29.017 85.2768 29 85.6937 29C87.4473 29 88 29.9397 88 30.9229C88 31.9399 87.2425 32.8633 85.821 32.8633C85.6426 32.8633 85.3018 32.8633 85.0469 32.8375V35H84Z" fill="white"/>
<path d="M97.0467 29.9995V31.8377C97.2936 31.8629 97.5496 31.8801 97.7876 31.8801C98.4085 31.8801 98.8938 31.5812 98.8938 30.9144C98.8938 30.2907 98.5111 29.9829 97.7957 29.9829C97.5833 29.9829 97.3276 29.9908 97.0467 29.9995ZM96 35V29.017C96.3318 29.017 97.2762 29 97.694 29C99.4468 29 100 29.9397 100 30.9229C100 31.9399 99.2425 32.8633 97.8216 32.8633C97.6426 32.8633 97.3021 32.8633 97.0467 32.8375V35H96Z" fill="white"/>
<path d="M104.091 32.4873H105.849L104.974 30.3587L104.091 32.4873ZM104.537 29H105.463L108 35H106.878L106.251 33.4696H103.688L103.063 35H102L104.537 29Z" fill="white"/>
<path d="M110 35.0192L110.552 34.3295C110.907 34.7363 111.46 35.0445 111.93 35.0445C112.483 35.0445 112.994 34.7776 112.994 34.1799C112.994 33.7229 112.648 33.4149 111.971 33.4149H111.378V32.4597H111.938C112.367 32.4597 112.771 32.177 112.771 31.6954C112.771 31.1962 112.408 30.9553 111.93 30.9553C111.452 30.9553 111.08 31.1548 110.759 31.5866L110.173 30.9054C110.552 30.3737 111.254 30 112.046 30C113.06 30 113.777 30.5657 113.777 31.5956C113.777 32.0442 113.538 32.5592 113.002 32.8749V32.9002C113.695 33.0746 114 33.6143 114 34.2788C114 35.3517 113.027 36 111.979 36C110.957 36 110.305 35.4843 110 35.0192Z" fill="white"/>
<path d="M118.081 32.4108V33.9816C118.23 33.9987 118.486 34.0234 118.794 34.0234C119.523 34.0234 119.919 33.7269 119.919 33.1664C119.919 32.6654 119.523 32.4108 118.847 32.4108H118.081ZM118.081 30.0013V31.503H118.811C119.312 31.503 119.725 31.257 119.725 30.7138C119.725 30.2307 119.339 29.9753 118.759 29.9753C118.512 29.9753 118.274 29.9847 118.081 30.0013ZM117 29.0428C117.343 29.0258 118.161 29 118.776 29C120.245 29 120.798 29.6452 120.798 30.4684C120.798 31.1469 120.447 31.5803 119.919 31.8171V31.835C120.525 31.9782 121 32.4284 121 33.2176C121 34.4399 120.015 35 118.714 35C118.152 35 117.36 34.9827 117 34.9574V29.0428Z" fill="white"/>
<path d="M124 35V29H125.028V33.2687L128.096 29H129V35H127.971V30.7398L124.903 35H124Z" fill="white"/>
<path d="M132 29H137V29.9853H135.033V35H133.967V29.9853H132V29Z" fill="white"/>
<path d="M140 35V29H141.028V33.2687L144.098 29H145V35H143.972V30.7398L140.903 35H140Z" fill="white"/>
<path d="M151.822 31.9529V30.007C151.659 29.9983 151.282 29.9809 151.079 29.9809C150.298 29.9809 149.795 30.3996 149.795 30.9972C149.795 31.5351 150.258 31.8676 150.741 31.9529H151.822ZM151.822 32.9351H150.848L149.331 35H148L149.728 32.7211C149.099 32.4393 148.54 31.8935 148.54 31.0659C148.54 29.9648 149.351 29 151.322 29C151.756 29 152.604 29.0259 153 29.0259V35H151.822V32.9351Z" fill="white"/>
<path d="M164 36H163.022V33.5404C162.759 33.7459 162.29 33.952 161.694 33.952C160.851 33.952 160 33.463 160 32.0315V30H160.978V31.7317C160.978 32.6912 161.408 32.9663 161.956 32.9663C162.386 32.9663 162.743 32.7856 163.022 32.5803V30H164V36Z" fill="white"/>
<path d="M168 30H171.904V30.9857H169.186V32.477H171.615V33.463H169.186V35.0143H172V36H168V30Z" fill="white"/>
<path d="M179 30.9812H177.328L177.213 32.1078C176.877 35.581 176.131 36.1439 175 35.9729L175.025 34.9327C175.467 34.9917 176.049 34.7957 176.304 31.1947L176.385 30H180V35.9729H179V30.9812Z" fill="white"/>
<path d="M185.996 35.0444C187.206 35.0444 187.93 34.1468 187.93 33.0001C187.93 31.7948 187.082 30.9556 185.996 30.9556C184.893 30.9556 184.07 31.7948 184.07 33.0001C184.07 34.1633 184.918 35.0444 185.996 35.0444ZM185.996 30C187.707 30 189 31.1886 189 33.0001C189 34.7455 187.707 36 185.996 36C184.284 36 183 34.8119 183 33.0001C183 31.3127 184.227 30 185.996 30Z" fill="white"/>
<path d="M193.081 33.4116V34.9814C193.231 34.9986 193.486 35.0242 193.794 35.0242C194.523 35.0242 194.918 34.727 194.918 34.1667C194.918 33.6661 194.523 33.4116 193.846 33.4116H193.081ZM193.081 31.0013V32.5033H193.811C194.312 32.5033 194.725 32.2576 194.725 31.714C194.725 31.2302 194.339 30.976 193.758 30.976C193.512 30.976 193.274 30.9844 193.081 31.0013ZM192 30.0425C192.343 30.0255 193.161 30 193.776 30C195.244 30 195.798 30.645 195.798 31.468C195.798 32.1472 195.446 32.58 194.918 32.8179V32.8344C195.525 32.9785 196 33.4288 196 34.2179C196 35.4399 195.015 36 193.715 36C193.152 36 192.36 35.9833 192 35.9574V30.0425Z" fill="white"/>
<path d="M200 30H203.904V30.9857H201.186V32.477H203.615V33.463H201.186V35.0143H204V36H200V30Z" fill="white"/>
<path d="M207 30H208.088V32.8462L210.531 30H211.841L209.292 32.7945L212 36H210.62L208.088 32.9057V36H207V30Z" fill="white"/>
<path d="M216.091 33.4876H217.849L216.974 31.3589L216.091 33.4876ZM216.537 30H217.463L220 36H218.877L218.252 34.4705H215.688L215.062 36H214L216.537 30Z" fill="white"/>
</g>
<defs>
<clipPath id="clip0_160_21122">
<rect width="220" height="45" fill="white"/>
</clipPath>
</defs>
</svg>
