<svg width="79" height="63" viewBox="0 0 79 63" fill="none" xmlns="http://www.w3.org/2000/svg">
<g clip-path="url(#clip0_160_22452)">
<path d="M35.1929 21.6081C35.1929 23.6484 35.8904 25.5006 37.083 26.6865C37.7763 27.3764 38.7569 27.9411 39.8772 27.9411C40.934 27.9411 41.5878 27.3307 41.5878 26.7654C41.5878 26.3593 41.3918 26.0362 41.0505 25.8769C40.8167 26.2459 40.4096 26.4859 39.8772 26.4859C39.2013 26.4859 38.8378 26.1288 38.8438 25.6918C38.8541 24.9025 39.8472 24.3416 40.7262 24.3416C41.9846 24.3416 43.3435 25.2681 43.3435 26.7654C43.3435 28.216 41.7883 29.3965 39.8772 29.3965C36.2665 29.3965 33.438 25.976 33.4375 21.6097C32.8492 21.7326 32.2665 21.8752 31.6914 22.0375C31.8841 27.0135 35.4094 30.8521 39.8772 30.8521C42.7561 30.8521 45.0981 29.0183 45.0981 26.7654C45.0981 24.369 42.8287 22.886 40.7262 22.886C39.3957 22.886 38.175 23.4672 37.5209 24.4061C37.1805 23.6637 36.9479 22.7256 36.9479 21.6081C36.9479 21.4404 36.9588 21.2745 36.9749 21.1095C36.3807 21.1548 35.7888 21.2185 35.2007 21.3016C35.1956 21.4033 35.1929 21.5055 35.1929 21.6081Z" fill="white"/>
<path d="M48.4045 20.356C48.4045 25.9212 45.3775 31.1673 40.2754 34.7492C40.7567 35.0403 41.2623 35.3075 41.7769 35.5635C47.0331 31.7162 50.1594 26.208 50.1594 20.356C50.1594 18.5922 49.8682 16.8603 49.3255 15.1935C48.7169 14.9828 48.0527 14.8177 47.3325 14.7197C48.0292 16.5226 48.4045 18.4188 48.4045 20.356Z" fill="white"/>
<path d="M22.8837 20.9621C22.4301 21.7869 22.0639 22.6513 21.7969 23.5474C23.0934 22.5813 24.5086 21.713 26.0479 20.9757C32.3378 17.9656 40.0232 17.359 46.9044 19.0741C46.8566 18.5503 46.7829 18.0324 46.6781 17.5181C41.2951 16.3094 35.5043 16.4073 30.2044 17.8527C31.0169 12.8445 34.227 8.25817 39.1902 5.19161C40.7671 6.16621 42.1447 7.30784 43.3463 8.55512C43.4533 8.66616 44.123 9.38061 44.9041 10.2818C45.2253 10.2642 45.5479 10.2521 45.8725 10.2521C46.1891 10.2521 46.5033 10.2637 46.816 10.2803C46.5314 9.82207 46.0397 9.14918 45.8817 8.95565C44.2353 6.93697 42.1665 5.14085 39.696 3.69878L39.1902 3.40389L38.6863 3.69878C32.7828 7.14367 29.0634 12.5436 28.3805 18.4106C27.7501 18.6249 27.1286 18.8595 26.5173 19.1141C27.0134 11.9808 31.7589 5.41876 39.1902 1.68724C43.4167 3.80966 46.7671 6.85211 48.9701 10.3895C49.0055 10.4463 49.0361 10.4988 49.0664 10.5511C49.8463 10.6985 50.6081 10.9001 51.3488 11.1555C48.9875 6.63622 44.9286 2.75638 39.6308 0.212015L39.1902 0.000883102L38.7515 0.212015C30.2381 4.30124 24.8981 11.8298 24.7195 19.937C24.0864 20.2571 23.4763 20.601 22.8837 20.9621Z" fill="white"/>
<path d="M21.3373 28.1807C23.0941 26.312 25.2696 24.7098 27.8042 23.4956C29.0433 22.9024 30.3465 22.4167 31.691 22.0374C32.2661 21.8751 32.8488 21.7325 33.4371 21.6096C34.0198 21.4876 34.608 21.3851 35.2003 21.3015C35.7884 21.2184 36.3803 21.1546 36.9745 21.1094C40.2992 20.8563 43.692 21.1932 46.8558 22.1213C46.9226 21.6161 46.9723 21.1094 46.9828 20.598C40.4063 18.8003 32.9527 19.3498 26.9263 22.235C24.8224 23.2429 22.9523 24.5024 21.3354 25.9466C21.3023 26.3106 21.2832 26.6782 21.2832 27.0495C21.2832 27.4302 21.3029 27.8071 21.3373 28.1807Z" fill="white"/>
<path d="M39.4675 40.8495C40.1942 41.1742 40.9373 41.4704 41.6935 41.7391C42.7765 41.6128 43.8281 41.4064 44.8401 41.1266C43.3276 40.7421 41.8542 40.2462 40.4447 39.6309C40.1635 39.5075 39.8861 39.3806 39.611 39.2485C38.3133 38.6235 37.0888 37.8957 35.948 37.0888C31.5975 34.0068 28.4559 29.7675 27.1826 25.214C26.6578 25.5135 26.1539 25.8317 25.6692 26.1675C27.0777 30.657 30.0858 34.713 34.302 37.7977C31.566 38.7415 28.6394 39.2588 25.6759 39.2588H25.6743C22.5717 39.2588 19.4391 38.7187 16.5733 37.6958C16.7542 36.417 17.1058 35.1751 17.5905 33.9769C17.2521 33.2583 16.9642 32.5194 16.7314 31.762C15.6867 33.7437 15.0019 35.8686 14.7617 38.0797L14.7068 38.5899L15.2656 38.8051C18.5136 40.0535 22.1126 40.7139 25.6759 40.7139C29.1808 40.7139 32.6499 40.0708 35.8386 38.8594C36.3614 39.1982 36.8965 39.5223 37.4454 39.83C29.7977 43.0019 20.4027 42.8628 12.9143 39.4477C13.004 35.8662 14.1673 32.4155 16.1903 29.3645C16.079 28.6056 16.0188 27.8336 16.0188 27.05C16.0188 26.9616 16.0221 26.874 16.0235 26.7862C12.9153 30.587 11.1607 35.1339 11.1523 39.8697V40.2911L11.5928 40.5011C15.8758 42.5438 20.745 43.624 25.6743 43.624C25.6759 43.624 25.6759 43.624 25.6759 43.624C30.39 43.624 35.0495 42.6204 39.1924 40.7218C39.2842 40.7642 39.3747 40.8081 39.4675 40.8495Z" fill="white"/>
<path d="M53.4794 17.8319C53.8369 18.1923 54.1757 18.5742 54.4891 18.9788C55.5587 19.5183 56.5781 20.1109 57.5438 20.7515C56.6851 18.9807 55.4641 17.3632 53.9767 16.1105C52.3799 14.7655 49.6779 13.1631 45.8728 13.1631C43.065 13.1631 40.4685 14.065 38.5332 15.5135C38.7188 15.5108 38.904 15.506 39.0895 15.506C39.8624 15.506 40.6332 15.5333 41.4016 15.5814C42.7266 14.9713 44.2582 14.618 45.8728 14.618C46.3834 14.618 46.8682 14.6561 47.3325 14.7194C48.0528 14.8174 48.717 14.9825 49.3255 15.1932C50.1095 15.4645 50.8005 15.8077 51.3972 16.1741C51.9087 16.4884 52.3537 16.818 52.7264 17.1318C52.9877 17.3519 53.237 17.5878 53.4794 17.8319Z" fill="white"/>
<path d="M46.8164 10.2802C46.5036 10.2636 46.1895 10.252 45.8729 10.252C45.5483 10.252 45.2257 10.264 44.9045 10.2816C41.4692 10.4682 38.2626 11.6425 35.7907 13.6412C34.939 14.3298 34.208 15.0999 33.6035 15.9237C34.3858 15.8036 35.1759 15.7089 35.9726 15.6408C36.2935 15.3061 36.6418 14.9859 37.0162 14.6832C39.3897 12.7643 42.535 11.7074 45.8729 11.7074C49.3656 11.7074 52.6006 12.8772 55.228 15.0899C57.5885 17.0781 59.3131 19.7986 60.1401 22.6913C60.9206 23.3489 61.6524 24.0426 62.3361 24.7661C61.8468 20.7537 59.708 16.7886 56.4785 14.069C54.94 12.7729 53.2108 11.7971 51.3492 11.1553C50.6085 10.9 49.8467 10.6983 49.0668 10.551C48.3314 10.412 47.5805 10.321 46.8164 10.2802Z" fill="white"/>
<path d="M67.2302 39.8697C67.2164 31.7179 62.0293 24.1247 53.6635 19.9405C53.645 19.2321 53.5797 18.5294 53.4793 17.8324C53.2369 17.5882 52.9876 17.3523 52.7263 17.1322C52.3537 16.8184 51.9087 16.4888 51.3971 16.1745C51.7308 17.5394 51.9142 18.9367 51.9142 20.3561C51.9142 26.4519 48.7695 32.2121 43.4824 36.2985C44.0565 36.5236 44.6391 36.7303 45.2373 36.9122C49.2233 33.6563 51.9842 29.4841 53.1072 24.9412C57.9117 28.0285 61.0889 32.6104 61.8089 37.6958C60.4038 38.1974 58.9409 38.5611 57.4497 38.807C56.8836 39.4139 56.2752 39.9921 55.6277 40.5384C58.2107 40.2862 60.7575 39.7125 63.1167 38.8051L63.6769 38.5899L63.6223 38.0797C62.975 32.1266 59.203 26.7646 53.4324 23.3386C53.5212 22.7801 53.5849 22.2169 53.6239 21.6502C60.8119 25.5746 65.288 32.2523 65.4696 39.4477C61.817 41.1146 57.71 41.977 53.5732 42.075C52.7542 42.6188 51.8922 43.1196 50.9881 43.568C51.5601 43.602 52.1337 43.624 52.7081 43.624C57.6387 43.624 62.5082 42.5438 66.7913 40.5011L67.2315 40.2911L67.2302 39.8697Z" fill="white"/>
<path d="M41.3634 36.7298C40.6129 36.3689 39.8864 35.9495 39.1904 35.5196C34.5166 32.6334 31.4092 28.396 30.3844 23.7299C29.8256 23.9333 29.2771 24.1545 28.7441 24.4018C29.9421 29.2552 33.2563 33.6334 38.0969 36.6782C38.8485 37.1429 39.6748 37.6013 40.4859 37.9901C42.6565 39.0286 44.9996 39.7737 47.4221 40.2197C48.2244 39.8731 48.9912 39.478 49.7166 39.0384C46.7912 38.7239 43.9373 37.9617 41.3634 36.7298Z" fill="white"/>
<path d="M16.1891 29.3644C16.3087 30.1804 16.49 30.9807 16.7302 31.7619C16.963 32.5193 17.251 33.2582 17.5893 33.9768C18.4146 35.7304 19.5397 37.3611 20.9135 38.8244C21.7986 38.9814 22.6926 39.0996 23.5908 39.1689C19.9973 35.9912 17.7729 31.7394 17.7729 27.0499C17.7729 22.0982 20.2579 17.6394 24.2142 14.4163C24.492 13.507 24.835 12.6151 25.2349 11.7418C19.7241 15.2026 16.123 20.6449 16.0224 26.7861C16.0209 26.874 16.0176 26.9615 16.0176 27.0499C16.0176 27.8335 16.0778 28.6055 16.1891 29.3644Z" fill="white"/>
<path d="M23.3141 20.2328C23.3202 19.2144 23.4027 18.204 23.5613 17.207C21.0406 19.9435 19.5293 23.3489 19.5293 27.0496C19.5293 31.9039 22.1282 36.2439 26.2022 39.2324C27.0532 39.2148 27.898 39.155 28.738 39.0549C24.5868 36.5639 21.7504 32.6566 21.3379 28.1808C21.3035 27.8072 21.2838 27.4303 21.2838 27.0496C21.2838 26.6783 21.3029 26.3107 21.336 25.9467C21.4108 25.1261 21.5667 24.3246 21.7986 23.5471C22.0656 22.6511 22.4318 21.7867 22.8854 20.9619C23.0208 20.7153 23.1633 20.472 23.3141 20.2328Z" fill="white"/>
<path d="M55.6279 40.5384C56.2754 39.9921 56.8838 39.4139 57.4499 38.807C58.8286 37.3283 59.956 35.6797 60.7755 33.905C60.4939 33.2074 60.172 32.5238 59.7972 31.8616C57.2603 39.3226 48.9894 44.8102 39.1907 44.8102C37.0226 44.8102 34.9454 44.5123 32.9736 44.0122C31.9015 44.2412 30.8157 44.4214 29.7188 44.5488C32.6121 45.6394 35.8092 46.2656 39.1907 46.2656C43.5041 46.2656 47.537 45.2804 50.9883 43.568C51.8924 43.1196 52.7545 42.6188 53.5734 42.075C54.2943 41.5965 54.9811 41.0839 55.6279 40.5384Z" fill="white"/>
<path d="M39.5235 41.885C38.4518 42.362 37.348 42.7825 36.2168 43.1443C37.1886 43.2707 38.1767 43.355 39.1905 43.355C48.8447 43.355 56.8692 37.5485 58.5192 29.932C58.0622 29.3226 57.5593 28.7388 57.0221 28.1762C56.6152 32.6341 53.8296 36.5456 49.7167 39.0383C48.9912 39.4778 48.2245 39.873 47.4221 40.2196C46.5967 40.5758 45.7331 40.8788 44.8388 41.1263C43.8268 41.4061 42.7751 41.6125 41.6922 41.7387C40.9813 41.8217 40.2585 41.8737 39.5235 41.885Z" fill="white"/>
<path d="M5.92876 57.3248C6.11693 57.3248 6.29756 57.3109 6.47099 57.2826C6.64399 57.2548 6.79457 57.2064 6.92265 57.1374C7.05052 57.0691 7.15206 56.9771 7.22763 56.8614C7.30272 56.7459 7.34038 56.5977 7.34038 56.4165C7.34038 56.2357 7.30101 56.0843 7.22179 55.9623C7.14273 55.8406 7.03931 55.7423 6.9113 55.6676C6.78313 55.5926 6.63466 55.538 6.46516 55.5036C6.29591 55.4694 6.11693 55.4522 5.92876 55.4522H4.23488V57.3248H5.92876ZM5.70292 54.5252C5.89103 54.5252 6.07008 54.5078 6.23934 54.4732C6.40874 54.4389 6.55745 54.384 6.68547 54.3087C6.81339 54.2335 6.91704 54.1332 6.99611 54.0076C7.07518 53.8821 7.11457 53.7284 7.11457 53.5464C7.11457 53.3708 7.07682 53.2249 7.00172 53.1088C6.92625 52.9927 6.8246 52.8988 6.69683 52.8266C6.56866 52.7544 6.41808 52.7043 6.24508 52.6761C6.07195 52.648 5.89103 52.6335 5.70292 52.6335H4.23488V54.5252H5.70292ZM3.04917 58.252V52.6335C2.70271 52.6335 2.40911 52.6602 2.16826 52.7132C1.92725 52.7663 1.73348 52.8365 1.58672 52.9238C1.43987 53.0116 1.33428 53.1144 1.27039 53.2327C1.20627 53.3515 1.17459 53.4795 1.17459 53.6167C1.17459 53.8542 1.26852 54.0569 1.45684 54.2254C1.64493 54.394 1.94235 54.4783 2.34887 54.4783V55.4052C1.9499 55.4052 1.60166 55.3585 1.30439 55.2649C1.00682 55.1713 0.762235 55.0417 0.570405 54.8762C0.378351 54.7108 0.235172 54.5203 0.141088 54.305C0.046855 54.0894 0 53.8602 0 53.6167C0 53.3422 0.0564203 53.0877 0.16941 52.8536C0.282325 52.6196 0.461078 52.418 0.705813 52.2497C0.950327 52.0811 1.26479 51.9485 1.64867 51.8517C2.03285 51.755 2.49945 51.7066 3.04917 51.7066H5.70292C6.04907 51.7066 6.38049 51.7438 6.69683 51.819C7.01293 51.8939 7.28965 52.0063 7.52683 52.1559C7.76395 52.3058 7.95212 52.4947 8.09149 52.7226C8.23078 52.9505 8.30036 53.2173 8.30036 53.5231C8.30036 53.8791 8.20807 54.1726 8.02363 54.4033C7.83906 54.6345 7.59268 54.8153 7.28404 54.9465C7.6603 55.0649 7.96161 55.2469 8.1875 55.4928C8.41334 55.7386 8.52619 56.0577 8.52619 56.4496C8.52619 56.7612 8.45654 57.0289 8.31732 57.2529C8.17794 57.477 7.98979 57.6639 7.75274 57.8132C7.51549 57.9625 7.23884 58.0732 6.92265 58.1446C6.6064 58.2163 6.27498 58.252 5.92876 58.252H3.04917Z" fill="white"/>
<path d="M12.7605 55.0868C12.9489 55.0868 13.1276 55.0666 13.2969 55.026C13.4664 54.9855 13.6169 54.9184 13.7487 54.8247C13.8803 54.731 13.9838 54.6062 14.0593 54.4502C14.1343 54.294 14.1721 54.1006 14.1721 53.8695C14.1721 53.6389 14.1343 53.4435 14.0593 53.2842C13.9838 53.1251 13.8803 52.9972 13.7487 52.9003C13.6169 52.8037 13.4664 52.735 13.2969 52.6944C13.1276 52.654 12.9489 52.6335 12.7605 52.6335H11.0666V55.0868H12.7605ZM9.88086 58.2612V51.7065H12.7605C13.1067 51.7065 13.4381 51.7487 13.7543 51.8329C14.0705 51.9171 14.3472 52.0483 14.5844 52.2261C14.8215 52.4041 15.0096 52.6287 15.149 52.9003C15.2884 53.1719 15.3579 53.495 15.3579 53.8695C15.3579 54.244 15.2902 54.5672 15.1546 54.8387C15.0191 55.1103 14.8329 55.3319 14.5956 55.5035C14.3585 55.6753 14.0835 55.8031 13.7712 55.8874C13.4589 55.9718 13.122 56.0138 12.7605 56.0138H11.0666V58.2612H9.88086Z" fill="white"/>
<path d="M20.0118 54.8153L19.6391 53.9444L19.3003 53.0455C19.2399 53.1953 19.1817 53.3451 19.1253 53.495C19.0689 53.6447 19.0103 53.7946 18.9502 53.9444L18.5775 54.8153L17.9789 56.0232H20.6102L20.0118 54.8153ZM21.7282 58.2612L21.0732 56.9503H17.516L16.8609 58.2612H15.6074C16.1568 57.1624 16.7046 56.0701 17.2506 54.9839C17.7964 53.8976 18.3476 52.8053 18.905 51.7065H19.6956C20.2448 52.8053 20.7927 53.8976 21.3387 54.9839C21.8845 56.0701 22.4356 57.1624 22.9931 58.2612H21.7282Z" fill="white"/>
<path d="M24.6739 58.2612V52.6335H22.5059V51.7065H28.0394V52.6335H25.86V58.2612H24.6739Z" fill="white"/>
<path d="M31.9591 54.8155L31.5863 53.9446L31.2477 53.0457C31.187 53.1956 31.129 53.3454 31.0726 53.4952C31.0162 53.6449 30.9576 53.7949 30.8976 53.9446L30.5249 54.8155L29.9263 56.0234H32.5577L31.9591 54.8155ZM33.6755 58.2615L33.0205 56.9506H29.4633L28.8083 58.2615H27.5547C28.1043 57.1627 28.652 56.0704 29.198 54.9841C29.7436 53.8978 30.295 52.8055 30.8522 51.7067H31.6429C32.1921 52.8055 32.74 53.8978 33.2858 54.9841C33.8318 56.0704 34.3833 57.1627 34.9404 58.2615H33.6755Z" fill="white"/>
<path d="M47.9728 58.2612V53.8227L45.7705 56.5757H44.9798L42.7775 53.8227V58.2612H41.592V52.6335C41.2455 52.6335 40.9519 52.6601 40.7112 52.7132C40.4702 52.7662 40.2762 52.8364 40.1297 52.9238C39.9827 53.0115 39.8771 53.1143 39.8132 53.2327C39.7493 53.3514 39.7174 53.4794 39.7174 53.6166C39.7174 53.8541 39.8115 54.0568 39.9996 54.2253C40.1878 54.3939 40.4853 54.4782 40.8918 54.4782V55.4051C40.4926 55.4051 40.1446 55.3584 39.8473 55.2648C39.5496 55.1712 39.3051 55.0416 39.1133 54.8762C38.9212 54.7107 38.7781 54.5202 38.684 54.3049C38.5898 54.0894 38.543 53.8601 38.543 53.6166C38.543 53.3421 38.5994 53.0877 38.7123 52.8535C38.8251 52.6195 39.0038 52.4179 39.2487 52.2496C39.4932 52.081 39.8077 51.9484 40.1918 51.8516C40.5758 51.7549 41.0424 51.7065 41.592 51.7065H42.3823L45.3753 55.4332L48.3677 51.7065H49.1583V58.2612H47.9728Z" fill="white"/>
<path d="M55.5498 58.2615V53.8512L52.0377 57.6435L51.9248 58.2615H50.8516V51.7067H52.0377V56.1172L55.5498 52.3341L55.6625 51.7067H56.7354V58.2615H55.5498Z" fill="white"/>
<path d="M61.3094 55.087C61.4975 55.087 61.6763 55.0669 61.8456 55.0263C62.0151 54.9857 62.1655 54.9186 62.2975 54.825C62.4291 54.7312 62.5326 54.6064 62.608 54.4505C62.6832 54.2942 62.7207 54.1009 62.7207 53.8697C62.7207 53.6391 62.6832 53.4437 62.608 53.2845C62.5326 53.1253 62.4291 52.9974 62.2975 52.9005C62.1655 52.8039 62.0151 52.7353 61.8456 52.6946C61.6763 52.6542 61.4975 52.6337 61.3094 52.6337H59.6152V55.087H61.3094ZM58.4297 58.2615V51.7067H61.3094C61.6555 51.7067 61.9868 51.7489 62.3031 51.8331C62.6193 51.9173 62.8959 52.0486 63.1329 52.2264C63.3702 52.4044 63.5582 52.629 63.6977 52.9005C63.8369 53.1721 63.9066 53.4952 63.9066 53.8697C63.9066 54.2443 63.8387 54.5674 63.7032 54.839C63.568 55.1105 63.3816 55.3322 63.1442 55.5037C62.9072 55.6755 62.6325 55.8034 62.3199 55.8876C62.0075 55.972 61.6706 56.0141 61.3094 56.0141H59.6152V58.2615H58.4297Z" fill="white"/>
<path d="M68.1066 52.4092C67.775 52.4092 67.4722 52.4575 67.1975 52.5542C66.9224 52.6511 66.6854 52.8022 66.486 53.0083C66.2863 53.2144 66.1302 53.4798 66.0173 53.8043C65.9043 54.1288 65.8478 54.5222 65.8478 54.9842C65.8478 55.4462 65.9043 55.8394 66.0173 56.164C66.1302 56.4886 66.2863 56.754 66.486 56.9599C66.6854 57.1659 66.9224 57.3172 67.1975 57.414C67.4722 57.5109 67.775 57.5591 68.1066 57.5591C68.4301 57.5591 68.731 57.5109 69.0097 57.414C69.2881 57.3172 69.5274 57.1659 69.7271 56.9599C69.9263 56.754 70.0828 56.4886 70.1958 56.164C70.3083 55.8394 70.3649 55.4462 70.3649 54.9842C70.3649 54.5222 70.3083 54.1288 70.1958 53.8043C70.0828 53.4798 69.9263 53.2144 69.7271 53.0083C69.5274 52.8022 69.2881 52.6511 69.0097 52.5542C68.731 52.4575 68.4301 52.4092 68.1066 52.4092ZM68.1066 51.482C68.6032 51.482 69.0606 51.5523 69.4786 51.6929C69.8962 51.8332 70.2595 52.047 70.5683 52.3342C70.8769 52.6214 71.1179 52.985 71.2909 53.4252C71.464 53.8652 71.5508 54.3849 71.5508 54.9842C71.5508 55.5835 71.464 56.1031 71.2909 56.5433C71.1179 56.9835 70.8769 57.3472 70.5683 57.6342C70.2595 57.9214 69.8962 58.1349 69.4786 58.2755C69.0606 58.4161 68.6032 58.4863 68.1066 58.4863C67.6096 58.4863 67.152 58.4161 66.7343 58.2755C66.3165 58.1349 65.953 57.9214 65.6447 57.6342C65.3355 57.3472 65.0948 56.9835 64.9217 56.5433C64.7486 56.1031 64.6621 55.5835 64.6621 54.9842C64.6621 54.3849 64.7486 53.8652 64.9217 53.4252C65.0948 52.985 65.3355 52.6214 65.6447 52.3342C65.953 52.047 66.3165 51.8332 66.7343 51.6929C67.152 51.5523 67.6096 51.482 68.1066 51.482Z" fill="white"/>
<path d="M75.7858 57.3155C75.974 57.3155 76.1544 57.3015 76.3278 57.2734C76.5011 57.2454 76.6514 57.197 76.7796 57.1285C76.9078 57.0597 77.0092 56.9677 77.0846 56.852C77.1597 56.7366 77.1974 56.5884 77.1974 56.4074C77.1974 56.2264 77.1578 56.0749 77.0788 55.9532C76.9998 55.8314 76.8963 55.7332 76.7683 55.6582C76.6402 55.5833 76.4917 55.5287 76.3222 55.4945C76.1527 55.4601 75.974 55.4429 75.7858 55.4429H74.092V57.3155H75.7858ZM75.56 54.5158C75.7481 54.5158 75.927 54.4988 76.0963 54.4643C76.2658 54.4301 76.4144 54.3754 76.5426 54.3005C76.6704 54.2255 76.7739 54.1257 76.8529 54.0009C76.9321 53.8762 76.9717 53.7231 76.9717 53.5419C76.9717 53.3673 76.9338 53.2222 76.8586 53.1065C76.7833 52.9912 76.6817 52.8975 76.5537 52.8256C76.4255 52.754 76.2751 52.704 76.102 52.6757C75.9285 52.6476 75.7481 52.6336 75.56 52.6336H74.092V54.5158H75.56ZM72.9062 58.2427V51.7067H75.56C75.9061 51.7067 76.2376 51.7439 76.5537 51.8188C76.8701 51.8935 77.1467 52.0055 77.3838 52.1549C77.6208 52.3043 77.8088 52.4927 77.9483 52.7198C78.0878 52.9469 78.1574 53.2131 78.1574 53.518C78.1574 53.8728 78.0648 54.1654 77.8806 54.3957C77.6964 54.6258 77.4498 54.8067 77.1408 54.9372C77.5173 55.0555 77.8186 55.2378 78.0445 55.4835C78.2703 55.7293 78.3829 56.0486 78.3829 56.4407C78.3829 56.7519 78.3135 57.0195 78.1744 57.2435C78.035 57.4678 77.8469 57.6545 77.6095 57.8037C77.3725 57.9534 77.0958 58.0637 76.7796 58.1351C76.4634 58.2068 76.132 58.2427 75.7858 58.2427H72.9062Z" fill="white"/>
<path d="M3.07031 60.2945H3.55673V62.2131H4.77108V60.2945H5.2574V62.2131H5.63314V63H5.17835V62.5899H3.07031V60.2945Z" fill="white"/>
<path d="M6.90625 60.2944H8.50805V60.6715H7.39266V61.2422H8.38954V61.6194H7.39266V62.213H8.54767V62.5898H6.90625V60.2944Z" fill="white"/>
<path d="M11.7229 61.6094H10.4572V62.5898H9.9707V60.2944H10.4572V61.2322H11.7229V60.2944H12.2055V62.5898H11.7229V61.6094Z" fill="white"/>
<path d="M13.4199 60.2944H15.7021V60.6715H14.8042V62.5898H14.3176V60.6715H13.4199V60.2944Z" fill="white"/>
<path d="M17.4044 60.6715V61.3767C17.5189 61.3862 17.6378 61.3929 17.7484 61.3929C18.0372 61.3929 18.2625 61.2782 18.2625 61.0223C18.2625 60.7831 18.0846 60.6651 17.7523 60.6651C17.6534 60.6651 17.5349 60.6679 17.4044 60.6715ZM16.918 62.5898V60.2944C17.0724 60.2944 17.5112 60.2879 17.705 60.2879C18.5199 60.2879 18.7768 60.6485 18.7768 61.0256C18.7768 61.4159 18.4248 61.7701 17.7641 61.7701C17.6813 61.7701 17.5229 61.7701 17.4044 61.7603V62.5898H16.918Z" fill="white"/>
<path d="M22.8634 60.6715V61.3767C22.978 61.3862 23.097 61.3929 23.2076 61.3929C23.4963 61.3929 23.7218 61.2782 23.7218 61.0223C23.7218 60.7831 23.5439 60.6651 23.2114 60.6651C23.1127 60.6651 22.9939 60.6679 22.8634 60.6715ZM22.377 62.5898V60.2944C22.5311 60.2944 22.97 60.2879 23.1642 60.2879C23.9788 60.2879 24.2359 60.6485 24.2359 61.0256C24.2359 61.4159 23.8839 61.7701 23.2235 61.7701C23.1403 61.7701 22.9821 61.7701 22.8634 61.7603V62.5898H22.377Z" fill="white"/>
<path d="M25.9456 61.6259H26.7564L26.3529 60.8093L25.9456 61.6259ZM26.1513 60.2879H26.5783L27.749 62.5898H27.231L26.9421 62.0028H25.7595L25.471 62.5898H24.9805L26.1513 60.2879Z" fill="white"/>
<path d="M28.709 62.2393L28.9739 61.9672C29.1442 62.1277 29.409 62.2494 29.6343 62.2494C29.8997 62.2494 30.1449 62.1441 30.1449 61.9082C30.1449 61.7278 29.9787 61.6062 29.6544 61.6062H29.3696V61.2292H29.6385C29.844 61.2292 30.0382 61.1176 30.0382 60.9277C30.0382 60.7307 29.8639 60.6355 29.6343 60.6355C29.4051 60.6355 29.227 60.7142 29.073 60.8846L28.7922 60.6159C28.9739 60.406 29.3103 60.2585 29.6902 60.2585C30.1765 60.2585 30.5207 60.4817 30.5207 60.8882C30.5207 61.0652 30.4057 61.2684 30.1488 61.3931V61.4031C30.4811 61.472 30.6272 61.6848 30.6272 61.9472C30.6272 62.3706 30.1608 62.6265 29.6582 62.6265C29.1679 62.6265 28.8555 62.4229 28.709 62.2393Z" fill="white"/>
<path d="M32.547 61.6026V62.2096C32.6142 62.2161 32.729 62.2257 32.8675 62.2257C33.1958 62.2257 33.3737 62.1111 33.3737 61.8946C33.3737 61.7009 33.1958 61.6026 32.8914 61.6026H32.547ZM32.547 60.6714V61.2517H32.8751C33.1007 61.2517 33.2866 61.1567 33.2866 60.9466C33.2866 60.7599 33.1127 60.6613 32.8518 60.6613C32.7406 60.6613 32.6339 60.6651 32.547 60.6714ZM32.0605 60.3009C32.2147 60.2944 32.5826 60.2844 32.8594 60.2844C33.5202 60.2844 33.7693 60.5336 33.7693 60.8518C33.7693 61.1142 33.6111 61.2815 33.3737 61.373V61.3799C33.6465 61.4354 33.86 61.6094 33.86 61.9144C33.86 62.3867 33.4171 62.603 32.8317 62.603C32.5786 62.603 32.2226 62.5963 32.0605 62.5867V60.3009Z" fill="white"/>
<path d="M35.291 62.5898V60.2944H35.7775V61.9276L37.2288 60.2944H37.6563V62.5898H37.1696V60.96L35.718 62.5898H35.291Z" fill="white"/>
<path d="M38.8711 60.2944H41.153V60.6715H40.2552V62.5898H39.7691V60.6715H38.8711V60.2944Z" fill="white"/>
<path d="M42.3672 62.5898V60.2944H42.8535V61.9276L44.3053 60.2944H44.7319V62.5898H44.2456V60.96L42.794 62.5898H42.3672Z" fill="white"/>
<path d="M47.5404 61.419V60.6715C47.4735 60.6679 47.3191 60.6613 47.2361 60.6613C46.9158 60.6613 46.71 60.8223 46.71 61.0518C46.71 61.2585 46.8998 61.3862 47.0976 61.419H47.5404ZM47.5404 61.7964H47.1414L46.5202 62.5898H45.9746L46.6826 61.7142C46.4251 61.6059 46.196 61.3962 46.196 61.0782C46.196 60.6551 46.5283 60.2844 47.3354 60.2844C47.5131 60.2844 47.8609 60.2944 48.0229 60.2944V62.5898H47.5404V61.7964Z" fill="white"/>
<path d="M53.4049 62.6077H52.9148V61.6594C52.7831 61.7386 52.548 61.818 52.2492 61.818C51.8268 61.818 51.4004 61.6296 51.4004 61.0777V60.2948H51.8903V60.9622C51.8903 61.3321 52.1057 61.4381 52.3806 61.4381C52.5961 61.4381 52.7751 61.3685 52.9148 61.2893V60.2948H53.4049V62.6077Z" fill="white"/>
<path d="M54.9746 60.2948H56.589V60.6747H55.4651V61.2495H56.4695V61.6296H55.4651V62.2276H56.6286V62.6077H54.9746V60.2948Z" fill="white"/>
<path d="M59.7083 60.6747H58.8954L58.8396 61.1109C58.6762 62.4559 58.3137 62.6739 57.7637 62.6077L57.7757 62.2048C57.9908 62.2276 58.2737 62.1518 58.3975 60.7573L58.4373 60.2948H60.1946V62.6077H59.7083V60.6747Z" fill="white"/>
<path d="M63.0075 62.2641C63.5935 62.2641 63.9441 61.9072 63.9441 61.4514C63.9441 60.972 63.5334 60.6384 63.0075 60.6384C62.4734 60.6384 62.0749 60.972 62.0749 61.4514C62.0749 61.9139 62.4854 62.2641 63.0075 62.2641ZM63.0075 60.2583C63.8362 60.2583 64.4622 60.731 64.4622 61.4514C64.4622 62.1454 63.8362 62.644 63.0075 62.644C62.1784 62.644 61.5566 62.1718 61.5566 61.4514C61.5566 60.7804 62.1508 60.2583 63.0075 60.2583Z" fill="white"/>
<path d="M66.3145 61.6132V62.2245C66.3823 62.2312 66.498 62.241 66.6375 62.241C66.9682 62.241 67.1473 62.1256 67.1473 61.9073C67.1473 61.7123 66.9682 61.6132 66.6614 61.6132H66.3145ZM66.3145 60.6748V61.2596H66.6455C66.8726 61.2596 67.0599 61.1638 67.0599 60.9522C67.0599 60.7639 66.8846 60.6649 66.6214 60.6649C66.5099 60.6649 66.4022 60.6681 66.3145 60.6748ZM65.8242 60.3015C65.9801 60.2949 66.3507 60.2848 66.6294 60.2848C67.295 60.2848 67.546 60.536 67.546 60.8566C67.546 61.121 67.3866 61.2894 67.1473 61.3821V61.3884C67.4226 61.4447 67.6378 61.6198 67.6378 61.9273C67.6378 62.403 67.1915 62.6211 66.6017 62.6211C66.3467 62.6211 65.9878 62.6146 65.8242 62.6044V60.3015Z" fill="white"/>
<path d="M69.0801 60.2948H70.6941V60.6747H69.5702V61.2495H70.5746V61.6296H69.5702V62.2276H70.7339V62.6077H69.0801V60.2948Z" fill="white"/>
<path d="M72.168 60.2948H72.6581V61.3918L73.7581 60.2948H74.3479L73.2001 61.372L74.4196 62.6077H73.7981L72.6581 61.4148V62.6077H72.168V60.2948Z" fill="white"/>
<path d="M76.232 61.6366H77.0492L76.6427 60.8137L76.232 61.6366ZM76.4392 60.2885H76.8696L78.0492 62.6079H77.5273L77.2363 62.0165H76.0449L75.7537 62.6079H75.2598L76.4392 60.2885Z" fill="white"/>
</g>
<defs>
<clipPath id="clip0_160_22452">
<rect width="78.3837" height="63" fill="white"/>
</clipPath>
</defs>
</svg>
