<svg width="16" height="16" viewBox="0 0 16 16" fill="none" xmlns="http://www.w3.org/2000/svg">
<g clip-path="url(#clip0_160_20399)">
<path d="M15.9197 6.89255C15.6314 4.79661 14.5202 2.90075 12.8305 1.62203C11.1409 0.343319 9.01118 -0.213501 6.90995 0.0740681C4.80872 0.361637 2.90807 1.47004 1.62613 3.15544C0.344186 4.84083 -0.21404 6.96517 0.0742551 9.06111C0.311772 10.7959 1.11098 12.4057 2.35024 13.6457C3.5895 14.8856 5.20095 15.6878 6.93935 15.93C7.29506 15.9765 7.65343 15.9999 8.01218 16C9.46162 16.0024 10.8839 15.6078 12.124 14.8594C12.2998 14.7538 12.4263 14.5828 12.4758 14.3842C12.5252 14.1855 12.4935 13.9754 12.3876 13.8C12.2817 13.6247 12.1103 13.4985 11.9112 13.4492C11.712 13.3999 11.5014 13.4315 11.3256 13.5371C10.4429 14.0656 9.44617 14.3756 8.41878 14.4411C7.39139 14.5066 6.36321 14.3257 5.42025 13.9136C4.4773 13.5015 3.64698 12.8702 2.99876 12.0724C2.35055 11.2747 1.90328 10.3336 1.69437 9.32811C1.48546 8.32258 1.52099 7.28177 1.79799 6.29275C2.07498 5.30372 2.58539 4.39524 3.28651 3.64329C3.98762 2.89135 4.85907 2.31781 5.82794 1.97066C6.79682 1.6235 7.83495 1.51282 8.85549 1.64788C9.80341 1.7736 10.7114 2.10807 11.5137 2.62707C12.3161 3.14607 12.9926 3.83659 13.4943 4.6486C13.9961 5.46062 14.3104 6.3738 14.4146 7.32197C14.5189 8.27014 14.4103 9.22957 14.0969 10.1307C14.0156 10.3474 13.8686 10.5335 13.6765 10.6631C13.4843 10.7927 13.2565 10.8595 13.0246 10.8541C12.719 10.8537 12.426 10.7324 12.2099 10.5169C11.9938 10.3013 11.8722 10.0091 11.8718 9.70422V4.93751C11.8718 4.73283 11.7903 4.53654 11.6452 4.39181C11.5001 4.24708 11.3033 4.16578 11.0981 4.16578C10.8929 4.16578 10.6961 4.24708 10.5511 4.39181C10.406 4.53654 10.3244 4.73283 10.3244 4.93751V4.94471C9.73793 4.50315 9.03745 4.23735 8.305 4.17843C7.57255 4.11951 6.83843 4.2699 6.18855 4.612C5.53867 4.95411 4.99992 5.47377 4.63534 6.11017C4.27076 6.74657 4.09545 7.47338 4.12991 8.20555C4.16437 8.93772 4.40719 9.64496 4.82994 10.2445C5.25268 10.844 5.83788 11.311 6.51704 11.5909C7.19619 11.8708 7.94121 11.9519 8.6649 11.8248C9.38859 11.6977 10.061 11.3676 10.6035 10.8731C10.8227 11.3285 11.166 11.713 11.5943 11.9826C12.0225 12.2523 12.5182 12.3961 13.0246 12.3976C13.5781 12.4029 14.1196 12.2361 14.5738 11.9204C15.028 11.6047 15.3724 11.1558 15.5591 10.636C15.9761 9.43452 16.0997 8.1512 15.9197 6.89255ZM8.00342 10.3396C7.54436 10.3396 7.09561 10.2038 6.71392 9.94943C6.33223 9.69504 6.03473 9.33345 5.85906 8.91041C5.68339 8.48736 5.63742 8.02186 5.72698 7.57275C5.81654 7.12365 6.0376 6.71112 6.3622 6.38734C6.6868 6.06355 7.10037 5.84305 7.5506 5.75372C8.00084 5.66439 8.46752 5.71024 8.89163 5.88547C9.31575 6.0607 9.67824 6.35744 9.93328 6.73817C10.1883 7.11891 10.3244 7.56652 10.3244 8.02442C10.3238 8.63824 10.079 9.22672 9.64388 9.66076C9.20875 10.0948 8.61878 10.3389 8.00342 10.3396Z" fill="#717171"/>
</g>
<defs>
<clipPath id="clip0_160_20399">
<rect width="16" height="16" fill="white"/>
</clipPath>
</defs>
</svg>
