<svg width="80" height="80" viewBox="0 0 80 80" fill="none" xmlns="http://www.w3.org/2000/svg">
<path fill-rule="evenodd" clip-rule="evenodd" d="M2 19.9128C2 15.5754 5.42667 12 9.72667 12H64.2733C68.5733 12 72 15.5754 72 19.9128V37.1786C72 37.6238 71.8244 38.0507 71.5118 38.3655C71.1993 38.6803 70.7754 38.8571 70.3333 38.8571C69.8913 38.8571 69.4674 38.6803 69.1548 38.3655C68.8423 38.0507 68.6667 37.6238 68.6667 37.1786V19.9128C68.6667 17.3614 66.6667 15.3571 64.2733 15.3571H9.72667C7.33333 15.3571 5.33333 17.3647 5.33333 19.9128V51.0872C5.33333 53.6386 7.33333 55.6429 9.72667 55.6429H33.6667C34.1087 55.6429 34.5326 55.8197 34.8452 56.1345C35.1577 56.4493 35.3333 56.8762 35.3333 57.3214C35.3333 57.7666 35.1577 58.1936 34.8452 58.5084C34.5326 58.8232 34.1087 59 33.6667 59H9.72667C5.42667 59 2 55.4246 2 51.0872V19.9128Z" fill="white"/>
<path fill-rule="evenodd" clip-rule="evenodd" d="M2 23.6765C2 23.2318 2.17636 22.8054 2.49028 22.491C2.8042 22.1766 3.22996 22 3.67391 22H70.6304C71.0744 22 71.5002 22.1766 71.8141 22.491C72.128 22.8054 72.3043 23.2318 72.3043 23.6765C72.3043 24.1211 72.128 24.5475 71.8141 24.8619C71.5002 25.1763 71.0744 25.3529 70.6304 25.3529H3.67391C3.22996 25.3529 2.8042 25.1763 2.49028 24.8619C2.17636 24.5475 2 24.1211 2 23.6765ZM8.69565 40.4412C8.69565 39.9965 8.87201 39.5701 9.18593 39.2557C9.49985 38.9413 9.92562 38.7647 10.3696 38.7647H17.0652C17.5092 38.7647 17.9349 38.9413 18.2489 39.2557C18.5628 39.5701 18.7391 39.9965 18.7391 40.4412C18.7391 40.8858 18.5628 41.3122 18.2489 41.6266C17.9349 41.941 17.5092 42.1176 17.0652 42.1176H10.3696C9.92562 42.1176 9.49985 41.941 9.18593 41.6266C8.87201 41.3122 8.69565 40.8858 8.69565 40.4412ZM8.69565 48.8235C8.69565 48.3789 8.87201 47.9525 9.18593 47.6381C9.49985 47.3237 9.92562 47.1471 10.3696 47.1471H23.7609C24.2048 47.1471 24.6306 47.3237 24.9445 47.6381C25.2584 47.9525 25.4348 48.3789 25.4348 48.8235C25.4348 49.2682 25.2584 49.6946 24.9445 50.009C24.6306 50.3234 24.2048 50.5 23.7609 50.5H10.3696C9.92562 50.5 9.49985 50.3234 9.18593 50.009C8.87201 49.6946 8.69565 49.2682 8.69565 48.8235ZM60.587 45.4706C56.5914 45.4706 52.7595 47.0602 49.9342 49.8898C47.109 52.7194 45.5217 56.5572 45.5217 60.5588C45.5217 64.5605 47.109 68.3982 49.9342 71.2278C52.7595 74.0574 56.5914 75.6471 60.587 75.6471C64.5825 75.6471 68.4144 74.0574 71.2397 71.2278C74.0649 68.3982 75.6522 64.5605 75.6522 60.5588C75.6522 56.5572 74.0649 52.7194 71.2397 49.8898C68.4144 47.0602 64.5825 45.4706 60.587 45.4706ZM42.1739 60.5588C42.1739 58.1371 42.6502 55.7391 43.5755 53.5017C44.5009 51.2643 45.8572 49.2314 47.567 47.5189C49.2768 45.8065 51.3066 44.4482 53.5406 43.5214C55.7746 42.5946 58.1689 42.1176 60.587 42.1176C63.005 42.1176 65.3993 42.5946 67.6333 43.5214C69.8673 44.4482 71.8971 45.8065 73.6069 47.5189C75.3167 49.2314 76.673 51.2643 77.5984 53.5017C78.5237 55.7391 79 58.1371 79 60.5588C79 65.4497 77.0601 70.1403 73.6069 73.5987C70.1538 77.0571 65.4704 79 60.587 79C55.7035 79 51.0201 77.0571 47.567 73.5987C44.1138 70.1403 42.1739 65.4497 42.1739 60.5588Z" fill="white"/>
<path fill-rule="evenodd" clip-rule="evenodd" d="M66.152 57.4885C66.4649 57.1757 66.8892 57 67.3317 57C67.7742 57 68.1985 57.1757 68.5114 57.4885C68.8242 57.8013 69 58.2256 69 58.6679C69 59.1103 68.8242 59.5345 68.5114 59.8473L61.8466 66.5106C61.6918 66.6657 61.5079 66.7888 61.3055 66.8728C61.1031 66.9568 60.8861 67 60.6669 67C60.4477 67 60.2307 66.9568 60.0283 66.8728C59.8259 66.7888 59.642 66.6657 59.4872 66.5106L54.4886 61.5131C54.1758 61.2003 54 60.7761 54 60.3337C54 59.8914 54.1758 59.4671 54.4886 59.1543C54.8015 58.8415 55.2258 58.6658 55.6683 58.6658C56.1108 58.6658 56.5351 58.8415 56.848 59.1543L60.6669 62.9757L66.152 57.4885Z" fill="white"/>
</svg>
