<svg width="80" height="80" viewBox="0 0 80 80" fill="none" xmlns="http://www.w3.org/2000/svg">
<path d="M7.94444 17.1494C8.19493 17.1494 8.43515 17.0523 8.61227 16.8796C8.78939 16.7068 8.88889 16.4725 8.88889 16.2282V15.9212C8.88889 15.6769 8.78939 15.4426 8.61227 15.2698C8.43515 15.0971 8.19493 15 7.94444 15C7.69396 15 7.45374 15.0971 7.27662 15.2698C7.0995 15.4426 7 15.6769 7 15.9212V16.2282C7 16.4725 7.0995 16.7068 7.27662 16.8796C7.45374 17.0523 7.69396 17.1494 7.94444 17.1494ZM7 33.4232C7 33.6675 7.0995 33.9018 7.27662 34.0746C7.45374 34.2473 7.69396 34.3444 7.94444 34.3444C8.19493 34.3444 8.43515 34.2473 8.61227 34.0746C8.78939 33.9018 8.88889 33.6675 8.88889 33.4232V19.2988C8.88889 19.0544 8.78939 18.8201 8.61227 18.6474C8.43515 18.4746 8.19493 18.3776 7.94444 18.3776C7.69396 18.3776 7.45374 18.4746 7.27662 18.6474C7.0995 18.8201 7 19.0544 7 19.2988V33.4232ZM11.8796 51.0891C11.8796 51.5979 12.3777 52 12.8993 52H23.0573C23.1807 52.0011 23.303 51.9783 23.4174 51.9331C23.5317 51.8878 23.6357 51.8209 23.7233 51.7362C23.811 51.6515 23.8805 51.5507 23.928 51.4396C23.9755 51.3286 24 51.2094 24 51.0891V49.4582C24 49.2139 23.9005 48.9796 23.7234 48.8068C23.5463 48.6341 23.306 48.537 23.0556 48.537C22.8051 48.537 22.5648 48.6341 22.3877 48.8068C22.2106 48.9796 22.1111 49.2139 22.1111 49.4582V50.1576H13.7685V42.1742H21.2838C21.5343 42.1742 21.7745 42.0772 21.9516 41.9044C22.1287 41.7317 22.2282 41.4974 22.2282 41.2531C22.2282 41.0088 22.1287 40.7745 21.9516 40.6017C21.7745 40.429 21.5343 40.3319 21.2838 40.3319H12.8993C12.3777 40.3319 11.8796 40.6728 11.8796 41.1815V51.0891Z" fill="white"/>
<path d="M23.3418 43.2427L19.6078 46.3374L18.3317 45.0761C18.245 44.9891 18.1419 44.92 18.0281 44.8726C17.9143 44.8252 17.7921 44.8005 17.6686 44.8001C17.5452 44.7996 17.4228 44.8233 17.3086 44.8698C17.1945 44.9163 17.0908 44.9846 17.0034 45.0709C16.9161 45.1573 16.847 45.2598 16.8 45.3727C16.753 45.4855 16.729 45.6065 16.7296 45.7285C16.7301 45.8506 16.755 45.9713 16.803 46.0838C16.851 46.1963 16.921 46.2982 17.009 46.3838L18.8907 48.2439C19.0561 48.4075 19.2776 48.5039 19.5113 48.514C19.7451 48.5241 19.9742 48.4473 20.1535 48.2986L24.5445 44.6598C24.7347 44.5022 24.8538 44.2765 24.8756 44.0321C24.8974 43.7878 24.8201 43.5449 24.6607 43.3569C24.5014 43.1689 24.273 43.0512 24.0258 43.0297C23.7786 43.0081 23.5329 43.0845 23.3427 43.2421L23.3418 43.2427ZM28.9214 45.0361H42.8648C43.1128 45.0361 43.3508 44.9387 43.5262 44.7653C43.7016 44.5919 43.8001 44.3567 43.8001 44.1115C43.8001 43.8663 43.7016 43.6311 43.5262 43.4577C43.3508 43.2843 43.1128 43.1869 42.8648 43.1869H28.9214C28.6733 43.1869 28.4354 43.2843 28.2599 43.4577C28.0845 43.6311 27.986 43.8663 27.986 44.1115C27.986 44.3567 28.0845 44.5919 28.2599 44.7653C28.4354 44.9387 28.6733 45.0361 28.9214 45.0361ZM28.9214 49.5049H50.0646C50.3127 49.5049 50.5506 49.4075 50.726 49.2341C50.9015 49.0607 51 48.8255 51 48.5803C51 48.3351 50.9015 48.0999 50.726 47.9265C50.5506 47.7531 50.3127 47.6557 50.0646 47.6557H28.9214C28.6733 47.6557 28.4354 47.7531 28.2599 47.9265C28.0845 48.0999 27.986 48.3351 27.986 48.5803C27.986 48.8255 28.0845 49.0607 28.2599 49.2341C28.4354 49.4075 28.6733 49.5049 28.9214 49.5049ZM12 69.0754C12 69.3206 12.0986 69.5558 12.274 69.7292C12.4494 69.9026 12.6873 70 12.9354 70H23.0688C23.3169 70 23.5548 69.9026 23.7302 69.7292C23.9056 69.5558 24.0042 69.3206 24.0042 69.0754V59.059C24.0042 58.8138 23.9056 58.5786 23.7302 58.4052C23.5548 58.2318 23.3169 58.1344 23.0688 58.1344H12.9354C12.6873 58.1344 12.4494 58.2318 12.274 58.4052C12.0986 58.5786 12 58.8138 12 59.059V69.0754ZM13.8708 59.9836H22.1334V68.1508H13.8708V59.9836ZM28.9214 62.7574H42.8648C43.1128 62.7574 43.3508 62.66 43.5262 62.4866C43.7016 62.3132 43.8001 62.078 43.8001 61.8328C43.8001 61.5876 43.7016 61.3524 43.5262 61.179C43.3508 61.0056 43.1128 60.9082 42.8648 60.9082H28.9214C28.6733 60.9082 28.4354 61.0056 28.2599 61.179C28.0845 61.3524 27.986 61.5876 27.986 61.8328C27.986 62.078 28.0845 62.3132 28.2599 62.4866C28.4354 62.66 28.6733 62.7574 28.9214 62.7574ZM21.314 23H13.0099C12.7475 23.0115 12.4989 23.119 12.3122 23.3016C12.1256 23.4842 12.0143 23.7289 12 23.9881V33.9327C12 34.4432 12.4933 34.8656 13.0099 34.8656H23.0705C23.3193 34.8636 23.5571 34.7643 23.7321 34.5895C23.907 34.4147 24.0048 34.1786 24.0042 33.9327V32.2955C24.0042 32.0503 23.9056 31.8151 23.7302 31.6417C23.5548 31.4683 23.3169 31.3709 23.0688 31.3709C22.8207 31.3709 22.5828 31.4683 22.4074 31.6417C22.2319 31.8151 22.1334 32.0503 22.1334 32.2955V33.0164H13.8708V24.8492H21.314C21.5621 24.8492 21.8 24.7518 21.9754 24.5784C22.1508 24.405 22.2494 24.1698 22.2494 23.9246C22.2494 23.6794 22.1508 23.4442 21.9754 23.2708C21.8 23.0974 21.5621 23 21.314 23Z" fill="white"/>
<path d="M24.8559 26.3561C24.6977 26.1537 24.471 26.027 24.2258 26.0038C23.9805 25.9807 23.7367 26.063 23.5481 26.2327L19.8425 29.5671L18.5759 28.2082C18.401 28.0256 18.1661 27.9242 17.922 27.926C17.678 27.9278 17.4444 28.0326 17.2719 28.2178C17.0993 28.4029 17.0017 28.6536 17 28.9154C16.9984 29.1773 17.0929 29.4293 17.2631 29.617L19.1307 31.6219C19.2949 31.7982 19.5147 31.9021 19.7467 31.913C19.9787 31.924 20.2061 31.8412 20.3841 31.6811L24.7423 27.7604C24.8357 27.6762 24.9128 27.5731 24.9691 27.457C25.0254 27.3408 25.0598 27.2139 25.0703 27.0835C25.0809 26.9531 25.0674 26.8217 25.0306 26.6969C24.9938 26.5721 24.9344 26.4563 24.8559 26.3561ZM29.0864 28.1851H42.9256C43.1718 28.1851 43.4079 28.0802 43.582 27.8933C43.7562 27.7065 43.854 27.4531 43.854 27.1889C43.854 26.9247 43.7562 26.6713 43.582 26.4845C43.4079 26.2977 43.1718 26.1927 42.9256 26.1927H29.0864C28.8402 26.1927 28.604 26.2977 28.4299 26.4845C28.2558 26.6713 28.158 26.9247 28.158 27.1889C28.158 27.4531 28.2558 27.7065 28.4299 27.8933C28.604 28.0802 28.8402 28.1851 29.0864 28.1851ZM29.0864 33H50.0716C50.3178 33 50.554 32.895 50.7281 32.7082C50.9022 32.5214 51 32.268 51 32.0038C51 31.7396 50.9022 31.4862 50.7281 31.2994C50.554 31.1126 50.3178 31.0076 50.0716 31.0076H29.0864C28.8402 31.0076 28.604 31.1126 28.4299 31.2994C28.2558 31.4862 28.158 31.7396 28.158 32.0038C28.158 32.268 28.2558 32.5214 28.4299 32.7082C28.604 32.895 28.8402 33 29.0864 33Z" fill="white"/>
<path d="M67.1521 39.2727L60.3235 46.0906V14.812C60.3211 14.0801 60.1743 13.3559 59.8915 12.6808C59.6086 12.0057 59.1953 11.3931 58.6752 10.8781C58.1551 10.363 57.5384 9.9556 56.8605 9.67924C56.1826 9.40288 55.4568 9.26298 54.7247 9.26756H53.1775V6.8333C53.1775 5.30928 52.5719 3.84768 51.494 2.77003C50.416 1.69239 48.954 1.08697 47.4296 1.08697C45.9052 1.08697 44.4432 1.69239 43.3652 2.77003C42.2873 3.84768 41.6817 5.30928 41.6817 6.8333V9.26756H21.4864V6.74633C21.4864 5.2223 20.8809 3.7607 19.8029 2.68306C18.725 1.60541 17.263 1 15.7386 1C14.2141 1 12.7521 1.60541 11.6742 2.68306C10.5962 3.7607 9.99067 5.2223 9.99067 6.74633V9.26756H8.54282C7.07278 9.26756 5.66294 9.85138 4.62346 10.8906C3.58397 11.9298 3 13.3392 3 14.8089V20.139C3 20.3861 3.0982 20.6231 3.273 20.7979C3.4478 20.9727 3.68488 21.0708 3.93209 21.0708C4.17929 21.0708 4.41638 20.9727 4.59118 20.7979C4.76598 20.6231 4.86418 20.3861 4.86418 20.139V14.812C4.86418 13.8358 5.25208 12.8996 5.94254 12.2093C6.633 11.519 7.56947 11.1312 8.54593 11.1312H9.99067V14.1682C9.99312 14.425 10.0931 14.6712 10.2702 14.857C10.4474 15.0428 10.6886 15.1544 10.945 15.1692H20.5039C20.7632 15.1556 21.0081 15.0452 21.19 14.8599C21.3719 14.6746 21.4777 14.4278 21.4864 14.1682V11.1312H41.6817V14.1682C41.6817 14.6829 42.075 15.1692 42.5899 15.1692H52.3231C52.8379 15.1692 53.1775 14.6829 53.1775 14.1682V11.1312H54.7247C55.2121 11.1263 55.6956 11.2178 56.1475 11.4004C56.5994 11.5829 57.0107 11.853 57.3577 12.1951C57.7048 12.5372 57.9808 12.9445 58.1699 13.3936C58.3589 13.8427 58.4573 14.3247 58.4593 14.812V47.9503L45.2858 61.0923C45.1888 61.1884 45.1141 61.3046 45.0667 61.4327L43.3621 66.1096H29.0272C28.78 66.1096 28.5429 66.2078 28.3681 66.3825C28.1933 66.5573 28.0951 66.7943 28.0951 67.0414C28.0951 67.2886 28.1933 67.5256 28.3681 67.7003C28.5429 67.8751 28.78 67.9733 29.0272 67.9733H42.6823L41.1197 72.2597C41.059 72.4264 41.0471 72.6069 41.0855 72.78C41.1239 72.9532 41.2109 73.1118 41.3363 73.2372C41.4617 73.3626 41.6203 73.4497 41.7935 73.4881C41.9667 73.5265 42.1473 73.5148 42.314 73.4542L53.1433 69.5094C53.2713 69.4626 53.3876 69.3884 53.4838 69.292L58.4593 64.308V73.409C58.4593 74.3975 58.0665 75.3456 57.3673 76.0446C56.6681 76.7436 55.7198 77.1363 54.731 77.1363H8.54282C7.56719 77.1363 6.63151 76.7489 5.94163 76.0592C5.25175 75.3695 4.86418 74.4341 4.86418 73.4587V26.6618C4.86418 26.4147 4.76598 26.1777 4.59118 26.0029C4.41638 25.8282 4.17929 25.73 3.93209 25.73C3.68488 25.73 3.4478 25.8282 3.273 26.0029C3.0982 26.1777 3 26.4147 3 26.6618V73.4587C3 74.9283 3.58397 76.3378 4.62346 77.377C5.66294 78.4162 7.07278 79 8.54282 79H54.7247C56.2083 78.9957 57.6298 78.4046 58.6789 77.3558C59.7279 76.3071 60.3191 74.8859 60.3235 73.4028V62.441L75.3095 47.4312C76.3916 46.3498 76.9997 44.8829 77 43.3532C77.0003 41.8236 76.3927 40.3564 75.311 39.2746C74.2293 38.1927 72.762 37.5848 71.2319 37.5845C69.7018 37.5842 68.2343 38.1916 67.1521 39.273V39.2727ZM19.6223 13.3055H11.8548V6.74633C11.8548 5.71658 12.264 4.72901 12.9924 4.00088C13.7207 3.27274 14.7085 2.86367 15.7386 2.86367C16.7686 2.86367 17.7564 3.27274 18.4847 4.00088C19.2131 4.72901 19.6223 5.71658 19.6223 6.74633V13.3055ZM51.3133 13.3055H43.5459V6.8333C43.5459 5.80355 43.9551 4.81599 44.6834 4.08785C45.4117 3.35971 46.3996 2.95064 47.4296 2.95064C48.4596 2.95064 49.4474 3.35971 50.1758 4.08785C50.9041 4.81599 51.3133 5.80355 51.3133 6.8333V13.3055ZM64.6308 44.4189L66.7613 46.5491L49.4072 63.8987L47.2603 61.7523L64.6308 44.4189ZM43.5558 71.0173L44.3531 68.8302L45.7434 70.2202L43.5558 71.0173ZM47.6757 69.5164L45.0573 66.8987L46.3167 63.4438L51.1315 68.2573L47.6757 69.5164ZM52.8241 67.3137L50.7253 65.2158L68.0796 47.8669L70.1612 49.9487L52.8241 67.3137ZM73.9901 46.1144L71.479 48.6297L65.95 43.1024L68.4658 40.5928C69.1995 39.8662 70.1912 39.4596 71.224 39.4621C72.2568 39.4645 73.2466 39.8758 73.9769 40.6059C74.7072 41.336 75.1185 42.3255 75.121 43.358C75.1234 44.3905 74.7168 45.3819 73.9899 46.1155L73.9901 46.1144Z" fill="white"/>
</svg>
