<svg width="1024" height="101" viewBox="0 0 1024 101" fill="none" xmlns="http://www.w3.org/2000/svg">
<path opacity="0.125" d="M-513 87.5832C-406.079 86.0582 -397.47 72.1651 -327.95 79.1746C-258.43 86.1841 -194.942 108.131 -117.927 92.5034C-40.9126 76.8731 3.73269 26.9064 54.2975 48.2008C104.862 69.4951 103.117 99.7834 146.977 96.3859C190.839 92.9884 239.82 59.7107 274.479 59.4099C304.317 59.1511 277.008 89.3391 359 87.5272" stroke="black" stroke-width="0.2813" stroke-miterlimit="10"/>
<path opacity="0.25" d="M-509 90.7043C-402.177 89.1754 -396.452 61.1078 -326.995 68.1457C-257.538 75.1837 -193.2 116.14 -116.255 100.447C-39.3109 84.7527 2.76277 20.9567 53.2816 42.3375C103.8 63.7184 86.5436 104.584 130.366 101.172C174.186 97.761 225.249 57.6778 264.691 58.2888C294.493 58.7501 287.099 100.109 369 92.3502" stroke="black" stroke-width="0.3125" stroke-miterlimit="10"/>
<path opacity="0.375" d="M-505 93.8537C-398.152 92.3258 -395.303 50.1672 -325.83 57.203C-256.358 64.2365 -191.098 124.072 -114.136 108.391C-37.1741 92.7072 2.38005 15.3368 52.9104 36.7039C103.441 58.071 70.6639 109.355 114.496 105.948C158.327 102.539 211.526 56.129 255.796 57.3364C285.595 58.1506 298.094 110.892 380 97.202" stroke="black" stroke-width="0.3438" stroke-miterlimit="10"/>
<path opacity="0.5" d="M-502 97.5095C-395.128 95.9748 -395.156 39.4582 -325.668 46.5231C-256.18 53.588 -189.997 132.683 -113.018 116.93C-36.0386 101.176 0.992203 9.78392 51.5362 31.2464C102.078 52.709 53.7764 114.716 97.6164 111.294C141.456 107.869 196.796 54.8171 245.892 56.6832C275.686 57.8161 308.09 122.293 390 102.577" stroke="black" stroke-width="0.375" stroke-miterlimit="10"/>
<path opacity="0.625" d="M-498 99.2841C-391.104 97.7634 -394.01 27.7217 -324.506 34.7221C-255.003 41.7225 -187.896 138.914 -110.901 123.306C-33.9043 107.696 0.604658 3.58582 51.1579 24.8526C101.711 46.1194 37.8753 117.959 81.7276 114.566C125.578 111.173 183.058 52.1767 236.981 54.7267C266.775 56.1357 319.085 131.445 401 106" stroke="black" stroke-width="0.4063" stroke-miterlimit="10"/>
<path opacity="0.75" d="M-494 102.761C-387.199 101.241 -392.979 17.1657 -323.536 24.1655C-254.094 31.1654 -186.141 147.164 -109.213 131.557C-32.284 115.951 -0.333725 -1.70318 50.1746 19.5619C100.683 40.8269 21.3968 123.058 65.2079 119.665C109.021 116.272 168.582 50.8027 227.263 54.1023C257.026 55.7766 329.172 142.52 411 111.17" stroke="black" stroke-width="0.4375" stroke-miterlimit="10"/>
<path opacity="0.875" d="M-490 105.937C-383.175 104.406 -391.83 5.62999 -322.375 12.677C-252.917 19.7241 -184.04 155.449 -107.094 139.735C-30.1487 124.021 -0.72221 -8.06786 49.7975 13.3405C100.317 34.7489 5.50023 128.002 49.3235 124.586C93.1444 121.17 154.858 48.6836 218.357 52.8166C248.122 54.753 340.17 153.616 422 116.106" stroke="black" stroke-width="0.4688" stroke-miterlimit="10"/>
<path d="M-486 108.39C-379.151 106.863 -390.686 -5.71039 -321.213 1.31568C-251.74 8.34174 -181.94 162.548 -104.977 146.883C-28.0145 131.216 -1.11087 -14.0804 49.4199 7.26426C99.9506 28.6089 -10.401 132.018 33.4295 128.615C77.2624 125.209 141.13 46.3307 209.441 51.3092C239.21 53.4783 351.166 163.558 433 120.228" stroke="black" stroke-width="0.5" stroke-miterlimit="10"/>
<path opacity="0.125" d="M326 87.5832C432.921 86.0582 441.53 72.1651 511.05 79.1746C580.57 86.1841 644.058 108.131 721.073 92.5034C798.087 76.8731 842.733 26.9064 893.298 48.2008C943.862 69.4951 942.117 99.7834 985.977 96.3859C1029.84 92.9884 1078.82 59.7107 1113.48 59.4099C1143.32 59.1511 1116.01 89.3391 1198 87.5272" stroke="black" stroke-width="0.2813" stroke-miterlimit="10"/>
<path opacity="0.25" d="M330 90.7043C436.823 89.1754 442.548 61.1078 512.005 68.1457C581.462 75.1837 645.8 116.14 722.745 100.447C799.689 84.7527 841.763 20.9567 892.282 42.3375C942.8 63.7184 925.544 104.584 969.366 101.172C1013.19 97.761 1064.25 57.6778 1103.69 58.2888C1133.49 58.7501 1126.1 100.109 1208 92.3502" stroke="black" stroke-width="0.3125" stroke-miterlimit="10"/>
<path opacity="0.375" d="M334 93.8537C440.848 92.3258 443.697 50.1672 513.17 57.203C582.642 64.2365 647.902 124.072 724.864 108.391C801.826 92.7072 841.38 15.3368 891.91 36.7039C942.441 58.071 909.664 109.355 953.496 105.948C997.327 102.539 1050.53 56.129 1094.8 57.3364C1124.59 58.1506 1137.09 110.892 1219 97.202" stroke="black" stroke-width="0.3438" stroke-miterlimit="10"/>
<path opacity="0.5" d="M337 97.5095C443.872 95.9748 443.844 39.4582 513.332 46.5231C582.82 53.588 649.003 132.683 725.982 116.93C802.961 101.176 839.992 9.78392 890.536 31.2464C941.078 52.709 892.776 114.716 936.616 111.294C980.456 107.869 1035.8 54.8171 1084.89 56.6832C1114.69 57.8161 1147.09 122.293 1229 102.577" stroke="black" stroke-width="0.375" stroke-miterlimit="10"/>
<path opacity="0.625" d="M341 99.2841C447.896 97.7634 444.99 27.7217 514.494 34.7221C583.997 41.7225 651.104 138.914 728.099 123.306C805.096 107.696 839.605 3.58582 890.158 24.8526C940.711 46.1194 876.875 117.959 920.728 114.566C964.578 111.173 1022.06 52.1767 1075.98 54.7267C1105.77 56.1357 1158.08 131.445 1240 106" stroke="black" stroke-width="0.4063" stroke-miterlimit="10"/>
<path opacity="0.75" d="M345 102.761C451.801 101.241 446.021 17.1657 515.464 24.1655C584.906 31.1654 652.859 147.164 729.787 131.557C806.716 115.951 838.666 -1.70318 889.175 19.5619C939.683 40.8269 860.397 123.058 904.208 119.665C948.021 116.272 1007.58 50.8027 1066.26 54.1023C1096.03 55.7766 1168.17 142.52 1250 111.17" stroke="black" stroke-width="0.4375" stroke-miterlimit="10"/>
<path opacity="0.875" d="M349 105.937C455.825 104.406 447.17 5.62999 516.625 12.677C586.083 19.7241 654.96 155.449 731.906 139.735C808.851 124.021 838.278 -8.06786 888.797 13.3405C939.317 34.7489 844.5 128.002 888.323 124.586C932.144 121.17 993.858 48.6836 1057.36 52.8166C1087.12 54.753 1179.17 153.616 1261 116.106" stroke="black" stroke-width="0.4688" stroke-miterlimit="10"/>
<path d="M353 108.39C459.849 106.863 448.314 -5.71039 517.787 1.31568C587.26 8.34174 657.06 162.548 734.023 146.883C810.985 131.216 837.889 -14.0804 888.42 7.26426C938.951 28.6089 828.599 132.018 872.43 128.615C916.262 125.209 980.13 46.3307 1048.44 51.3092C1078.21 53.4783 1190.17 163.558 1272 120.228" stroke="black" stroke-width="0.5" stroke-miterlimit="10"/>
</svg>
