<svg width="1920" height="138" viewBox="0 0 1920 138" fill="none" xmlns="http://www.w3.org/2000/svg">
<mask id="mask0_160_20325" style="mask-type:alpha" maskUnits="userSpaceOnUse" x="0" y="0" width="1920" height="138">
<rect width="1920" height="138" fill="#D9D9D9"/>
</mask>
<g mask="url(#mask0_160_20325)">
<path opacity="0.125" d="M-65 124.583C41.9207 123.058 50.5301 109.165 120.05 116.175C189.57 123.184 253.058 145.131 330.073 129.503C407.087 113.873 451.733 63.9064 502.298 85.2008C552.862 106.495 551.117 136.783 594.977 133.386C638.839 129.988 687.82 96.7107 722.479 96.4099C752.317 96.1511 725.008 126.339 807 124.527" stroke="black" stroke-width="0.2813" stroke-miterlimit="10"/>
<path opacity="0.25" d="M-61 127.704C45.8233 126.175 51.5483 98.1078 121.005 105.146C190.462 112.184 254.8 153.14 331.745 137.447C408.689 121.753 450.763 57.9567 501.282 79.3375C551.8 100.718 534.544 141.584 578.366 138.172C622.186 134.761 673.249 94.6778 712.691 95.2888C742.493 95.7501 735.099 137.109 817 129.35" stroke="black" stroke-width="0.3125" stroke-miterlimit="10"/>
<path opacity="0.375" d="M-57 130.854C49.8478 129.326 52.697 87.1672 122.17 94.203C191.642 101.236 256.902 161.072 333.864 145.391C410.826 129.707 450.38 52.3368 500.91 73.7039C551.441 95.071 518.664 146.355 562.496 142.948C606.327 139.539 659.526 93.129 703.796 94.3364C733.595 95.1506 746.094 147.892 828 134.202" stroke="black" stroke-width="0.3438" stroke-miterlimit="10"/>
<path opacity="0.5" d="M-54 134.51C52.8717 132.975 52.8437 76.4582 122.332 83.5231C191.82 90.588 258.003 169.683 334.982 153.93C411.961 138.176 448.992 46.7839 499.536 68.2464C550.078 89.709 501.776 151.716 545.616 148.294C589.456 144.869 644.796 91.8171 693.892 93.6832C723.686 94.8161 756.09 159.293 838 139.577" stroke="black" stroke-width="0.375" stroke-miterlimit="10"/>
<path opacity="0.625" d="M-50 136.284C56.8961 134.763 53.9896 64.7217 123.494 71.7221C192.997 78.7225 260.104 175.914 337.099 160.306C414.096 144.696 448.605 40.5858 499.158 61.8526C549.711 83.1194 485.875 154.959 529.728 151.566C573.578 148.173 631.058 89.1767 684.981 91.7267C714.775 93.1357 767.085 168.445 849 143" stroke="black" stroke-width="0.4063" stroke-miterlimit="10"/>
<path opacity="0.75" d="M-46 139.761C60.8012 138.241 55.0214 54.1657 124.464 61.1655C193.906 68.1654 261.859 184.164 338.787 168.557C415.716 152.951 447.666 35.2968 498.175 56.5619C548.683 77.8269 469.397 160.058 513.208 156.665C557.021 153.272 616.582 87.8027 675.263 91.1023C705.026 92.7766 777.172 179.52 859 148.17" stroke="black" stroke-width="0.4375" stroke-miterlimit="10"/>
<path opacity="0.875" d="M-42 142.937C64.8252 141.406 56.1698 42.63 125.625 49.677C195.083 56.7241 263.96 192.449 340.906 176.735C417.851 161.021 447.278 28.9321 497.797 50.3405C548.317 71.7489 453.5 165.002 497.323 161.586C541.144 158.17 602.858 85.6836 666.357 89.8166C696.122 91.753 788.17 190.616 870 153.106" stroke="black" stroke-width="0.4688" stroke-miterlimit="10"/>
<path d="M-38 145.39C68.8486 143.863 57.3141 31.2896 126.787 38.3157C196.26 45.3417 266.06 199.548 343.023 183.883C419.985 168.216 446.889 22.9196 497.42 44.2643C547.951 65.6089 437.599 169.018 481.43 165.615C525.262 162.209 589.13 83.3307 657.441 88.3092C687.21 90.4783 799.166 200.558 881 157.228" stroke="black" stroke-width="0.5" stroke-miterlimit="10"/>
<path opacity="0.125" d="M774 124.583C880.921 123.058 889.53 109.165 959.05 116.175C1028.57 123.184 1092.06 145.131 1169.07 129.503C1246.09 113.873 1290.73 63.9064 1341.3 85.2008C1391.86 106.495 1390.12 136.783 1433.98 133.386C1477.84 129.988 1526.82 96.7107 1561.48 96.4099C1591.32 96.1511 1564.01 126.339 1646 124.527" stroke="black" stroke-width="0.2813" stroke-miterlimit="10"/>
<path opacity="0.25" d="M778 127.704C884.823 126.175 890.548 98.1078 960.005 105.146C1029.46 112.184 1093.8 153.14 1170.74 137.447C1247.69 121.753 1289.76 57.9567 1340.28 79.3375C1390.8 100.718 1373.54 141.584 1417.37 138.172C1461.19 134.761 1512.25 94.6778 1551.69 95.2888C1581.49 95.7501 1574.1 137.109 1656 129.35" stroke="black" stroke-width="0.3125" stroke-miterlimit="10"/>
<path opacity="0.375" d="M782 130.854C888.848 129.326 891.697 87.1672 961.17 94.203C1030.64 101.236 1095.9 161.072 1172.86 145.391C1249.83 129.707 1289.38 52.3368 1339.91 73.7039C1390.44 95.071 1357.66 146.355 1401.5 142.948C1445.33 139.539 1498.53 93.129 1542.8 94.3364C1572.59 95.1506 1585.09 147.892 1667 134.202" stroke="black" stroke-width="0.3438" stroke-miterlimit="10"/>
<path opacity="0.5" d="M785 134.51C891.872 132.975 891.844 76.4582 961.332 83.5231C1030.82 90.588 1097 169.683 1173.98 153.93C1250.96 138.176 1287.99 46.7839 1338.54 68.2464C1389.08 89.709 1340.78 151.716 1384.62 148.294C1428.46 144.869 1483.8 91.8171 1532.89 93.6832C1562.69 94.8161 1595.09 159.293 1677 139.577" stroke="black" stroke-width="0.375" stroke-miterlimit="10"/>
<path opacity="0.625" d="M789 136.284C895.896 134.763 892.99 64.7217 962.494 71.7221C1032 78.7225 1099.1 175.914 1176.1 160.306C1253.1 144.696 1287.6 40.5858 1338.16 61.8526C1388.71 83.1194 1324.88 154.959 1368.73 151.566C1412.58 148.173 1470.06 89.1767 1523.98 91.7267C1553.77 93.1357 1606.08 168.445 1688 143" stroke="black" stroke-width="0.4063" stroke-miterlimit="10"/>
<path opacity="0.75" d="M793 139.761C899.801 138.241 894.021 54.1657 963.464 61.1655C1032.91 68.1654 1100.86 184.164 1177.79 168.557C1254.72 152.951 1286.67 35.2968 1337.17 56.5619C1387.68 77.8269 1308.4 160.058 1352.21 156.665C1396.02 153.272 1455.58 87.8027 1514.26 91.1023C1544.03 92.7766 1616.17 179.52 1698 148.17" stroke="black" stroke-width="0.4375" stroke-miterlimit="10"/>
<path opacity="0.875" d="M797 142.937C903.825 141.406 895.17 42.63 964.625 49.677C1034.08 56.7241 1102.96 192.449 1179.91 176.735C1256.85 161.021 1286.28 28.9321 1336.8 50.3405C1387.32 71.7489 1292.5 165.002 1336.32 161.586C1380.14 158.17 1441.86 85.6836 1505.36 89.8166C1535.12 91.753 1627.17 190.616 1709 153.106" stroke="black" stroke-width="0.4688" stroke-miterlimit="10"/>
<path d="M801 145.39C907.849 143.863 896.314 31.2896 965.787 38.3157C1035.26 45.3417 1105.06 199.548 1182.02 183.883C1258.99 168.216 1285.89 22.9196 1336.42 44.2643C1386.95 65.6089 1276.6 169.018 1320.43 165.615C1364.26 162.209 1428.13 83.3307 1496.44 88.3092C1526.21 90.4783 1638.17 200.558 1720 157.228" stroke="black" stroke-width="0.5" stroke-miterlimit="10"/>
<path opacity="0.125" d="M1565 124.583C1671.92 123.058 1680.53 109.165 1750.05 116.175C1819.57 123.184 1883.06 145.131 1960.07 129.503C2037.09 113.873 2081.73 63.9064 2132.3 85.2008C2182.86 106.495 2181.12 136.783 2224.98 133.386C2268.84 129.988 2317.82 96.7107 2352.48 96.4099C2382.32 96.1511 2355.01 126.339 2437 124.527" stroke="black" stroke-width="0.2813" stroke-miterlimit="10"/>
<path opacity="0.25" d="M1569 127.704C1675.82 126.175 1681.55 98.1078 1751 105.146C1820.46 112.184 1884.8 153.14 1961.74 137.447C2038.69 121.753 2080.76 57.9567 2131.28 79.3375C2181.8 100.718 2164.54 141.584 2208.37 138.172C2252.19 134.761 2303.25 94.6778 2342.69 95.2888C2372.49 95.7501 2365.1 137.109 2447 129.35" stroke="black" stroke-width="0.3125" stroke-miterlimit="10"/>
<path opacity="0.375" d="M1573 130.854C1679.85 129.326 1682.7 87.1672 1752.17 94.203C1821.64 101.236 1886.9 161.072 1963.86 145.391C2040.83 129.707 2080.38 52.3368 2130.91 73.7039C2181.44 95.071 2148.66 146.355 2192.5 142.948C2236.33 139.539 2289.53 93.129 2333.8 94.3364C2363.59 95.1506 2376.09 147.892 2458 134.202" stroke="black" stroke-width="0.3438" stroke-miterlimit="10"/>
<path opacity="0.5" d="M1576 134.51C1682.87 132.975 1682.84 76.4582 1752.33 83.5231C1821.82 90.588 1888 169.683 1964.98 153.93C2041.96 138.176 2078.99 46.7839 2129.54 68.2464C2180.08 89.709 2131.78 151.716 2175.62 148.294C2219.46 144.869 2274.8 91.8171 2323.89 93.6832C2353.69 94.8161 2386.09 159.293 2468 139.577" stroke="black" stroke-width="0.375" stroke-miterlimit="10"/>
<path opacity="0.625" d="M1580 136.284C1686.9 134.763 1683.99 64.7217 1753.49 71.7221C1823 78.7225 1890.1 175.914 1967.1 160.306C2044.1 144.696 2078.6 40.5858 2129.16 61.8526C2179.71 83.1194 2115.88 154.959 2159.73 151.566C2203.58 148.173 2261.06 89.1767 2314.98 91.7267C2344.77 93.1357 2397.08 168.445 2479 143" stroke="black" stroke-width="0.4063" stroke-miterlimit="10"/>
<path opacity="0.75" d="M1584 139.761C1690.8 138.241 1685.02 54.1657 1754.46 61.1655C1823.91 68.1654 1891.86 184.164 1968.79 168.557C2045.72 152.951 2077.67 35.2968 2128.17 56.5619C2178.68 77.8269 2099.4 160.058 2143.21 156.665C2187.02 153.272 2246.58 87.8027 2305.26 91.1023C2335.03 92.7766 2407.17 179.52 2489 148.17" stroke="black" stroke-width="0.4375" stroke-miterlimit="10"/>
<path opacity="0.875" d="M1588 142.937C1694.83 141.406 1686.17 42.63 1755.63 49.677C1825.08 56.7241 1893.96 192.449 1970.91 176.735C2047.85 161.021 2077.28 28.9321 2127.8 50.3405C2178.32 71.7489 2083.5 165.002 2127.32 161.586C2171.14 158.17 2232.86 85.6836 2296.36 89.8166C2326.12 91.753 2418.17 190.616 2500 153.106" stroke="black" stroke-width="0.4688" stroke-miterlimit="10"/>
<path d="M1592 145.39C1698.85 143.863 1687.31 31.2896 1756.79 38.3157C1826.26 45.3417 1896.06 199.548 1973.02 183.883C2049.99 168.216 2076.89 22.9196 2127.42 44.2643C2177.95 65.6089 2067.6 169.018 2111.43 165.615C2155.26 162.209 2219.13 83.3307 2287.44 88.3092C2317.21 90.4783 2429.17 200.558 2511 157.228" stroke="black" stroke-width="0.5" stroke-miterlimit="10"/>
</g>
</svg>
