<svg width="320" height="44" viewBox="0 0 320 44" fill="none" xmlns="http://www.w3.org/2000/svg">
<mask id="mask0_160_21843" style="mask-type:alpha" maskUnits="userSpaceOnUse" x="0" y="0" width="320" height="44">
<rect width="320" height="43.125" fill="#D9D9D9"/>
</mask>
<g mask="url(#mask0_160_21843)">
<path opacity="0.125" d="M-160.312 38.9322C-126.9 38.4557 -124.209 34.1141 -102.484 36.3046C-80.7594 38.495 -60.9193 45.3536 -36.8522 40.4698C-12.7852 35.5853 1.16647 19.9708 16.968 26.6252C32.7695 33.2797 32.224 42.7448 45.9303 41.6831C59.6373 40.6214 74.9436 30.2221 85.7747 30.1281C95.0992 30.0472 86.5649 39.481 112.188 38.9148" stroke="black" stroke-width="0.2813" stroke-miterlimit="10"/>
<path opacity="0.25" d="M-159.062 39.9076C-125.68 39.4298 -123.891 30.6587 -102.186 32.858C-80.4808 35.0574 -60.3749 47.8564 -36.3298 42.952C-12.2847 38.0477 0.863366 18.1115 16.6505 24.793C32.4376 31.4745 27.0449 44.2449 40.7394 43.1788C54.4332 42.1128 70.3903 29.5868 82.7161 29.7778C92.0291 29.9219 89.7184 42.8467 115.313 40.422" stroke="black" stroke-width="0.3125" stroke-miterlimit="10"/>
<path opacity="0.375" d="M-157.812 40.8918C-124.423 40.4143 -123.532 27.2398 -101.822 29.4384C-80.1118 31.6364 -59.7182 50.3351 -35.6676 45.4347C-11.6169 40.5335 0.74376 16.3553 16.5345 23.0325C32.3253 29.7097 22.0825 45.7359 35.7801 44.6713C49.4771 43.606 66.102 29.1028 79.9361 29.4801C89.2484 29.7346 93.1543 46.2163 118.75 41.9381" stroke="black" stroke-width="0.3438" stroke-miterlimit="10"/>
<path opacity="0.5" d="M-156.875 42.0342C-123.478 41.5546 -123.486 23.8932 -101.771 26.101C-80.0563 28.3087 -59.3741 53.0261 -35.3181 48.103C-11.2621 43.18 0.310063 14.62 16.1051 21.327C31.8993 28.0341 16.8051 47.4112 30.5051 46.3418C44.2051 45.2717 61.4988 28.6929 76.8412 29.276C86.1519 29.63 96.278 49.779 121.875 43.6177" stroke="black" stroke-width="0.375" stroke-miterlimit="10"/>
<path opacity="0.625" d="M-155.625 42.5888C-122.22 42.1135 -123.128 20.2255 -101.408 22.4132C-79.6883 24.6008 -58.7174 54.973 -34.6566 50.0956C-10.5951 45.2174 0.188949 12.6831 15.9868 19.3289C31.7847 25.9748 11.836 48.4246 25.5399 47.3643C39.243 46.304 57.2057 27.8677 74.0565 28.6646C83.3671 29.1049 99.714 52.6391 125.312 44.6876" stroke="black" stroke-width="0.4063" stroke-miterlimit="10"/>
<path opacity="0.75" d="M-154.375 43.6754C-121 43.2002 -122.806 16.9268 -101.105 19.1142C-79.4044 21.3017 -58.1691 57.5512 -34.1289 52.6741C-10.0887 47.7971 -0.104299 11.0303 15.6796 17.6756C31.4634 24.3209 6.68648 50.018 20.3774 48.9578C34.0691 47.8975 52.6819 27.4383 71.0197 28.4695C80.3207 28.9927 102.866 56.1001 128.437 46.3031" stroke="black" stroke-width="0.4375" stroke-miterlimit="10"/>
<path opacity="0.875" d="M-153.125 44.6677C-119.742 44.1893 -122.447 13.3219 -100.742 15.5241C-79.0365 17.7263 -57.5126 60.1403 -33.467 55.2296C-9.42146 50.319 -0.225694 9.04129 15.5617 15.7314C31.3491 22.4215 1.71882 51.563 15.4136 50.4956C29.1076 49.4282 48.393 26.7761 68.2365 28.0677C77.5381 28.6728 106.303 59.5674 131.875 47.8458" stroke="black" stroke-width="0.4688" stroke-miterlimit="10"/>
<path d="M-151.875 45.4342C-118.485 44.9573 -122.089 9.778 -100.379 11.9736C-78.6687 14.1693 -56.8562 62.3588 -32.8054 57.4635C-8.75453 52.5675 -0.34714 7.16238 15.4437 13.8326C31.2346 20.5028 -3.25031 52.8181 10.4467 51.7546C24.1445 50.6904 44.1033 26.0408 65.4502 27.5966C74.753 28.2745 109.739 62.6744 135.313 49.1338" stroke="black" stroke-width="0.5" stroke-miterlimit="10"/>
<path opacity="0.125" d="M101.877 38.9322C135.29 38.4557 137.98 34.1141 159.705 36.3046C181.43 38.495 201.27 45.3536 225.337 40.4698C249.404 35.5853 263.356 19.9708 279.157 26.6252C294.959 33.2797 294.413 42.7448 308.12 41.6831C321.827 40.6214 337.133 30.2221 347.964 30.1281C357.289 30.0472 348.754 39.481 374.377 38.9148" stroke="black" stroke-width="0.2813" stroke-miterlimit="10"/>
<path opacity="0.25" d="M103.127 39.9076C136.509 39.4298 138.298 30.6587 160.003 32.858C181.709 35.0574 201.815 47.8564 225.86 42.952C249.905 38.0477 263.053 18.1115 278.84 24.793C294.627 31.4745 289.234 44.2449 302.929 43.1788C316.623 42.1128 332.58 29.5868 344.906 29.7778C354.219 29.9219 351.908 42.8467 377.502 40.422" stroke="black" stroke-width="0.3125" stroke-miterlimit="10"/>
<path opacity="0.375" d="M104.377 40.8918C137.767 40.4143 138.657 27.2398 160.367 29.4384C182.078 31.6364 202.471 50.3351 226.522 45.4347C250.573 40.5335 262.933 16.3553 278.724 23.0325C294.515 29.7097 284.272 45.7359 297.97 44.6713C311.667 43.606 328.291 29.1028 342.126 29.4801C351.438 29.7346 355.344 46.2163 380.939 41.9381" stroke="black" stroke-width="0.3438" stroke-miterlimit="10"/>
<path opacity="0.5" d="M105.314 42.0342C138.712 41.5546 138.703 23.8932 160.418 26.101C182.133 28.3087 202.815 53.0261 226.871 48.103C250.927 43.18 262.5 14.62 278.295 21.327C294.089 28.0341 278.995 47.4112 292.695 46.3418C306.395 45.2717 323.688 28.6929 339.031 29.276C348.341 29.63 358.467 49.779 384.064 43.6177" stroke="black" stroke-width="0.375" stroke-miterlimit="10"/>
<path opacity="0.625" d="M106.564 42.5888C139.969 42.1135 139.061 20.2255 160.781 22.4132C182.501 24.6008 203.472 54.973 227.533 50.0956C251.594 45.2174 262.378 12.6831 278.176 19.3289C293.974 25.9748 274.025 48.4246 287.729 47.3643C301.432 46.304 319.395 27.8677 336.246 28.6646C345.557 29.1049 361.903 52.6391 387.502 44.6876" stroke="black" stroke-width="0.4063" stroke-miterlimit="10"/>
<path opacity="0.75" d="M107.814 43.6754C141.19 43.2002 139.384 16.9268 161.084 19.1142C182.785 21.3017 204.02 57.5512 228.061 52.6741C252.101 47.7971 262.085 11.0303 277.869 17.6756C293.653 24.3209 268.876 50.018 282.567 48.9578C296.259 47.8975 314.871 27.4383 333.209 28.4695C342.51 28.9927 365.056 56.1001 390.627 46.3031" stroke="black" stroke-width="0.4375" stroke-miterlimit="10"/>
<path opacity="0.875" d="M109.064 44.6677C142.447 44.1893 139.743 13.3219 161.447 15.5241C183.153 17.7263 204.677 60.1403 228.722 55.2296C252.768 50.319 261.964 9.04129 277.751 15.7314C293.539 22.4215 263.908 51.563 277.603 50.4956C291.297 49.4282 310.582 26.7761 330.426 28.0677C339.728 28.6728 368.492 59.5674 394.064 47.8458" stroke="black" stroke-width="0.4688" stroke-miterlimit="10"/>
<path d="M110.314 45.4342C143.705 44.9573 140.1 9.778 161.81 11.9736C183.521 14.1693 205.333 62.3588 229.384 57.4635C253.435 52.5675 261.842 7.16238 277.633 13.8326C293.424 20.5028 258.939 52.8181 272.636 51.7546C286.334 50.6904 306.293 26.0408 327.64 27.5966C336.942 28.2745 371.929 62.6744 397.502 49.1338" stroke="black" stroke-width="0.5" stroke-miterlimit="10"/>
</g>
</svg>
