<svg width="88" height="88" viewBox="0 0 88 88" fill="none" xmlns="http://www.w3.org/2000/svg">
<circle cx="44" cy="44" r="44" fill="black"/>
<path d="M20.8478 43.1388L31.908 47.2874L36.189 61.1234C36.4629 62.0096 37.5411 62.3371 38.2568 61.7491L44.4219 56.6982C44.7364 56.4407 45.1268 56.2949 45.5323 56.2835C45.9378 56.2722 46.3357 56.3958 46.664 56.6353L57.7837 64.7486C58.5493 65.3078 59.634 64.8862 59.826 63.9565L67.9717 24.5789C68.1813 23.5633 67.1884 22.7161 66.2261 23.0901L20.8349 40.6878C19.7147 41.122 19.7245 42.7158 20.8478 43.1388ZM35.499 45.079L57.1147 31.6996C57.5032 31.4599 57.9029 31.9878 57.5693 32.2988L39.7301 48.9637C39.1036 49.5493 38.6985 50.3352 38.584 51.1873L37.9763 55.7131C37.8958 56.3174 37.0512 56.3774 36.8853 55.7926L34.5482 47.5397C34.2805 46.5984 34.6706 45.5929 35.499 45.079Z" fill="white"/>
</svg>
