<svg width="88" height="88" viewBox="0 0 88 88" fill="none" xmlns="http://www.w3.org/2000/svg">
<circle cx="44" cy="44" r="44" fill="black"/>
<path fill-rule="evenodd" clip-rule="evenodd" d="M42.9528 57.8784H46.0012C46.0012 57.8784 46.9217 57.7772 47.3924 57.2725C47.8251 56.8085 47.8112 55.9378 47.8112 55.9378C47.8112 55.9378 47.7516 51.8609 49.6497 51.2606C51.5215 50.6688 53.9246 55.2007 56.4715 56.9435C58.3976 58.2618 59.8612 57.9733 59.8612 57.9733L66.6721 57.8784C66.6721 57.8784 70.2347 57.6593 68.5454 54.8672C68.4071 54.6392 67.5612 52.8019 63.4812 49.0272C59.2102 45.0763 59.7827 45.7155 64.927 38.8815C68.0599 34.7196 69.3122 32.1788 68.9209 31.0907C68.548 30.0539 66.2436 30.3278 66.2436 30.3278L58.5752 30.375C58.5752 30.375 58.0062 30.2979 57.5849 30.5492C57.1728 30.795 56.9082 31.3692 56.9082 31.3692C56.9082 31.3692 55.6941 34.5896 54.076 37.3288C50.6613 43.108 49.2957 43.4139 48.7375 43.0545C47.4389 42.218 47.7635 39.6949 47.7635 37.9018C47.7635 32.3009 48.6158 29.9657 46.1037 29.3612C45.2702 29.1607 44.6562 29.0281 42.5243 29.0064C39.788 28.9787 37.4725 29.0148 36.1612 29.6551C35.2887 30.081 34.6157 31.0297 35.0258 31.0842C35.5328 31.1516 36.6804 31.393 37.2888 32.2182C38.0749 33.2842 38.0474 35.677 38.0474 35.677C38.0474 35.677 38.4991 42.2701 36.9929 43.0889C35.9593 43.6506 34.5413 42.5039 31.4969 37.2606C29.9374 34.5749 28.7595 31.6059 28.7595 31.6059C28.7595 31.6059 28.5327 31.0511 28.1275 30.7542C27.6362 30.3944 26.9496 30.2804 26.9496 30.2804L19.6623 30.3278C19.6623 30.3278 18.5686 30.3582 18.1667 30.8324C17.8091 31.2545 18.1381 32.1264 18.1381 32.1264C18.1381 32.1264 23.8429 45.43 30.303 52.1343C36.2271 58.2818 42.9528 57.8784 42.9528 57.8784Z" fill="white"/>
</svg>
