<svg width="88" height="88" viewBox="0 0 88 88" fill="none" xmlns="http://www.w3.org/2000/svg">
<circle cx="44" cy="44" r="44" fill="black"/>
<path d="M66.1291 29.9187C64.3964 27.8456 61.1975 27 55.0882 27H32.9114C26.6622 27 23.4091 27.9002 21.6829 30.1072C20 32.2591 20 35.4298 20 39.8181V48.1821C20 56.6836 21.9968 61 32.9114 61H55.0883C60.3863 61 63.322 60.2538 65.2213 58.4244C67.169 56.5483 68 53.4852 68 48.1821V39.8181C68 35.1903 67.8698 32.0009 66.1291 29.9187ZM50.8162 45.1548L40.7458 50.4521C40.5098 50.5764 40.2459 50.6373 39.9797 50.6289C39.7135 50.6206 39.4539 50.5432 39.2261 50.4043C38.9983 50.2654 38.8099 50.0697 38.6793 49.8361C38.5486 49.6025 38.48 49.3389 38.4802 49.0709V38.5102C38.4802 38.2425 38.5487 37.9794 38.6791 37.7461C38.8095 37.5128 38.9974 37.3173 39.2247 37.1783C39.452 37.0394 39.711 36.9617 39.9768 36.9527C40.2426 36.9438 40.5062 37.0039 40.7422 37.1273L50.8126 42.3904C51.0639 42.5218 51.2747 42.72 51.4219 42.9635C51.5691 43.207 51.6471 43.4865 51.6475 43.7715C51.6478 44.0566 51.5705 44.3363 51.424 44.5801C51.2774 44.824 51.0672 45.0228 50.8162 45.1548Z" fill="white"/>
</svg>
